<ttFont>
    <TTGlyph name=".notdef" xMin="54" yMin="-50" xMax="969" yMax="1434">
      <contour>
        <pt x="969" y="-50" on="1"/>
        <pt x="54" y="-50" on="1"/>
        <pt x="54" y="1434" on="1"/>
        <pt x="969" y="1434" on="1"/>
      </contour>
      <contour>
        <pt x="220" y="950" on="1"/>
        <pt x="281" y="1014" on="1"/>
        <pt x="512" y="786" on="1"/>
        <pt x="743" y="1014" on="1"/>
        <pt x="803" y="951" on="1"/>
        <pt x="803" y="1269" on="1"/>
        <pt x="220" y="1269" on="1"/>
      </contour>
      <contour>
        <pt x="220" y="498" on="1"/>
        <pt x="415" y="690" on="1"/>
        <pt x="220" y="882" on="1"/>
      </contour>
      <contour>
        <pt x="803" y="499" on="1"/>
        <pt x="803" y="881" on="1"/>
        <pt x="609" y="690" on="1"/>
      </contour>
      <contour>
        <pt x="803" y="442" on="1"/>
        <pt x="737" y="372" on="1"/>
        <pt x="512" y="594" on="1"/>
        <pt x="287" y="372" on="1"/>
        <pt x="220" y="443" on="1"/>
        <pt x="220" y="116" on="1"/>
        <pt x="803" y="116" on="1"/>
      </contour>
    </TTGlyph>
    <TTGlyph name="A" xMin="-34" yMin="0" xMax="1424" yMax="1419">
      <contour>
        <pt x="1400" y="0" on="1"/>
        <pt x="812" y="0" on="1"/>
        <pt x="827" y="85" on="1"/>
        <pt x="988" y="143" on="1"/>
        <pt x="887" y="430" on="1"/>
        <pt x="651" y="416" on="0"/>
        <pt x="425" y="416" on="1"/>
        <pt x="395" y="416" on="1"/>
        <pt x="302" y="146" on="1"/>
        <pt x="496" y="82" on="1"/>
        <pt x="479" y="0" on="1"/>
        <pt x="-34" y="0" on="1"/>
        <pt x="-17" y="94" on="1"/>
        <pt x="142" y="150" on="1"/>
        <pt x="590" y="1384" on="1"/>
        <pt x="778" y="1419" on="1"/>
        <pt x="1269" y="143" on="1"/>
        <pt x="1424" y="97" on="1"/>
      </contour>
      <contour>
        <pt x="633" y="1155" on="1"/>
        <pt x="621" y="1083" on="0"/>
        <pt x="447" y="568" on="1"/>
        <pt x="839" y="568" on="1"/>
      </contour>
    </TTGlyph>
    <TTGlyph name="AE" xMin="-40" yMin="0" xMax="1847" yMax="1397">
      <contour>
        <pt x="447" y="418" on="1"/>
        <pt x="303" y="146" on="1"/>
        <pt x="486" y="82" on="1"/>
        <pt x="466" y="0" on="1"/>
        <pt x="-40" y="0" on="1"/>
        <pt x="-21" y="93" on="1"/>
        <pt x="131" y="148" on="1"/>
        <pt x="716" y="1248" on="1"/>
        <pt x="551" y="1302" on="1"/>
        <pt x="568" y="1384" on="1"/>
        <pt x="1603" y="1384" on="1"/>
        <pt x="1738" y="1397" on="1"/>
        <pt x="1776" y="1046" on="1"/>
        <pt x="1665" y="1023" on="1"/>
        <pt x="1567" y="1239" on="1"/>
        <pt x="1363" y="1260" on="0"/>
        <pt x="1145" y="1296" on="1"/>
        <pt x="1145" y="741" on="1"/>
        <pt x="1198" y="752" on="0"/>
        <pt x="1382" y="771" on="0"/>
        <pt x="1400" y="771" on="1"/>
        <pt x="1460" y="940" on="1"/>
        <pt x="1546" y="919" on="1"/>
        <pt x="1527" y="457" on="1"/>
        <pt x="1441" y="472" on="1"/>
        <pt x="1399" y="633" on="1"/>
        <pt x="1378" y="633" on="0"/>
        <pt x="1200" y="648" on="0"/>
        <pt x="1145" y="659" on="1"/>
        <pt x="1145" y="99" on="1"/>
        <pt x="1165" y="105" on="0"/>
        <pt x="1451" y="144" on="0"/>
        <pt x="1628" y="161" on="1"/>
        <pt x="1750" y="351" on="1"/>
        <pt x="1847" y="335" on="1"/>
        <pt x="1769" y="0" on="1"/>
        <pt x="697" y="0" on="1"/>
        <pt x="714" y="87" on="1"/>
        <pt x="890" y="150" on="1"/>
        <pt x="890" y="433" on="1"/>
        <pt x="760" y="418" on="0"/>
      </contour>
      <contour>
        <pt x="850" y="1209" on="1"/>
        <pt x="524" y="568" on="1"/>
        <pt x="890" y="568" on="1"/>
        <pt x="890" y="1209" on="1"/>
      </contour>
    </TTGlyph>
    <TTGlyph name="Aacute" xMin="-34" yMin="0" xMax="1424" yMax="1795">
      <contour>
        <pt x="489" y="1598" on="1"/>
        <pt x="846" y="1795" on="1"/>
        <pt x="950" y="1795" on="1"/>
        <pt x="980" y="1636" on="1"/>
        <pt x="511" y="1491" on="1"/>
      </contour>
      <contour>
        <pt x="1400" y="0" on="1"/>
        <pt x="812" y="0" on="1"/>
        <pt x="827" y="85" on="1"/>
        <pt x="988" y="143" on="1"/>
        <pt x="887" y="430" on="1"/>
        <pt x="651" y="416" on="0"/>
        <pt x="425" y="416" on="1"/>
        <pt x="395" y="416" on="1"/>
        <pt x="302" y="146" on="1"/>
        <pt x="496" y="82" on="1"/>
        <pt x="479" y="0" on="1"/>
        <pt x="-34" y="0" on="1"/>
        <pt x="-17" y="94" on="1"/>
        <pt x="142" y="150" on="1"/>
        <pt x="590" y="1384" on="1"/>
        <pt x="778" y="1419" on="1"/>
        <pt x="1269" y="143" on="1"/>
        <pt x="1424" y="97" on="1"/>
      </contour>
      <contour>
        <pt x="633" y="1155" on="1"/>
        <pt x="621" y="1083" on="0"/>
        <pt x="447" y="568" on="1"/>
        <pt x="839" y="568" on="1"/>
      </contour>
    </TTGlyph>
    <TTGlyph name="Abreve" xMin="-34" yMin="0" xMax="1424" yMax="1783">
      <contour>
        <pt x="394" y="1712" on="1"/>
        <pt x="394" y="1770" on="0"/>
        <pt x="417" y="1783" on="1"/>
        <pt x="531" y="1782" on="1"/>
        <pt x="542" y="1699" on="0"/>
        <pt x="624" y="1617" on="0"/>
        <pt x="680" y="1617" on="1"/>
        <pt x="734" y="1617" on="0"/>
        <pt x="814" y="1700" on="0"/>
        <pt x="825" y="1783" on="1"/>
        <pt x="941" y="1783" on="1"/>
        <pt x="962" y="1765" on="0"/>
        <pt x="962" y="1716" on="1"/>
        <pt x="962" y="1654" on="0"/>
        <pt x="893" y="1548" on="0"/>
        <pt x="764" y="1484" on="0"/>
        <pt x="680" y="1484" on="1"/>
        <pt x="594" y="1484" on="0"/>
        <pt x="464" y="1547" on="0"/>
        <pt x="394" y="1652" on="0"/>
      </contour>
      <contour>
        <pt x="1400" y="0" on="1"/>
        <pt x="812" y="0" on="1"/>
        <pt x="827" y="85" on="1"/>
        <pt x="988" y="143" on="1"/>
        <pt x="887" y="430" on="1"/>
        <pt x="651" y="416" on="0"/>
        <pt x="425" y="416" on="1"/>
        <pt x="395" y="416" on="1"/>
        <pt x="302" y="146" on="1"/>
        <pt x="496" y="82" on="1"/>
        <pt x="479" y="0" on="1"/>
        <pt x="-34" y="0" on="1"/>
        <pt x="-17" y="94" on="1"/>
        <pt x="142" y="150" on="1"/>
        <pt x="590" y="1384" on="1"/>
        <pt x="778" y="1419" on="1"/>
        <pt x="1269" y="143" on="1"/>
        <pt x="1424" y="97" on="1"/>
      </contour>
      <contour>
        <pt x="633" y="1155" on="1"/>
        <pt x="621" y="1083" on="0"/>
        <pt x="447" y="568" on="1"/>
        <pt x="839" y="568" on="1"/>
      </contour>
    </TTGlyph>
    <TTGlyph name="Acircumflex" xMin="-34" yMin="0" xMax="1424" yMax="1793">
      <contour>
        <pt x="353" y="1564" on="1"/>
        <pt x="624" y="1793" on="1"/>
        <pt x="733" y="1793" on="1"/>
        <pt x="1005" y="1564" on="1"/>
        <pt x="929" y="1493" on="1"/>
        <pt x="679" y="1620" on="1"/>
        <pt x="429" y="1493" on="1"/>
      </contour>
      <contour>
        <pt x="1400" y="0" on="1"/>
        <pt x="812" y="0" on="1"/>
        <pt x="827" y="85" on="1"/>
        <pt x="988" y="143" on="1"/>
        <pt x="887" y="430" on="1"/>
        <pt x="651" y="416" on="0"/>
        <pt x="425" y="416" on="1"/>
        <pt x="395" y="416" on="1"/>
        <pt x="302" y="146" on="1"/>
        <pt x="496" y="82" on="1"/>
        <pt x="479" y="0" on="1"/>
        <pt x="-34" y="0" on="1"/>
        <pt x="-17" y="94" on="1"/>
        <pt x="142" y="150" on="1"/>
        <pt x="590" y="1384" on="1"/>
        <pt x="778" y="1419" on="1"/>
        <pt x="1269" y="143" on="1"/>
        <pt x="1424" y="97" on="1"/>
      </contour>
      <contour>
        <pt x="633" y="1155" on="1"/>
        <pt x="621" y="1083" on="0"/>
        <pt x="447" y="568" on="1"/>
        <pt x="839" y="568" on="1"/>
      </contour>
    </TTGlyph>
    <TTGlyph name="Adieresis" xMin="-34" yMin="0" xMax="1424" yMax="1754">
      <contour>
        <pt x="927" y="1506" on="1"/>
        <pt x="906" y="1506" on="0"/>
        <pt x="837" y="1533" on="0"/>
        <pt x="779" y="1571" on="0"/>
        <pt x="773" y="1587" on="1"/>
        <pt x="772" y="1590" on="0"/>
        <pt x="772" y="1598" on="1"/>
        <pt x="772" y="1620" on="0"/>
        <pt x="798" y="1690" on="0"/>
        <pt x="836" y="1747" on="0"/>
        <pt x="853" y="1752" on="1"/>
        <pt x="859" y="1754" on="0"/>
        <pt x="864" y="1754" on="1"/>
        <pt x="885" y="1754" on="0"/>
        <pt x="954" y="1727" on="0"/>
        <pt x="1011" y="1689" on="0"/>
        <pt x="1017" y="1673" on="1"/>
        <pt x="1018" y="1670" on="0"/>
        <pt x="1018" y="1662" on="1"/>
        <pt x="1018" y="1641" on="0"/>
        <pt x="992" y="1571" on="0"/>
        <pt x="954" y="1513" on="0"/>
        <pt x="937" y="1507" on="1"/>
        <pt x="934" y="1506" on="0"/>
      </contour>
      <contour>
        <pt x="492" y="1506" on="1"/>
        <pt x="471" y="1506" on="0"/>
        <pt x="402" y="1533" on="0"/>
        <pt x="345" y="1571" on="0"/>
        <pt x="339" y="1587" on="1"/>
        <pt x="337" y="1593" on="0"/>
        <pt x="337" y="1599" on="1"/>
        <pt x="337" y="1621" on="0"/>
        <pt x="364" y="1690" on="0"/>
        <pt x="402" y="1746" on="0"/>
        <pt x="419" y="1752" on="1"/>
        <pt x="422" y="1753" on="0"/>
        <pt x="429" y="1753" on="1"/>
        <pt x="449" y="1753" on="0"/>
        <pt x="518" y="1726" on="0"/>
        <pt x="576" y="1689" on="0"/>
        <pt x="582" y="1673" on="1"/>
        <pt x="583" y="1670" on="0"/>
        <pt x="583" y="1662" on="1"/>
        <pt x="583" y="1640" on="0"/>
        <pt x="557" y="1571" on="0"/>
        <pt x="519" y="1513" on="0"/>
        <pt x="502" y="1507" on="1"/>
        <pt x="499" y="1506" on="0"/>
      </contour>
      <contour>
        <pt x="1400" y="0" on="1"/>
        <pt x="812" y="0" on="1"/>
        <pt x="827" y="85" on="1"/>
        <pt x="988" y="143" on="1"/>
        <pt x="887" y="430" on="1"/>
        <pt x="651" y="416" on="0"/>
        <pt x="425" y="416" on="1"/>
        <pt x="395" y="416" on="1"/>
        <pt x="302" y="146" on="1"/>
        <pt x="496" y="82" on="1"/>
        <pt x="479" y="0" on="1"/>
        <pt x="-34" y="0" on="1"/>
        <pt x="-17" y="94" on="1"/>
        <pt x="142" y="150" on="1"/>
        <pt x="590" y="1384" on="1"/>
        <pt x="778" y="1419" on="1"/>
        <pt x="1269" y="143" on="1"/>
        <pt x="1424" y="97" on="1"/>
      </contour>
      <contour>
        <pt x="633" y="1155" on="1"/>
        <pt x="621" y="1083" on="0"/>
        <pt x="447" y="568" on="1"/>
        <pt x="839" y="568" on="1"/>
      </contour>
    </TTGlyph>
    <TTGlyph name="Agrave" xMin="-34" yMin="0" xMax="1424" yMax="1795">
      <contour>
        <pt x="433" y="1636" on="1"/>
        <pt x="463" y="1795" on="1"/>
        <pt x="567" y="1795" on="1"/>
        <pt x="923" y="1599" on="1"/>
        <pt x="902" y="1491" on="1"/>
      </contour>
      <contour>
        <pt x="1400" y="0" on="1"/>
        <pt x="812" y="0" on="1"/>
        <pt x="827" y="85" on="1"/>
        <pt x="988" y="143" on="1"/>
        <pt x="887" y="430" on="1"/>
        <pt x="651" y="416" on="0"/>
        <pt x="425" y="416" on="1"/>
        <pt x="395" y="416" on="1"/>
        <pt x="302" y="146" on="1"/>
        <pt x="496" y="82" on="1"/>
        <pt x="479" y="0" on="1"/>
        <pt x="-34" y="0" on="1"/>
        <pt x="-17" y="94" on="1"/>
        <pt x="142" y="150" on="1"/>
        <pt x="590" y="1384" on="1"/>
        <pt x="778" y="1419" on="1"/>
        <pt x="1269" y="143" on="1"/>
        <pt x="1424" y="97" on="1"/>
      </contour>
      <contour>
        <pt x="633" y="1155" on="1"/>
        <pt x="621" y="1083" on="0"/>
        <pt x="447" y="568" on="1"/>
        <pt x="839" y="568" on="1"/>
      </contour>
    </TTGlyph>
    <TTGlyph name="Amacron" xMin="-34" yMin="0" xMax="1424" yMax="1690">
      <contour>
        <pt x="380" y="1535" on="1"/>
        <pt x="411" y="1690" on="1"/>
        <pt x="973" y="1690" on="1"/>
        <pt x="946" y="1547" on="1"/>
        <pt x="835" y="1541" on="0"/>
        <pt x="503" y="1535" on="0"/>
      </contour>
      <contour>
        <pt x="1400" y="0" on="1"/>
        <pt x="812" y="0" on="1"/>
        <pt x="827" y="85" on="1"/>
        <pt x="988" y="143" on="1"/>
        <pt x="887" y="430" on="1"/>
        <pt x="651" y="416" on="0"/>
        <pt x="425" y="416" on="1"/>
        <pt x="395" y="416" on="1"/>
        <pt x="302" y="146" on="1"/>
        <pt x="496" y="82" on="1"/>
        <pt x="479" y="0" on="1"/>
        <pt x="-34" y="0" on="1"/>
        <pt x="-17" y="94" on="1"/>
        <pt x="142" y="150" on="1"/>
        <pt x="590" y="1384" on="1"/>
        <pt x="778" y="1419" on="1"/>
        <pt x="1269" y="143" on="1"/>
        <pt x="1424" y="97" on="1"/>
      </contour>
      <contour>
        <pt x="633" y="1155" on="1"/>
        <pt x="621" y="1083" on="0"/>
        <pt x="447" y="568" on="1"/>
        <pt x="839" y="568" on="1"/>
      </contour>
    </TTGlyph>
    <TTGlyph name="Aogonek" xMin="-36" yMin="-486" xMax="1417" yMax="1420">
      <contour>
        <pt x="898" y="-232" on="1"/>
        <pt x="898" y="-265" on="0"/>
        <pt x="935" y="-329" on="0"/>
        <pt x="965" y="-344" on="1"/>
        <pt x="987" y="-355" on="0"/>
        <pt x="1009" y="-355" on="1"/>
        <pt x="1042" y="-355" on="0"/>
        <pt x="1132" y="-331" on="0"/>
        <pt x="1170" y="-311" on="1"/>
        <pt x="1198" y="-351" on="1"/>
        <pt x="1063" y="-486" on="0"/>
        <pt x="930" y="-486" on="1"/>
        <pt x="871" y="-486" on="0"/>
        <pt x="767" y="-439" on="0"/>
        <pt x="704" y="-348" on="0"/>
        <pt x="704" y="-283" on="1"/>
        <pt x="704" y="-230" on="0"/>
        <pt x="748" y="-147" on="0"/>
        <pt x="814" y="-86" on="0"/>
        <pt x="872" y="-43" on="1"/>
        <pt x="922" y="-5" on="0"/>
        <pt x="951" y="20" on="1"/>
        <pt x="971" y="38" on="0"/>
        <pt x="994" y="84" on="0"/>
        <pt x="994" y="110" on="1"/>
        <pt x="994" y="125" on="0"/>
        <pt x="984" y="155" on="1"/>
        <pt x="887" y="432" on="1"/>
        <pt x="748" y="418" on="0"/>
        <pt x="506" y="418" on="1"/>
        <pt x="433" y="418" on="0"/>
        <pt x="397" y="419" on="1"/>
        <pt x="303" y="146" on="1"/>
        <pt x="496" y="82" on="1"/>
        <pt x="478" y="0" on="1"/>
        <pt x="-36" y="0" on="1"/>
        <pt x="-15" y="94" on="1"/>
        <pt x="142" y="150" on="1"/>
        <pt x="590" y="1384" on="1"/>
        <pt x="778" y="1420" on="1"/>
        <pt x="1270" y="143" on="1"/>
        <pt x="1417" y="99" on="1"/>
        <pt x="1390" y="0" on="1"/>
        <pt x="1180" y="0" on="1"/>
        <pt x="1134" y="0" on="0"/>
        <pt x="1064" y="-20" on="0"/>
        <pt x="1031" y="-46" on="1"/>
        <pt x="980" y="-86" on="0"/>
        <pt x="898" y="-192" on="0"/>
      </contour>
      <contour>
        <pt x="633" y="1155" on="1"/>
        <pt x="560" y="905" on="0"/>
        <pt x="448" y="568" on="1"/>
        <pt x="839" y="568" on="1"/>
      </contour>
    </TTGlyph>
    <TTGlyph name="Aring" xMin="-34" yMin="0" xMax="1424" yMax="1696">
      <contour>
        <pt x="1400" y="0" on="1"/>
        <pt x="812" y="0" on="1"/>
        <pt x="827" y="85" on="1"/>
        <pt x="988" y="143" on="1"/>
        <pt x="887" y="430" on="1"/>
        <pt x="651" y="416" on="0"/>
        <pt x="425" y="416" on="1"/>
        <pt x="395" y="416" on="1"/>
        <pt x="302" y="146" on="1"/>
        <pt x="496" y="82" on="1"/>
        <pt x="479" y="0" on="1"/>
        <pt x="-34" y="0" on="1"/>
        <pt x="-17" y="94" on="1"/>
        <pt x="142" y="150" on="1"/>
        <pt x="577" y="1348" on="1"/>
        <pt x="534" y="1371" on="0"/>
        <pt x="484" y="1450" on="0"/>
        <pt x="484" y="1502" on="1"/>
        <pt x="484" y="1557" on="0"/>
        <pt x="533" y="1645" on="0"/>
        <pt x="624" y="1696" on="0"/>
        <pt x="683" y="1696" on="1"/>
        <pt x="732" y="1696" on="0"/>
        <pt x="819" y="1651" on="0"/>
        <pt x="872" y="1570" on="0"/>
        <pt x="872" y="1518" on="1"/>
        <pt x="872" y="1469" on="0"/>
        <pt x="834" y="1390" on="0"/>
        <pt x="799" y="1364" on="1"/>
        <pt x="1269" y="143" on="1"/>
        <pt x="1424" y="97" on="1"/>
      </contour>
      <contour>
        <pt x="603" y="1519" on="1"/>
        <pt x="603" y="1483" on="0"/>
        <pt x="645" y="1431" on="0"/>
        <pt x="685" y="1431" on="1"/>
        <pt x="715" y="1431" on="0"/>
        <pt x="751" y="1471" on="0"/>
        <pt x="751" y="1502" on="1"/>
        <pt x="751" y="1539" on="0"/>
        <pt x="707" y="1592" on="0"/>
        <pt x="669" y="1592" on="1"/>
        <pt x="640" y="1592" on="0"/>
        <pt x="603" y="1549" on="0"/>
      </contour>
      <contour>
        <pt x="633" y="1155" on="1"/>
        <pt x="621" y="1083" on="0"/>
        <pt x="447" y="568" on="1"/>
        <pt x="839" y="568" on="1"/>
      </contour>
    </TTGlyph>
    <TTGlyph name="Atilde" xMin="-34" yMin="0" xMax="1424" yMax="1815">
      <contour>
        <pt x="347" y="1539" on="1"/>
        <pt x="323" y="1663" on="1"/>
        <pt x="368" y="1713" on="0"/>
        <pt x="436" y="1775" on="0"/>
        <pt x="514" y="1815" on="0"/>
        <pt x="558" y="1815" on="1"/>
        <pt x="606" y="1815" on="0"/>
        <pt x="685" y="1770" on="0"/>
        <pt x="734" y="1730" on="1"/>
        <pt x="762" y="1707" on="0"/>
        <pt x="797" y="1684" on="0"/>
        <pt x="812" y="1684" on="1"/>
        <pt x="841" y="1684" on="0"/>
        <pt x="956" y="1747" on="0"/>
        <pt x="1012" y="1793" on="1"/>
        <pt x="1032" y="1668" on="1"/>
        <pt x="966" y="1595" on="0"/>
        <pt x="860" y="1518" on="0"/>
        <pt x="797" y="1518" on="1"/>
        <pt x="749" y="1518" on="0"/>
        <pt x="671" y="1562" on="0"/>
        <pt x="624" y="1602" on="1"/>
        <pt x="593" y="1627" on="0"/>
        <pt x="560" y="1648" on="0"/>
        <pt x="545" y="1648" on="1"/>
        <pt x="513" y="1648" on="0"/>
        <pt x="394" y="1585" on="0"/>
      </contour>
      <contour>
        <pt x="1400" y="0" on="1"/>
        <pt x="812" y="0" on="1"/>
        <pt x="827" y="85" on="1"/>
        <pt x="988" y="143" on="1"/>
        <pt x="887" y="430" on="1"/>
        <pt x="651" y="416" on="0"/>
        <pt x="425" y="416" on="1"/>
        <pt x="395" y="416" on="1"/>
        <pt x="302" y="146" on="1"/>
        <pt x="496" y="82" on="1"/>
        <pt x="479" y="0" on="1"/>
        <pt x="-34" y="0" on="1"/>
        <pt x="-17" y="94" on="1"/>
        <pt x="142" y="150" on="1"/>
        <pt x="590" y="1384" on="1"/>
        <pt x="778" y="1419" on="1"/>
        <pt x="1269" y="143" on="1"/>
        <pt x="1424" y="97" on="1"/>
      </contour>
      <contour>
        <pt x="633" y="1155" on="1"/>
        <pt x="621" y="1083" on="0"/>
        <pt x="447" y="568" on="1"/>
        <pt x="839" y="568" on="1"/>
      </contour>
    </TTGlyph>
    <TTGlyph name="B" xMin="63" yMin="0" xMax="1224" yMax="1384">
      <contour>
        <pt x="254" y="149" on="1"/>
        <pt x="254" y="1236" on="1"/>
        <pt x="66" y="1303" on="1"/>
        <pt x="84" y="1384" on="1"/>
        <pt x="465" y="1384" on="1"/>
        <pt x="695" y="1384" on="0"/>
        <pt x="983" y="1344" on="0"/>
        <pt x="1160" y="1203" on="0"/>
        <pt x="1160" y="1060" on="1"/>
        <pt x="1160" y="970" on="0"/>
        <pt x="1069" y="838" on="0"/>
        <pt x="921" y="758" on="0"/>
        <pt x="834" y="743" on="1"/>
        <pt x="942" y="731" on="0"/>
        <pt x="1119" y="644" on="0"/>
        <pt x="1224" y="496" on="0"/>
        <pt x="1224" y="396" on="1"/>
        <pt x="1224" y="240" on="0"/>
        <pt x="1068" y="67" on="0"/>
        <pt x="774" y="0" on="0"/>
        <pt x="543" y="0" on="1"/>
        <pt x="63" y="0" on="1"/>
        <pt x="79" y="85" on="1"/>
      </contour>
      <contour>
        <pt x="514" y="1305" on="1"/>
        <pt x="514" y="81" on="1"/>
        <pt x="642" y="99" on="0"/>
        <pt x="827" y="158" on="0"/>
        <pt x="950" y="286" on="0"/>
        <pt x="950" y="393" on="1"/>
        <pt x="950" y="520" on="0"/>
        <pt x="768" y="667" on="0"/>
        <pt x="617" y="704" on="1"/>
        <pt x="626" y="763" on="1"/>
        <pt x="757" y="799" on="0"/>
        <pt x="897" y="948" on="0"/>
        <pt x="897" y="1051" on="1"/>
        <pt x="897" y="1176" on="0"/>
        <pt x="680" y="1289" on="0"/>
      </contour>
    </TTGlyph>
    <TTGlyph name="C" xMin="95" yMin="-35" xMax="1226" yMax="1419">
      <contour>
        <pt x="95" y="638" on="1"/>
        <pt x="95" y="842" on="0"/>
        <pt x="232" y="1180" on="0"/>
        <pt x="361" y="1281" on="1"/>
        <pt x="535" y="1419" on="0"/>
        <pt x="786" y="1419" on="1"/>
        <pt x="880" y="1419" on="0"/>
        <pt x="1006" y="1395" on="1"/>
        <pt x="1145" y="1408" on="1"/>
        <pt x="1178" y="1034" on="1"/>
        <pt x="1066" y="1012" on="1"/>
        <pt x="976" y="1218" on="1"/>
        <pt x="918" y="1248" on="0"/>
        <pt x="792" y="1275" on="0"/>
        <pt x="713" y="1275" on="1"/>
        <pt x="646" y="1275" on="0"/>
        <pt x="527" y="1240" on="0"/>
        <pt x="496" y="1212" on="1"/>
        <pt x="437" y="1155" on="0"/>
        <pt x="366" y="897" on="0"/>
        <pt x="366" y="728" on="1"/>
        <pt x="366" y="601" on="0"/>
        <pt x="430" y="385" on="0"/>
        <pt x="488" y="308" on="1"/>
        <pt x="549" y="228" on="0"/>
        <pt x="708" y="149" on="0"/>
        <pt x="791" y="149" on="1"/>
        <pt x="848" y="149" on="0"/>
        <pt x="1119" y="213" on="0"/>
        <pt x="1186" y="234" on="1"/>
        <pt x="1226" y="169" on="1"/>
        <pt x="1128" y="66" on="0"/>
        <pt x="886" y="-35" on="0"/>
        <pt x="728" y="-35" on="1"/>
        <pt x="540" y="-35" on="0"/>
        <pt x="254" y="124" on="0"/>
        <pt x="95" y="427" on="0"/>
      </contour>
    </TTGlyph>
    <TTGlyph name="Cacute" xMin="95" yMin="-35" xMax="1226" yMax="1795">
      <contour>
        <pt x="890" y="1795" on="1"/>
        <pt x="994" y="1795" on="1"/>
        <pt x="1024" y="1636" on="1"/>
        <pt x="555" y="1491" on="1"/>
        <pt x="533" y="1598" on="1"/>
      </contour>
      <contour>
        <pt x="95" y="638" on="1"/>
        <pt x="95" y="842" on="0"/>
        <pt x="232" y="1180" on="0"/>
        <pt x="361" y="1281" on="1"/>
        <pt x="535" y="1419" on="0"/>
        <pt x="786" y="1419" on="1"/>
        <pt x="880" y="1419" on="0"/>
        <pt x="1006" y="1395" on="1"/>
        <pt x="1145" y="1408" on="1"/>
        <pt x="1178" y="1034" on="1"/>
        <pt x="1066" y="1012" on="1"/>
        <pt x="976" y="1218" on="1"/>
        <pt x="918" y="1248" on="0"/>
        <pt x="792" y="1275" on="0"/>
        <pt x="713" y="1275" on="1"/>
        <pt x="646" y="1275" on="0"/>
        <pt x="527" y="1240" on="0"/>
        <pt x="496" y="1212" on="1"/>
        <pt x="437" y="1155" on="0"/>
        <pt x="366" y="897" on="0"/>
        <pt x="366" y="728" on="1"/>
        <pt x="366" y="601" on="0"/>
        <pt x="430" y="385" on="0"/>
        <pt x="488" y="308" on="1"/>
        <pt x="549" y="228" on="0"/>
        <pt x="708" y="149" on="0"/>
        <pt x="791" y="149" on="1"/>
        <pt x="848" y="149" on="0"/>
        <pt x="1119" y="213" on="0"/>
        <pt x="1186" y="234" on="1"/>
        <pt x="1226" y="169" on="1"/>
        <pt x="1128" y="66" on="0"/>
        <pt x="886" y="-35" on="0"/>
        <pt x="728" y="-35" on="1"/>
        <pt x="540" y="-35" on="0"/>
        <pt x="254" y="124" on="0"/>
        <pt x="95" y="427" on="0"/>
      </contour>
    </TTGlyph>
    <TTGlyph name="Ccaron" xMin="95" yMin="-35" xMax="1226" yMax="1807">
      <contour>
        <pt x="472" y="1807" on="1"/>
        <pt x="722" y="1679" on="1"/>
        <pt x="973" y="1807" on="1"/>
        <pt x="1047" y="1737" on="1"/>
        <pt x="780" y="1515" on="1"/>
        <pt x="665" y="1515" on="1"/>
        <pt x="398" y="1737" on="1"/>
      </contour>
      <contour>
        <pt x="95" y="638" on="1"/>
        <pt x="95" y="842" on="0"/>
        <pt x="232" y="1180" on="0"/>
        <pt x="361" y="1281" on="1"/>
        <pt x="535" y="1419" on="0"/>
        <pt x="786" y="1419" on="1"/>
        <pt x="880" y="1419" on="0"/>
        <pt x="1006" y="1395" on="1"/>
        <pt x="1145" y="1408" on="1"/>
        <pt x="1178" y="1034" on="1"/>
        <pt x="1066" y="1012" on="1"/>
        <pt x="976" y="1218" on="1"/>
        <pt x="918" y="1248" on="0"/>
        <pt x="792" y="1275" on="0"/>
        <pt x="713" y="1275" on="1"/>
        <pt x="646" y="1275" on="0"/>
        <pt x="527" y="1240" on="0"/>
        <pt x="496" y="1212" on="1"/>
        <pt x="437" y="1155" on="0"/>
        <pt x="366" y="897" on="0"/>
        <pt x="366" y="728" on="1"/>
        <pt x="366" y="601" on="0"/>
        <pt x="430" y="385" on="0"/>
        <pt x="488" y="308" on="1"/>
        <pt x="549" y="228" on="0"/>
        <pt x="708" y="149" on="0"/>
        <pt x="791" y="149" on="1"/>
        <pt x="848" y="149" on="0"/>
        <pt x="1119" y="213" on="0"/>
        <pt x="1186" y="234" on="1"/>
        <pt x="1226" y="169" on="1"/>
        <pt x="1128" y="66" on="0"/>
        <pt x="886" y="-35" on="0"/>
        <pt x="728" y="-35" on="1"/>
        <pt x="540" y="-35" on="0"/>
        <pt x="254" y="124" on="0"/>
        <pt x="95" y="427" on="0"/>
      </contour>
    </TTGlyph>
    <TTGlyph name="Ccedilla" xMin="95" yMin="-500" xMax="1226" yMax="1419">
      <contour>
        <pt x="764" y="-34" on="1"/>
        <pt x="736" y="-106" on="1"/>
        <pt x="821" y="-115" on="0"/>
        <pt x="943" y="-200" on="0"/>
        <pt x="943" y="-269" on="1"/>
        <pt x="943" y="-348" on="0"/>
        <pt x="822" y="-452" on="0"/>
        <pt x="638" y="-500" on="0"/>
        <pt x="540" y="-500" on="1"/>
        <pt x="525" y="-437" on="1"/>
        <pt x="672" y="-380" on="0"/>
        <pt x="770" y="-312" on="0"/>
        <pt x="770" y="-287" on="1"/>
        <pt x="770" y="-258" on="0"/>
        <pt x="654" y="-207" on="0"/>
        <pt x="552" y="-186" on="1"/>
        <pt x="580" y="-107" on="0"/>
        <pt x="649" y="-31" on="1"/>
        <pt x="482" y="-15" on="0"/>
        <pt x="232" y="152" on="0"/>
        <pt x="95" y="442" on="0"/>
        <pt x="95" y="638" on="1"/>
        <pt x="95" y="842" on="0"/>
        <pt x="232" y="1180" on="0"/>
        <pt x="361" y="1281" on="1"/>
        <pt x="535" y="1419" on="0"/>
        <pt x="786" y="1419" on="1"/>
        <pt x="880" y="1419" on="0"/>
        <pt x="1006" y="1395" on="1"/>
        <pt x="1145" y="1408" on="1"/>
        <pt x="1178" y="1034" on="1"/>
        <pt x="1066" y="1012" on="1"/>
        <pt x="976" y="1218" on="1"/>
        <pt x="918" y="1248" on="0"/>
        <pt x="792" y="1275" on="0"/>
        <pt x="713" y="1275" on="1"/>
        <pt x="646" y="1275" on="0"/>
        <pt x="527" y="1240" on="0"/>
        <pt x="496" y="1212" on="1"/>
        <pt x="437" y="1155" on="0"/>
        <pt x="366" y="897" on="0"/>
        <pt x="366" y="728" on="1"/>
        <pt x="366" y="601" on="0"/>
        <pt x="430" y="385" on="0"/>
        <pt x="488" y="308" on="1"/>
        <pt x="549" y="228" on="0"/>
        <pt x="708" y="149" on="0"/>
        <pt x="791" y="149" on="1"/>
        <pt x="848" y="149" on="0"/>
        <pt x="1119" y="213" on="0"/>
        <pt x="1186" y="234" on="1"/>
        <pt x="1226" y="169" on="1"/>
        <pt x="1133" y="72" on="0"/>
        <pt x="908" y="-29" on="0"/>
      </contour>
    </TTGlyph>
    <TTGlyph name="D" xMin="63" yMin="0" xMax="1395" yMax="1384">
      <contour>
        <pt x="255" y="1236" on="1"/>
        <pt x="68" y="1302" on="1"/>
        <pt x="85" y="1384" on="1"/>
        <pt x="543" y="1384" on="1"/>
        <pt x="725" y="1384" on="0"/>
        <pt x="1014" y="1339" on="0"/>
        <pt x="1120" y="1272" on="1"/>
        <pt x="1264" y="1180" on="0"/>
        <pt x="1395" y="888" on="0"/>
        <pt x="1395" y="702" on="1"/>
        <pt x="1395" y="548" on="0"/>
        <pt x="1313" y="290" on="0"/>
        <pt x="1227" y="199" on="1"/>
        <pt x="1147" y="114" on="0"/>
        <pt x="921" y="27" on="0"/>
        <pt x="668" y="0" on="0"/>
        <pt x="504" y="0" on="1"/>
        <pt x="63" y="0" on="1"/>
        <pt x="80" y="85" on="1"/>
        <pt x="255" y="149" on="1"/>
      </contour>
      <contour>
        <pt x="1121" y="697" on="1"/>
        <pt x="1121" y="1017" on="0"/>
        <pt x="898" y="1171" on="1"/>
        <pt x="835" y="1215" on="0"/>
        <pt x="629" y="1278" on="0"/>
        <pt x="514" y="1293" on="1"/>
        <pt x="514" y="95" on="1"/>
        <pt x="726" y="123" on="0"/>
        <pt x="988" y="249" on="0"/>
        <pt x="1121" y="494" on="0"/>
      </contour>
    </TTGlyph>
    <TTGlyph name="Dcaron" xMin="63" yMin="0" xMax="1395" yMax="1807">
      <contour>
        <pt x="422" y="1807" on="1"/>
        <pt x="672" y="1679" on="1"/>
        <pt x="923" y="1807" on="1"/>
        <pt x="997" y="1737" on="1"/>
        <pt x="730" y="1515" on="1"/>
        <pt x="615" y="1515" on="1"/>
        <pt x="348" y="1737" on="1"/>
      </contour>
      <contour>
        <pt x="255" y="1236" on="1"/>
        <pt x="68" y="1302" on="1"/>
        <pt x="85" y="1384" on="1"/>
        <pt x="543" y="1384" on="1"/>
        <pt x="725" y="1384" on="0"/>
        <pt x="1014" y="1339" on="0"/>
        <pt x="1120" y="1272" on="1"/>
        <pt x="1264" y="1180" on="0"/>
        <pt x="1395" y="888" on="0"/>
        <pt x="1395" y="702" on="1"/>
        <pt x="1395" y="548" on="0"/>
        <pt x="1313" y="290" on="0"/>
        <pt x="1227" y="199" on="1"/>
        <pt x="1147" y="114" on="0"/>
        <pt x="921" y="27" on="0"/>
        <pt x="668" y="0" on="0"/>
        <pt x="504" y="0" on="1"/>
        <pt x="63" y="0" on="1"/>
        <pt x="80" y="85" on="1"/>
        <pt x="255" y="149" on="1"/>
      </contour>
      <contour>
        <pt x="1121" y="697" on="1"/>
        <pt x="1121" y="1017" on="0"/>
        <pt x="898" y="1171" on="1"/>
        <pt x="835" y="1215" on="0"/>
        <pt x="629" y="1278" on="0"/>
        <pt x="514" y="1293" on="1"/>
        <pt x="514" y="95" on="1"/>
        <pt x="726" y="123" on="0"/>
        <pt x="988" y="249" on="0"/>
        <pt x="1121" y="494" on="0"/>
      </contour>
    </TTGlyph>
    <TTGlyph name="Dcroat" xMin="64" yMin="0" xMax="1397" yMax="1384">
      <contour>
        <pt x="1397" y="702" on="1"/>
        <pt x="1397" y="548" on="0"/>
        <pt x="1314" y="290" on="0"/>
        <pt x="1228" y="199" on="1"/>
        <pt x="1148" y="114" on="0"/>
        <pt x="922" y="27" on="0"/>
        <pt x="669" y="0" on="0"/>
        <pt x="505" y="0" on="1"/>
        <pt x="64" y="0" on="1"/>
        <pt x="81" y="85" on="1"/>
        <pt x="257" y="149" on="1"/>
        <pt x="257" y="611" on="1"/>
        <pt x="66" y="605" on="1"/>
        <pt x="100" y="770" on="1"/>
        <pt x="257" y="770" on="1"/>
        <pt x="257" y="1236" on="1"/>
        <pt x="70" y="1302" on="1"/>
        <pt x="87" y="1384" on="1"/>
        <pt x="545" y="1384" on="1"/>
        <pt x="726" y="1384" on="0"/>
        <pt x="1016" y="1339" on="0"/>
        <pt x="1121" y="1272" on="1"/>
        <pt x="1266" y="1180" on="0"/>
        <pt x="1397" y="888" on="0"/>
      </contour>
      <contour>
        <pt x="1123" y="697" on="1"/>
        <pt x="1123" y="1016" on="0"/>
        <pt x="900" y="1171" on="1"/>
        <pt x="836" y="1215" on="0"/>
        <pt x="631" y="1278" on="0"/>
        <pt x="516" y="1293" on="1"/>
        <pt x="516" y="770" on="1"/>
        <pt x="809" y="770" on="1"/>
        <pt x="779" y="629" on="1"/>
        <pt x="516" y="620" on="1"/>
        <pt x="516" y="95" on="1"/>
        <pt x="728" y="123" on="0"/>
        <pt x="990" y="249" on="0"/>
        <pt x="1123" y="494" on="0"/>
      </contour>
    </TTGlyph>
    <TTGlyph name="Delta" xMin="75" yMin="0" xMax="1258" yMax="1419">
      <contour>
        <pt x="764" y="1419" on="1"/>
        <pt x="1258" y="90" on="1"/>
        <pt x="1236" y="0" on="1"/>
        <pt x="97" y="0" on="1"/>
        <pt x="75" y="92" on="1"/>
        <pt x="642" y="1419" on="1"/>
      </contour>
      <contour>
        <pt x="652" y="1036" on="1"/>
        <pt x="285" y="171" on="1"/>
        <pt x="948" y="208" on="1"/>
      </contour>
    </TTGlyph>
    <TTGlyph name="E" xMin="58" yMin="0" xMax="1255" yMax="1397">
      <contour>
        <pt x="1156" y="352" on="1"/>
        <pt x="1255" y="333" on="1"/>
        <pt x="1177" y="0" on="1"/>
        <pt x="58" y="0" on="1"/>
        <pt x="75" y="87" on="1"/>
        <pt x="255" y="151" on="1"/>
        <pt x="255" y="1238" on="1"/>
        <pt x="68" y="1304" on="1"/>
        <pt x="88" y="1384" on="1"/>
        <pt x="1009" y="1384" on="1"/>
        <pt x="1143" y="1397" on="1"/>
        <pt x="1178" y="1046" on="1"/>
        <pt x="1070" y="1022" on="1"/>
        <pt x="972" y="1239" on="1"/>
        <pt x="515" y="1296" on="1"/>
        <pt x="515" y="741" on="1"/>
        <pt x="647" y="762" on="0"/>
        <pt x="788" y="771" on="1"/>
        <pt x="852" y="941" on="1"/>
        <pt x="939" y="920" on="1"/>
        <pt x="922" y="457" on="1"/>
        <pt x="833" y="474" on="1"/>
        <pt x="787" y="633" on="1"/>
        <pt x="625" y="636" on="0"/>
        <pt x="515" y="659" on="1"/>
        <pt x="515" y="99" on="1"/>
        <pt x="1033" y="161" on="1"/>
      </contour>
    </TTGlyph>
    <TTGlyph name="Eacute" xMin="58" yMin="0" xMax="1255" yMax="1795">
      <contour>
        <pt x="814" y="1795" on="1"/>
        <pt x="918" y="1795" on="1"/>
        <pt x="948" y="1636" on="1"/>
        <pt x="479" y="1491" on="1"/>
        <pt x="457" y="1598" on="1"/>
      </contour>
      <contour>
        <pt x="1156" y="352" on="1"/>
        <pt x="1255" y="333" on="1"/>
        <pt x="1177" y="0" on="1"/>
        <pt x="58" y="0" on="1"/>
        <pt x="75" y="87" on="1"/>
        <pt x="255" y="151" on="1"/>
        <pt x="255" y="1238" on="1"/>
        <pt x="68" y="1304" on="1"/>
        <pt x="88" y="1384" on="1"/>
        <pt x="1009" y="1384" on="1"/>
        <pt x="1143" y="1397" on="1"/>
        <pt x="1178" y="1046" on="1"/>
        <pt x="1070" y="1022" on="1"/>
        <pt x="972" y="1239" on="1"/>
        <pt x="515" y="1296" on="1"/>
        <pt x="515" y="741" on="1"/>
        <pt x="647" y="762" on="0"/>
        <pt x="788" y="771" on="1"/>
        <pt x="852" y="941" on="1"/>
        <pt x="939" y="920" on="1"/>
        <pt x="922" y="457" on="1"/>
        <pt x="833" y="474" on="1"/>
        <pt x="787" y="633" on="1"/>
        <pt x="625" y="636" on="0"/>
        <pt x="515" y="659" on="1"/>
        <pt x="515" y="99" on="1"/>
        <pt x="1033" y="161" on="1"/>
      </contour>
    </TTGlyph>
    <TTGlyph name="Ecaron" xMin="58" yMin="0" xMax="1255" yMax="1807">
      <contour>
        <pt x="396" y="1807" on="1"/>
        <pt x="646" y="1679" on="1"/>
        <pt x="897" y="1807" on="1"/>
        <pt x="971" y="1737" on="1"/>
        <pt x="704" y="1515" on="1"/>
        <pt x="589" y="1515" on="1"/>
        <pt x="322" y="1737" on="1"/>
      </contour>
      <contour>
        <pt x="1156" y="352" on="1"/>
        <pt x="1255" y="333" on="1"/>
        <pt x="1177" y="0" on="1"/>
        <pt x="58" y="0" on="1"/>
        <pt x="75" y="87" on="1"/>
        <pt x="255" y="151" on="1"/>
        <pt x="255" y="1238" on="1"/>
        <pt x="68" y="1304" on="1"/>
        <pt x="88" y="1384" on="1"/>
        <pt x="1009" y="1384" on="1"/>
        <pt x="1143" y="1397" on="1"/>
        <pt x="1178" y="1046" on="1"/>
        <pt x="1070" y="1022" on="1"/>
        <pt x="972" y="1239" on="1"/>
        <pt x="515" y="1296" on="1"/>
        <pt x="515" y="741" on="1"/>
        <pt x="647" y="762" on="0"/>
        <pt x="788" y="771" on="1"/>
        <pt x="852" y="941" on="1"/>
        <pt x="939" y="920" on="1"/>
        <pt x="922" y="457" on="1"/>
        <pt x="833" y="474" on="1"/>
        <pt x="787" y="633" on="1"/>
        <pt x="625" y="636" on="0"/>
        <pt x="515" y="659" on="1"/>
        <pt x="515" y="99" on="1"/>
        <pt x="1033" y="161" on="1"/>
      </contour>
    </TTGlyph>
    <TTGlyph name="Ecircumflex" xMin="58" yMin="0" xMax="1255" yMax="1793">
      <contour>
        <pt x="592" y="1793" on="1"/>
        <pt x="701" y="1793" on="1"/>
        <pt x="973" y="1564" on="1"/>
        <pt x="897" y="1493" on="1"/>
        <pt x="647" y="1620" on="1"/>
        <pt x="397" y="1493" on="1"/>
        <pt x="321" y="1564" on="1"/>
      </contour>
      <contour>
        <pt x="1156" y="352" on="1"/>
        <pt x="1255" y="333" on="1"/>
        <pt x="1177" y="0" on="1"/>
        <pt x="58" y="0" on="1"/>
        <pt x="75" y="87" on="1"/>
        <pt x="255" y="151" on="1"/>
        <pt x="255" y="1238" on="1"/>
        <pt x="68" y="1304" on="1"/>
        <pt x="88" y="1384" on="1"/>
        <pt x="1009" y="1384" on="1"/>
        <pt x="1143" y="1397" on="1"/>
        <pt x="1178" y="1046" on="1"/>
        <pt x="1070" y="1022" on="1"/>
        <pt x="972" y="1239" on="1"/>
        <pt x="515" y="1296" on="1"/>
        <pt x="515" y="741" on="1"/>
        <pt x="647" y="762" on="0"/>
        <pt x="788" y="771" on="1"/>
        <pt x="852" y="941" on="1"/>
        <pt x="939" y="920" on="1"/>
        <pt x="922" y="457" on="1"/>
        <pt x="833" y="474" on="1"/>
        <pt x="787" y="633" on="1"/>
        <pt x="625" y="636" on="0"/>
        <pt x="515" y="659" on="1"/>
        <pt x="515" y="99" on="1"/>
        <pt x="1033" y="161" on="1"/>
      </contour>
    </TTGlyph>
    <TTGlyph name="Edieresis" xMin="58" yMin="0" xMax="1255" yMax="1754">
      <contour>
        <pt x="740" y="1598" on="1"/>
        <pt x="740" y="1620" on="0"/>
        <pt x="766" y="1690" on="0"/>
        <pt x="804" y="1747" on="0"/>
        <pt x="821" y="1752" on="1"/>
        <pt x="827" y="1754" on="0"/>
        <pt x="832" y="1754" on="1"/>
        <pt x="853" y="1754" on="0"/>
        <pt x="922" y="1727" on="0"/>
        <pt x="979" y="1689" on="0"/>
        <pt x="985" y="1673" on="1"/>
        <pt x="986" y="1670" on="0"/>
        <pt x="986" y="1662" on="1"/>
        <pt x="986" y="1641" on="0"/>
        <pt x="960" y="1571" on="0"/>
        <pt x="922" y="1513" on="0"/>
        <pt x="905" y="1507" on="1"/>
        <pt x="902" y="1506" on="0"/>
        <pt x="895" y="1506" on="1"/>
        <pt x="874" y="1506" on="0"/>
        <pt x="805" y="1533" on="0"/>
        <pt x="747" y="1571" on="0"/>
        <pt x="741" y="1587" on="1"/>
        <pt x="740" y="1590" on="0"/>
      </contour>
      <contour>
        <pt x="305" y="1599" on="1"/>
        <pt x="305" y="1621" on="0"/>
        <pt x="332" y="1690" on="0"/>
        <pt x="370" y="1746" on="0"/>
        <pt x="387" y="1752" on="1"/>
        <pt x="390" y="1753" on="0"/>
        <pt x="397" y="1753" on="1"/>
        <pt x="417" y="1753" on="0"/>
        <pt x="486" y="1726" on="0"/>
        <pt x="544" y="1689" on="0"/>
        <pt x="550" y="1673" on="1"/>
        <pt x="551" y="1670" on="0"/>
        <pt x="551" y="1662" on="1"/>
        <pt x="551" y="1640" on="0"/>
        <pt x="525" y="1571" on="0"/>
        <pt x="487" y="1513" on="0"/>
        <pt x="470" y="1507" on="1"/>
        <pt x="467" y="1506" on="0"/>
        <pt x="460" y="1506" on="1"/>
        <pt x="439" y="1506" on="0"/>
        <pt x="370" y="1533" on="0"/>
        <pt x="313" y="1571" on="0"/>
        <pt x="307" y="1587" on="1"/>
        <pt x="305" y="1593" on="0"/>
      </contour>
      <contour>
        <pt x="1156" y="352" on="1"/>
        <pt x="1255" y="333" on="1"/>
        <pt x="1177" y="0" on="1"/>
        <pt x="58" y="0" on="1"/>
        <pt x="75" y="87" on="1"/>
        <pt x="255" y="151" on="1"/>
        <pt x="255" y="1238" on="1"/>
        <pt x="68" y="1304" on="1"/>
        <pt x="88" y="1384" on="1"/>
        <pt x="1009" y="1384" on="1"/>
        <pt x="1143" y="1397" on="1"/>
        <pt x="1178" y="1046" on="1"/>
        <pt x="1070" y="1022" on="1"/>
        <pt x="972" y="1239" on="1"/>
        <pt x="515" y="1296" on="1"/>
        <pt x="515" y="741" on="1"/>
        <pt x="647" y="762" on="0"/>
        <pt x="788" y="771" on="1"/>
        <pt x="852" y="941" on="1"/>
        <pt x="939" y="920" on="1"/>
        <pt x="922" y="457" on="1"/>
        <pt x="833" y="474" on="1"/>
        <pt x="787" y="633" on="1"/>
        <pt x="625" y="636" on="0"/>
        <pt x="515" y="659" on="1"/>
        <pt x="515" y="99" on="1"/>
        <pt x="1033" y="161" on="1"/>
      </contour>
    </TTGlyph>
    <TTGlyph name="Edotaccent" xMin="58" yMin="0" xMax="1255" yMax="1743">
      <contour>
        <pt x="532" y="1663" on="1"/>
        <pt x="532" y="1679" on="0"/>
        <pt x="536" y="1687" on="1"/>
        <pt x="546" y="1705" on="0"/>
        <pt x="644" y="1743" on="0"/>
        <pt x="679" y="1743" on="1"/>
        <pt x="694" y="1743" on="0"/>
        <pt x="701" y="1739" on="1"/>
        <pt x="719" y="1730" on="0"/>
        <pt x="758" y="1631" on="0"/>
        <pt x="758" y="1596" on="1"/>
        <pt x="758" y="1581" on="0"/>
        <pt x="754" y="1573" on="1"/>
        <pt x="744" y="1555" on="0"/>
        <pt x="645" y="1516" on="0"/>
        <pt x="610" y="1516" on="1"/>
        <pt x="596" y="1516" on="0"/>
        <pt x="588" y="1520" on="1"/>
        <pt x="570" y="1529" on="0"/>
        <pt x="532" y="1627" on="0"/>
      </contour>
      <contour>
        <pt x="1156" y="352" on="1"/>
        <pt x="1255" y="333" on="1"/>
        <pt x="1177" y="0" on="1"/>
        <pt x="58" y="0" on="1"/>
        <pt x="75" y="87" on="1"/>
        <pt x="255" y="151" on="1"/>
        <pt x="255" y="1238" on="1"/>
        <pt x="68" y="1304" on="1"/>
        <pt x="88" y="1384" on="1"/>
        <pt x="1009" y="1384" on="1"/>
        <pt x="1143" y="1397" on="1"/>
        <pt x="1178" y="1046" on="1"/>
        <pt x="1070" y="1022" on="1"/>
        <pt x="972" y="1239" on="1"/>
        <pt x="515" y="1296" on="1"/>
        <pt x="515" y="741" on="1"/>
        <pt x="647" y="762" on="0"/>
        <pt x="788" y="771" on="1"/>
        <pt x="852" y="941" on="1"/>
        <pt x="939" y="920" on="1"/>
        <pt x="922" y="457" on="1"/>
        <pt x="833" y="474" on="1"/>
        <pt x="787" y="633" on="1"/>
        <pt x="625" y="636" on="0"/>
        <pt x="515" y="659" on="1"/>
        <pt x="515" y="99" on="1"/>
        <pt x="1033" y="161" on="1"/>
      </contour>
    </TTGlyph>
    <TTGlyph name="Egrave" xMin="58" yMin="0" xMax="1255" yMax="1795">
      <contour>
        <pt x="431" y="1795" on="1"/>
        <pt x="535" y="1795" on="1"/>
        <pt x="891" y="1599" on="1"/>
        <pt x="870" y="1491" on="1"/>
        <pt x="401" y="1636" on="1"/>
      </contour>
      <contour>
        <pt x="1156" y="352" on="1"/>
        <pt x="1255" y="333" on="1"/>
        <pt x="1177" y="0" on="1"/>
        <pt x="58" y="0" on="1"/>
        <pt x="75" y="87" on="1"/>
        <pt x="255" y="151" on="1"/>
        <pt x="255" y="1238" on="1"/>
        <pt x="68" y="1304" on="1"/>
        <pt x="88" y="1384" on="1"/>
        <pt x="1009" y="1384" on="1"/>
        <pt x="1143" y="1397" on="1"/>
        <pt x="1178" y="1046" on="1"/>
        <pt x="1070" y="1022" on="1"/>
        <pt x="972" y="1239" on="1"/>
        <pt x="515" y="1296" on="1"/>
        <pt x="515" y="741" on="1"/>
        <pt x="647" y="762" on="0"/>
        <pt x="788" y="771" on="1"/>
        <pt x="852" y="941" on="1"/>
        <pt x="939" y="920" on="1"/>
        <pt x="922" y="457" on="1"/>
        <pt x="833" y="474" on="1"/>
        <pt x="787" y="633" on="1"/>
        <pt x="625" y="636" on="0"/>
        <pt x="515" y="659" on="1"/>
        <pt x="515" y="99" on="1"/>
        <pt x="1033" y="161" on="1"/>
      </contour>
    </TTGlyph>
    <TTGlyph name="Emacron" xMin="58" yMin="0" xMax="1255" yMax="1690">
      <contour>
        <pt x="941" y="1690" on="1"/>
        <pt x="914" y="1547" on="1"/>
        <pt x="803" y="1541" on="0"/>
        <pt x="471" y="1535" on="0"/>
        <pt x="348" y="1535" on="1"/>
        <pt x="379" y="1690" on="1"/>
      </contour>
      <contour>
        <pt x="1156" y="352" on="1"/>
        <pt x="1255" y="333" on="1"/>
        <pt x="1177" y="0" on="1"/>
        <pt x="58" y="0" on="1"/>
        <pt x="75" y="87" on="1"/>
        <pt x="255" y="151" on="1"/>
        <pt x="255" y="1238" on="1"/>
        <pt x="68" y="1304" on="1"/>
        <pt x="88" y="1384" on="1"/>
        <pt x="1009" y="1384" on="1"/>
        <pt x="1143" y="1397" on="1"/>
        <pt x="1178" y="1046" on="1"/>
        <pt x="1070" y="1022" on="1"/>
        <pt x="972" y="1239" on="1"/>
        <pt x="515" y="1296" on="1"/>
        <pt x="515" y="741" on="1"/>
        <pt x="647" y="762" on="0"/>
        <pt x="788" y="771" on="1"/>
        <pt x="852" y="941" on="1"/>
        <pt x="939" y="920" on="1"/>
        <pt x="922" y="457" on="1"/>
        <pt x="833" y="474" on="1"/>
        <pt x="787" y="633" on="1"/>
        <pt x="625" y="636" on="0"/>
        <pt x="515" y="659" on="1"/>
        <pt x="515" y="99" on="1"/>
        <pt x="1033" y="161" on="1"/>
      </contour>
    </TTGlyph>
    <TTGlyph name="Eogonek" xMin="58" yMin="-487" xMax="1255" yMax="1397">
      <contour>
        <pt x="1181" y="-312" on="1"/>
        <pt x="1204" y="-354" on="1"/>
        <pt x="1071" y="-487" on="0"/>
        <pt x="937" y="-487" on="1"/>
        <pt x="878" y="-487" on="0"/>
        <pt x="775" y="-440" on="0"/>
        <pt x="712" y="-348" on="0"/>
        <pt x="712" y="-283" on="1"/>
        <pt x="712" y="-184" on="0"/>
        <pt x="801" y="-102" on="1"/>
        <pt x="852" y="-55" on="0"/>
        <pt x="947" y="0" on="1"/>
        <pt x="58" y="0" on="1"/>
        <pt x="75" y="87" on="1"/>
        <pt x="255" y="151" on="1"/>
        <pt x="255" y="1238" on="1"/>
        <pt x="68" y="1304" on="1"/>
        <pt x="88" y="1384" on="1"/>
        <pt x="1009" y="1384" on="1"/>
        <pt x="1143" y="1397" on="1"/>
        <pt x="1178" y="1046" on="1"/>
        <pt x="1070" y="1022" on="1"/>
        <pt x="972" y="1239" on="1"/>
        <pt x="515" y="1296" on="1"/>
        <pt x="515" y="741" on="1"/>
        <pt x="647" y="762" on="0"/>
        <pt x="788" y="771" on="1"/>
        <pt x="852" y="941" on="1"/>
        <pt x="939" y="920" on="1"/>
        <pt x="922" y="457" on="1"/>
        <pt x="833" y="474" on="1"/>
        <pt x="787" y="633" on="1"/>
        <pt x="625" y="636" on="0"/>
        <pt x="515" y="659" on="1"/>
        <pt x="515" y="99" on="1"/>
        <pt x="1033" y="161" on="1"/>
        <pt x="1156" y="352" on="1"/>
        <pt x="1255" y="333" on="1"/>
        <pt x="1177" y="0" on="1"/>
        <pt x="1089" y="0" on="1"/>
        <pt x="992" y="-82" on="0"/>
        <pt x="906" y="-189" on="0"/>
        <pt x="906" y="-232" on="1"/>
        <pt x="906" y="-268" on="0"/>
        <pt x="948" y="-334" on="0"/>
        <pt x="981" y="-348" on="1"/>
        <pt x="999" y="-356" on="0"/>
        <pt x="1017" y="-356" on="1"/>
        <pt x="1070" y="-356" on="0"/>
      </contour>
    </TTGlyph>
    <TTGlyph name="Eth" xMin="63" yMin="0" xMax="1396" yMax="1384">
      <contour>
        <pt x="1396" y="702" on="1"/>
        <pt x="1396" y="548" on="0"/>
        <pt x="1313" y="290" on="0"/>
        <pt x="1227" y="199" on="1"/>
        <pt x="1147" y="114" on="0"/>
        <pt x="921" y="27" on="0"/>
        <pt x="668" y="0" on="0"/>
        <pt x="504" y="0" on="1"/>
        <pt x="63" y="0" on="1"/>
        <pt x="80" y="85" on="1"/>
        <pt x="256" y="149" on="1"/>
        <pt x="256" y="611" on="1"/>
        <pt x="65" y="605" on="1"/>
        <pt x="99" y="770" on="1"/>
        <pt x="256" y="770" on="1"/>
        <pt x="256" y="1236" on="1"/>
        <pt x="69" y="1302" on="1"/>
        <pt x="86" y="1384" on="1"/>
        <pt x="544" y="1384" on="1"/>
        <pt x="725" y="1384" on="0"/>
        <pt x="1015" y="1339" on="0"/>
        <pt x="1120" y="1272" on="1"/>
        <pt x="1265" y="1180" on="0"/>
        <pt x="1396" y="888" on="0"/>
      </contour>
      <contour>
        <pt x="1122" y="697" on="1"/>
        <pt x="1122" y="1016" on="0"/>
        <pt x="899" y="1171" on="1"/>
        <pt x="835" y="1215" on="0"/>
        <pt x="630" y="1278" on="0"/>
        <pt x="515" y="1293" on="1"/>
        <pt x="515" y="770" on="1"/>
        <pt x="808" y="770" on="1"/>
        <pt x="778" y="629" on="1"/>
        <pt x="515" y="620" on="1"/>
        <pt x="515" y="95" on="1"/>
        <pt x="727" y="123" on="0"/>
        <pt x="989" y="249" on="0"/>
        <pt x="1122" y="494" on="0"/>
      </contour>
    </TTGlyph>
    <TTGlyph name="Euro" xMin="57" yMin="-26" xMax="1126" yMax="1339">
      <contour>
        <pt x="1094" y="75" on="1"/>
        <pt x="910" y="-26" on="0"/>
        <pt x="743" y="-26" on="1"/>
        <pt x="614" y="-26" on="0"/>
        <pt x="397" y="88" on="0"/>
        <pt x="251" y="301" on="0"/>
        <pt x="227" y="444" on="1"/>
        <pt x="135" y="448" on="0"/>
        <pt x="58" y="461" on="1"/>
        <pt x="76" y="562" on="1"/>
        <pt x="216" y="562" on="1"/>
        <pt x="216" y="576" on="1"/>
        <pt x="216" y="655" on="0"/>
        <pt x="222" y="725" on="1"/>
        <pt x="120" y="732" on="0"/>
        <pt x="57" y="741" on="1"/>
        <pt x="76" y="843" on="1"/>
        <pt x="236" y="843" on="1"/>
        <pt x="259" y="977" on="0"/>
        <pt x="364" y="1169" on="0"/>
        <pt x="448" y="1231" on="1"/>
        <pt x="516" y="1280" on="0"/>
        <pt x="697" y="1339" on="0"/>
        <pt x="789" y="1339" on="1"/>
        <pt x="953" y="1339" on="0"/>
        <pt x="1091" y="1270" on="1"/>
        <pt x="1121" y="992" on="1"/>
        <pt x="1044" y="974" on="1"/>
        <pt x="954" y="1137" on="1"/>
        <pt x="923" y="1170" on="0"/>
        <pt x="817" y="1202" on="0"/>
        <pt x="756" y="1202" on="1"/>
        <pt x="707" y="1202" on="0"/>
        <pt x="616" y="1183" on="0"/>
        <pt x="586" y="1165" on="1"/>
        <pt x="553" y="1144" on="0"/>
        <pt x="488" y="976" on="0"/>
        <pt x="473" y="843" on="1"/>
        <pt x="905" y="843" on="1"/>
        <pt x="889" y="753" on="1"/>
        <pt x="819" y="744" on="0"/>
        <pt x="582" y="725" on="0"/>
        <pt x="463" y="722" on="1"/>
        <pt x="462" y="646" on="1"/>
        <pt x="462" y="601" on="0"/>
        <pt x="466" y="562" on="1"/>
        <pt x="905" y="562" on="1"/>
        <pt x="889" y="472" on="1"/>
        <pt x="824" y="464" on="0"/>
        <pt x="598" y="445" on="0"/>
        <pt x="483" y="442" on="1"/>
        <pt x="501" y="359" on="0"/>
        <pt x="528" y="306" on="1"/>
        <pt x="548" y="266" on="0"/>
        <pt x="624" y="170" on="0"/>
        <pt x="715" y="100" on="0"/>
        <pt x="756" y="100" on="1"/>
        <pt x="803" y="100" on="0"/>
        <pt x="912" y="129" on="0"/>
        <pt x="944" y="151" on="1"/>
        <pt x="1033" y="322" on="1"/>
        <pt x="1126" y="302" on="1"/>
      </contour>
    </TTGlyph>
    <TTGlyph name="F" xMin="57" yMin="0" xMax="1199" yMax="1397">
      <contour>
        <pt x="82" y="1384" on="1"/>
        <pt x="1038" y="1384" on="1"/>
        <pt x="1165" y="1397" on="1"/>
        <pt x="1199" y="1043" on="1"/>
        <pt x="1091" y="1023" on="1"/>
        <pt x="994" y="1239" on="1"/>
        <pt x="512" y="1293" on="1"/>
        <pt x="512" y="741" on="1"/>
        <pt x="630" y="760" on="0"/>
        <pt x="810" y="771" on="1"/>
        <pt x="875" y="941" on="1"/>
        <pt x="961" y="919" on="1"/>
        <pt x="942" y="455" on="1"/>
        <pt x="854" y="471" on="1"/>
        <pt x="808" y="631" on="1"/>
        <pt x="637" y="634" on="0"/>
        <pt x="512" y="653" on="1"/>
        <pt x="512" y="157" on="1"/>
        <pt x="788" y="102" on="1"/>
        <pt x="752" y="0" on="1"/>
        <pt x="57" y="0" on="1"/>
        <pt x="74" y="86" on="1"/>
        <pt x="252" y="151" on="1"/>
        <pt x="252" y="1238" on="1"/>
        <pt x="65" y="1302" on="1"/>
      </contour>
    </TTGlyph>
    <TTGlyph name="G" xMin="81" yMin="-35" xMax="1422" yMax="1419">
      <contour>
        <pt x="774" y="665" on="1"/>
        <pt x="1422" y="665" on="1"/>
        <pt x="1407" y="575" on="1"/>
        <pt x="1286" y="504" on="1"/>
        <pt x="1285" y="210" on="1"/>
        <pt x="1237" y="139" on="0"/>
        <pt x="1077" y="28" on="0"/>
        <pt x="875" y="-35" on="0"/>
        <pt x="768" y="-35" on="1"/>
        <pt x="602" y="-35" on="0"/>
        <pt x="373" y="40" on="0"/>
        <pt x="268" y="136" on="1"/>
        <pt x="178" y="221" on="0"/>
        <pt x="81" y="489" on="0"/>
        <pt x="81" y="646" on="1"/>
        <pt x="81" y="832" on="0"/>
        <pt x="211" y="1166" on="0"/>
        <pt x="353" y="1281" on="1"/>
        <pt x="435" y="1348" on="0"/>
        <pt x="662" y="1419" on="0"/>
        <pt x="787" y="1419" on="1"/>
        <pt x="855" y="1419" on="0"/>
        <pt x="1000" y="1404" on="0"/>
        <pt x="1061" y="1390" on="1"/>
        <pt x="1204" y="1404" on="1"/>
        <pt x="1245" y="1034" on="1"/>
        <pt x="1132" y="1013" on="1"/>
        <pt x="1048" y="1203" on="1"/>
        <pt x="998" y="1238" on="0"/>
        <pt x="828" y="1280" on="0"/>
        <pt x="750" y="1280" on="1"/>
        <pt x="669" y="1280" on="0"/>
        <pt x="526" y="1247" on="0"/>
        <pt x="494" y="1218" on="1"/>
        <pt x="428" y="1157" on="0"/>
        <pt x="354" y="898" on="0"/>
        <pt x="354" y="699" on="1"/>
        <pt x="354" y="558" on="0"/>
        <pt x="430" y="313" on="0"/>
        <pt x="505" y="241" on="1"/>
        <pt x="574" y="172" on="0"/>
        <pt x="727" y="120" on="0"/>
        <pt x="814" y="120" on="1"/>
        <pt x="869" y="120" on="0"/>
        <pt x="997" y="146" on="0"/>
        <pt x="1031" y="170" on="1"/>
        <pt x="1031" y="512" on="1"/>
        <pt x="758" y="582" on="1"/>
      </contour>
    </TTGlyph>
    <TTGlyph name="Gbreve" xMin="81" yMin="-35" xMax="1422" yMax="1782">
      <contour>
        <pt x="483" y="1711" on="1"/>
        <pt x="483" y="1769" on="0"/>
        <pt x="506" y="1782" on="1"/>
        <pt x="620" y="1781" on="1"/>
        <pt x="631" y="1698" on="0"/>
        <pt x="713" y="1616" on="0"/>
        <pt x="769" y="1616" on="1"/>
        <pt x="823" y="1616" on="0"/>
        <pt x="903" y="1699" on="0"/>
        <pt x="914" y="1782" on="1"/>
        <pt x="1030" y="1782" on="1"/>
        <pt x="1051" y="1764" on="0"/>
        <pt x="1051" y="1715" on="1"/>
        <pt x="1051" y="1653" on="0"/>
        <pt x="982" y="1547" on="0"/>
        <pt x="853" y="1483" on="0"/>
        <pt x="769" y="1483" on="1"/>
        <pt x="683" y="1483" on="0"/>
        <pt x="553" y="1546" on="0"/>
        <pt x="483" y="1651" on="0"/>
      </contour>
      <contour>
        <pt x="774" y="665" on="1"/>
        <pt x="1422" y="665" on="1"/>
        <pt x="1407" y="575" on="1"/>
        <pt x="1286" y="504" on="1"/>
        <pt x="1285" y="210" on="1"/>
        <pt x="1237" y="139" on="0"/>
        <pt x="1077" y="28" on="0"/>
        <pt x="875" y="-35" on="0"/>
        <pt x="768" y="-35" on="1"/>
        <pt x="602" y="-35" on="0"/>
        <pt x="373" y="40" on="0"/>
        <pt x="268" y="136" on="1"/>
        <pt x="178" y="221" on="0"/>
        <pt x="81" y="489" on="0"/>
        <pt x="81" y="646" on="1"/>
        <pt x="81" y="832" on="0"/>
        <pt x="211" y="1166" on="0"/>
        <pt x="353" y="1281" on="1"/>
        <pt x="435" y="1348" on="0"/>
        <pt x="662" y="1419" on="0"/>
        <pt x="787" y="1419" on="1"/>
        <pt x="855" y="1419" on="0"/>
        <pt x="1000" y="1404" on="0"/>
        <pt x="1061" y="1390" on="1"/>
        <pt x="1204" y="1404" on="1"/>
        <pt x="1245" y="1034" on="1"/>
        <pt x="1132" y="1013" on="1"/>
        <pt x="1048" y="1203" on="1"/>
        <pt x="998" y="1238" on="0"/>
        <pt x="828" y="1280" on="0"/>
        <pt x="750" y="1280" on="1"/>
        <pt x="669" y="1280" on="0"/>
        <pt x="526" y="1247" on="0"/>
        <pt x="494" y="1218" on="1"/>
        <pt x="428" y="1157" on="0"/>
        <pt x="354" y="898" on="0"/>
        <pt x="354" y="699" on="1"/>
        <pt x="354" y="558" on="0"/>
        <pt x="430" y="313" on="0"/>
        <pt x="505" y="241" on="1"/>
        <pt x="574" y="172" on="0"/>
        <pt x="727" y="120" on="0"/>
        <pt x="814" y="120" on="1"/>
        <pt x="869" y="120" on="0"/>
        <pt x="997" y="146" on="0"/>
        <pt x="1031" y="170" on="1"/>
        <pt x="1031" y="512" on="1"/>
        <pt x="758" y="582" on="1"/>
      </contour>
    </TTGlyph>
    <TTGlyph name="Gcommaaccent" xMin="81" yMin="-506" xMax="1422" yMax="1419">
      <contour>
        <pt x="774" y="665" on="1"/>
        <pt x="1422" y="665" on="1"/>
        <pt x="1407" y="575" on="1"/>
        <pt x="1286" y="504" on="1"/>
        <pt x="1285" y="210" on="1"/>
        <pt x="1237" y="139" on="0"/>
        <pt x="1077" y="28" on="0"/>
        <pt x="875" y="-35" on="0"/>
        <pt x="768" y="-35" on="1"/>
        <pt x="602" y="-35" on="0"/>
        <pt x="373" y="40" on="0"/>
        <pt x="268" y="136" on="1"/>
        <pt x="178" y="221" on="0"/>
        <pt x="81" y="489" on="0"/>
        <pt x="81" y="646" on="1"/>
        <pt x="81" y="832" on="0"/>
        <pt x="211" y="1166" on="0"/>
        <pt x="353" y="1281" on="1"/>
        <pt x="435" y="1348" on="0"/>
        <pt x="662" y="1419" on="0"/>
        <pt x="787" y="1419" on="1"/>
        <pt x="855" y="1419" on="0"/>
        <pt x="1000" y="1404" on="0"/>
        <pt x="1061" y="1390" on="1"/>
        <pt x="1204" y="1404" on="1"/>
        <pt x="1245" y="1034" on="1"/>
        <pt x="1132" y="1013" on="1"/>
        <pt x="1048" y="1203" on="1"/>
        <pt x="998" y="1238" on="0"/>
        <pt x="828" y="1280" on="0"/>
        <pt x="750" y="1280" on="1"/>
        <pt x="669" y="1280" on="0"/>
        <pt x="526" y="1247" on="0"/>
        <pt x="494" y="1218" on="1"/>
        <pt x="428" y="1157" on="0"/>
        <pt x="354" y="898" on="0"/>
        <pt x="354" y="699" on="1"/>
        <pt x="354" y="558" on="0"/>
        <pt x="430" y="313" on="0"/>
        <pt x="505" y="241" on="1"/>
        <pt x="574" y="172" on="0"/>
        <pt x="727" y="120" on="0"/>
        <pt x="814" y="120" on="1"/>
        <pt x="869" y="120" on="0"/>
        <pt x="997" y="146" on="0"/>
        <pt x="1031" y="170" on="1"/>
        <pt x="1031" y="512" on="1"/>
        <pt x="758" y="582" on="1"/>
      </contour>
      <contour>
        <pt x="864" y="-161" on="1"/>
        <pt x="920" y="-212" on="0"/>
        <pt x="920" y="-283" on="1"/>
        <pt x="920" y="-352" on="0"/>
        <pt x="831" y="-453" on="0"/>
        <pt x="710" y="-506" on="0"/>
        <pt x="667" y="-506" on="1"/>
        <pt x="646" y="-447" on="1"/>
        <pt x="720" y="-396" on="0"/>
        <pt x="774" y="-339" on="0"/>
        <pt x="774" y="-312" on="1"/>
        <pt x="772" y="-264" on="0"/>
        <pt x="658" y="-235" on="1"/>
        <pt x="691" y="-99" on="1"/>
        <pt x="740" y="-100" on="0"/>
        <pt x="830" y="-131" on="0"/>
      </contour>
    </TTGlyph>
    <TTGlyph name="H" xMin="61" yMin="0" xMax="1558" yMax="1384">
      <contour>
        <pt x="698" y="0" on="1"/>
        <pt x="61" y="0" on="1"/>
        <pt x="76" y="85" on="1"/>
        <pt x="256" y="149" on="1"/>
        <pt x="256" y="1236" on="1"/>
        <pt x="69" y="1303" on="1"/>
        <pt x="86" y="1384" on="1"/>
        <pt x="712" y="1384" on="1"/>
        <pt x="694" y="1294" on="1"/>
        <pt x="512" y="1230" on="1"/>
        <pt x="512" y="766" on="1"/>
        <pt x="1106" y="766" on="1"/>
        <pt x="1106" y="1233" on="1"/>
        <pt x="913" y="1299" on="1"/>
        <pt x="932" y="1384" on="1"/>
        <pt x="1558" y="1384" on="1"/>
        <pt x="1543" y="1301" on="1"/>
        <pt x="1362" y="1235" on="1"/>
        <pt x="1362" y="148" on="1"/>
        <pt x="1551" y="81" on="1"/>
        <pt x="1532" y="0" on="1"/>
        <pt x="895" y="0" on="1"/>
        <pt x="912" y="88" on="1"/>
        <pt x="1106" y="152" on="1"/>
        <pt x="1106" y="633" on="1"/>
        <pt x="791" y="617" on="0"/>
        <pt x="512" y="610" on="1"/>
        <pt x="512" y="153" on="1"/>
        <pt x="718" y="87" on="1"/>
      </contour>
    </TTGlyph>
    <TTGlyph name="I" xMin="61" yMin="0" xMax="712" yMax="1384">
      <contour>
        <pt x="256" y="1236" on="1"/>
        <pt x="68" y="1302" on="1"/>
        <pt x="85" y="1384" on="1"/>
        <pt x="712" y="1384" on="1"/>
        <pt x="696" y="1300" on="1"/>
        <pt x="515" y="1234" on="1"/>
        <pt x="515" y="150" on="1"/>
        <pt x="707" y="83" on="1"/>
        <pt x="688" y="0" on="1"/>
        <pt x="61" y="0" on="1"/>
        <pt x="78" y="86" on="1"/>
        <pt x="256" y="150" on="1"/>
      </contour>
    </TTGlyph>
    <TTGlyph name="Iacute" xMin="61" yMin="0" xMax="712" yMax="1795">
      <contour>
        <pt x="554" y="1795" on="1"/>
        <pt x="658" y="1795" on="1"/>
        <pt x="688" y="1636" on="1"/>
        <pt x="219" y="1491" on="1"/>
        <pt x="197" y="1598" on="1"/>
      </contour>
      <contour>
        <pt x="256" y="1236" on="1"/>
        <pt x="68" y="1302" on="1"/>
        <pt x="85" y="1384" on="1"/>
        <pt x="712" y="1384" on="1"/>
        <pt x="696" y="1300" on="1"/>
        <pt x="515" y="1234" on="1"/>
        <pt x="515" y="150" on="1"/>
        <pt x="707" y="83" on="1"/>
        <pt x="688" y="0" on="1"/>
        <pt x="61" y="0" on="1"/>
        <pt x="78" y="86" on="1"/>
        <pt x="256" y="150" on="1"/>
      </contour>
    </TTGlyph>
    <TTGlyph name="Icircumflex" xMin="61" yMin="0" xMax="713" yMax="1793">
      <contour>
        <pt x="332" y="1793" on="1"/>
        <pt x="441" y="1793" on="1"/>
        <pt x="713" y="1564" on="1"/>
        <pt x="637" y="1493" on="1"/>
        <pt x="387" y="1620" on="1"/>
        <pt x="137" y="1493" on="1"/>
        <pt x="61" y="1564" on="1"/>
      </contour>
      <contour>
        <pt x="256" y="1236" on="1"/>
        <pt x="68" y="1302" on="1"/>
        <pt x="85" y="1384" on="1"/>
        <pt x="712" y="1384" on="1"/>
        <pt x="696" y="1300" on="1"/>
        <pt x="515" y="1234" on="1"/>
        <pt x="515" y="150" on="1"/>
        <pt x="707" y="83" on="1"/>
        <pt x="688" y="0" on="1"/>
        <pt x="61" y="0" on="1"/>
        <pt x="78" y="86" on="1"/>
        <pt x="256" y="150" on="1"/>
      </contour>
    </TTGlyph>
    <TTGlyph name="Idieresis" xMin="45" yMin="0" xMax="726" yMax="1754">
      <contour>
        <pt x="480" y="1598" on="1"/>
        <pt x="480" y="1620" on="0"/>
        <pt x="506" y="1690" on="0"/>
        <pt x="544" y="1747" on="0"/>
        <pt x="561" y="1752" on="1"/>
        <pt x="567" y="1754" on="0"/>
        <pt x="572" y="1754" on="1"/>
        <pt x="593" y="1754" on="0"/>
        <pt x="662" y="1727" on="0"/>
        <pt x="719" y="1689" on="0"/>
        <pt x="725" y="1673" on="1"/>
        <pt x="726" y="1670" on="0"/>
        <pt x="726" y="1662" on="1"/>
        <pt x="726" y="1641" on="0"/>
        <pt x="700" y="1571" on="0"/>
        <pt x="662" y="1513" on="0"/>
        <pt x="645" y="1507" on="1"/>
        <pt x="642" y="1506" on="0"/>
        <pt x="635" y="1506" on="1"/>
        <pt x="614" y="1506" on="0"/>
        <pt x="545" y="1533" on="0"/>
        <pt x="487" y="1571" on="0"/>
        <pt x="481" y="1587" on="1"/>
        <pt x="480" y="1590" on="0"/>
      </contour>
      <contour>
        <pt x="45" y="1599" on="1"/>
        <pt x="45" y="1621" on="0"/>
        <pt x="72" y="1690" on="0"/>
        <pt x="110" y="1746" on="0"/>
        <pt x="127" y="1752" on="1"/>
        <pt x="130" y="1753" on="0"/>
        <pt x="137" y="1753" on="1"/>
        <pt x="157" y="1753" on="0"/>
        <pt x="226" y="1726" on="0"/>
        <pt x="284" y="1689" on="0"/>
        <pt x="290" y="1673" on="1"/>
        <pt x="291" y="1670" on="0"/>
        <pt x="291" y="1662" on="1"/>
        <pt x="291" y="1640" on="0"/>
        <pt x="265" y="1571" on="0"/>
        <pt x="227" y="1513" on="0"/>
        <pt x="210" y="1507" on="1"/>
        <pt x="207" y="1506" on="0"/>
        <pt x="200" y="1506" on="1"/>
        <pt x="179" y="1506" on="0"/>
        <pt x="110" y="1533" on="0"/>
        <pt x="53" y="1571" on="0"/>
        <pt x="47" y="1587" on="1"/>
        <pt x="45" y="1593" on="0"/>
      </contour>
      <contour>
        <pt x="256" y="1236" on="1"/>
        <pt x="68" y="1302" on="1"/>
        <pt x="85" y="1384" on="1"/>
        <pt x="712" y="1384" on="1"/>
        <pt x="696" y="1300" on="1"/>
        <pt x="515" y="1234" on="1"/>
        <pt x="515" y="150" on="1"/>
        <pt x="707" y="83" on="1"/>
        <pt x="688" y="0" on="1"/>
        <pt x="61" y="0" on="1"/>
        <pt x="78" y="86" on="1"/>
        <pt x="256" y="150" on="1"/>
      </contour>
    </TTGlyph>
    <TTGlyph name="Idotaccent" xMin="61" yMin="0" xMax="712" yMax="1743">
      <contour>
        <pt x="272" y="1663" on="1"/>
        <pt x="272" y="1679" on="0"/>
        <pt x="276" y="1687" on="1"/>
        <pt x="286" y="1705" on="0"/>
        <pt x="384" y="1743" on="0"/>
        <pt x="419" y="1743" on="1"/>
        <pt x="434" y="1743" on="0"/>
        <pt x="441" y="1739" on="1"/>
        <pt x="459" y="1730" on="0"/>
        <pt x="498" y="1631" on="0"/>
        <pt x="498" y="1596" on="1"/>
        <pt x="498" y="1581" on="0"/>
        <pt x="494" y="1573" on="1"/>
        <pt x="484" y="1555" on="0"/>
        <pt x="385" y="1516" on="0"/>
        <pt x="350" y="1516" on="1"/>
        <pt x="336" y="1516" on="0"/>
        <pt x="328" y="1520" on="1"/>
        <pt x="310" y="1529" on="0"/>
        <pt x="272" y="1627" on="0"/>
      </contour>
      <contour>
        <pt x="256" y="1236" on="1"/>
        <pt x="68" y="1302" on="1"/>
        <pt x="85" y="1384" on="1"/>
        <pt x="712" y="1384" on="1"/>
        <pt x="696" y="1300" on="1"/>
        <pt x="515" y="1234" on="1"/>
        <pt x="515" y="150" on="1"/>
        <pt x="707" y="83" on="1"/>
        <pt x="688" y="0" on="1"/>
        <pt x="61" y="0" on="1"/>
        <pt x="78" y="86" on="1"/>
        <pt x="256" y="150" on="1"/>
      </contour>
    </TTGlyph>
    <TTGlyph name="Igrave" xMin="61" yMin="0" xMax="712" yMax="1795">
      <contour>
        <pt x="171" y="1795" on="1"/>
        <pt x="275" y="1795" on="1"/>
        <pt x="631" y="1599" on="1"/>
        <pt x="610" y="1491" on="1"/>
        <pt x="141" y="1636" on="1"/>
      </contour>
      <contour>
        <pt x="256" y="1236" on="1"/>
        <pt x="68" y="1302" on="1"/>
        <pt x="85" y="1384" on="1"/>
        <pt x="712" y="1384" on="1"/>
        <pt x="696" y="1300" on="1"/>
        <pt x="515" y="1234" on="1"/>
        <pt x="515" y="150" on="1"/>
        <pt x="707" y="83" on="1"/>
        <pt x="688" y="0" on="1"/>
        <pt x="61" y="0" on="1"/>
        <pt x="78" y="86" on="1"/>
        <pt x="256" y="150" on="1"/>
      </contour>
    </TTGlyph>
    <TTGlyph name="Imacron" xMin="61" yMin="0" xMax="712" yMax="1690">
      <contour>
        <pt x="681" y="1690" on="1"/>
        <pt x="654" y="1547" on="1"/>
        <pt x="543" y="1541" on="0"/>
        <pt x="211" y="1535" on="0"/>
        <pt x="88" y="1535" on="1"/>
        <pt x="119" y="1690" on="1"/>
      </contour>
      <contour>
        <pt x="256" y="1236" on="1"/>
        <pt x="68" y="1302" on="1"/>
        <pt x="85" y="1384" on="1"/>
        <pt x="712" y="1384" on="1"/>
        <pt x="696" y="1300" on="1"/>
        <pt x="515" y="1234" on="1"/>
        <pt x="515" y="150" on="1"/>
        <pt x="707" y="83" on="1"/>
        <pt x="688" y="0" on="1"/>
        <pt x="61" y="0" on="1"/>
        <pt x="78" y="86" on="1"/>
        <pt x="256" y="150" on="1"/>
      </contour>
    </TTGlyph>
    <TTGlyph name="Iogonek" xMin="62" yMin="-487" xMax="712" yMax="1384">
      <contour>
        <pt x="256" y="1236" on="1"/>
        <pt x="69" y="1303" on="1"/>
        <pt x="85" y="1384" on="1"/>
        <pt x="712" y="1384" on="1"/>
        <pt x="696" y="1299" on="1"/>
        <pt x="515" y="1235" on="1"/>
        <pt x="515" y="148" on="1"/>
        <pt x="707" y="82" on="1"/>
        <pt x="689" y="0" on="1"/>
        <pt x="607" y="-19" on="0"/>
        <pt x="477" y="-108" on="0"/>
        <pt x="404" y="-206" on="0"/>
        <pt x="404" y="-236" on="1"/>
        <pt x="404" y="-268" on="0"/>
        <pt x="447" y="-334" on="0"/>
        <pt x="481" y="-349" on="1"/>
        <pt x="495" y="-356" on="0"/>
        <pt x="515" y="-356" on="1"/>
        <pt x="544" y="-356" on="0"/>
        <pt x="635" y="-331" on="0"/>
        <pt x="678" y="-312" on="1"/>
        <pt x="703" y="-354" on="1"/>
        <pt x="657" y="-395" on="0"/>
        <pt x="587" y="-447" on="0"/>
        <pt x="491" y="-487" on="0"/>
        <pt x="436" y="-487" on="1"/>
        <pt x="376" y="-487" on="0"/>
        <pt x="273" y="-441" on="0"/>
        <pt x="210" y="-349" on="0"/>
        <pt x="210" y="-283" on="1"/>
        <pt x="210" y="-215" on="0"/>
        <pt x="284" y="-111" on="0"/>
        <pt x="393" y="-38" on="0"/>
        <pt x="470" y="0" on="1"/>
        <pt x="62" y="0" on="1"/>
        <pt x="77" y="86" on="1"/>
        <pt x="256" y="149" on="1"/>
      </contour>
    </TTGlyph>
    <TTGlyph name="J" xMin="39" yMin="-331" xMax="693" yMax="1384">
      <contour>
        <pt x="56" y="1384" on="1"/>
        <pt x="693" y="1384" on="1"/>
        <pt x="678" y="1299" on="1"/>
        <pt x="510" y="1235" on="1"/>
        <pt x="510" y="443" on="1"/>
        <pt x="510" y="244" on="0"/>
        <pt x="453" y="1" on="0"/>
        <pt x="301" y="-200" on="0"/>
        <pt x="146" y="-331" on="1"/>
        <pt x="82" y="-284" on="1"/>
        <pt x="127" y="-186" on="0"/>
        <pt x="250" y="139" on="0"/>
        <pt x="250" y="175" on="1"/>
        <pt x="250" y="1236" on="1"/>
        <pt x="39" y="1302" on="1"/>
      </contour>
    </TTGlyph>
    <TTGlyph name="K" xMin="62" yMin="0" xMax="1484" yMax="1384">
      <contour>
        <pt x="255" y="1236" on="1"/>
        <pt x="69" y="1303" on="1"/>
        <pt x="87" y="1384" on="1"/>
        <pt x="700" y="1384" on="1"/>
        <pt x="684" y="1298" on="1"/>
        <pt x="515" y="1234" on="1"/>
        <pt x="515" y="156" on="1"/>
        <pt x="717" y="90" on="1"/>
        <pt x="697" y="0" on="1"/>
        <pt x="62" y="0" on="1"/>
        <pt x="78" y="85" on="1"/>
        <pt x="255" y="149" on="1"/>
      </contour>
      <contour>
        <pt x="1484" y="81" on="1"/>
        <pt x="1466" y="0" on="1"/>
        <pt x="998" y="0" on="1"/>
        <pt x="1013" y="77" on="1"/>
        <pt x="583" y="702" on="1"/>
        <pt x="1028" y="1238" on="1"/>
        <pt x="860" y="1305" on="1"/>
        <pt x="879" y="1384" on="1"/>
        <pt x="1464" y="1384" on="1"/>
        <pt x="1446" y="1297" on="1"/>
        <pt x="1275" y="1237" on="1"/>
        <pt x="850" y="751" on="1"/>
        <pt x="1295" y="152" on="1"/>
      </contour>
    </TTGlyph>
    <TTGlyph name="Kcommaaccent" xMin="62" yMin="-506" xMax="1484" yMax="1384">
      <contour>
        <pt x="255" y="1236" on="1"/>
        <pt x="69" y="1303" on="1"/>
        <pt x="87" y="1384" on="1"/>
        <pt x="700" y="1384" on="1"/>
        <pt x="684" y="1298" on="1"/>
        <pt x="515" y="1234" on="1"/>
        <pt x="515" y="156" on="1"/>
        <pt x="717" y="90" on="1"/>
        <pt x="697" y="0" on="1"/>
        <pt x="62" y="0" on="1"/>
        <pt x="78" y="85" on="1"/>
        <pt x="255" y="149" on="1"/>
      </contour>
      <contour>
        <pt x="1484" y="81" on="1"/>
        <pt x="1466" y="0" on="1"/>
        <pt x="998" y="0" on="1"/>
        <pt x="1013" y="77" on="1"/>
        <pt x="583" y="702" on="1"/>
        <pt x="1028" y="1238" on="1"/>
        <pt x="860" y="1305" on="1"/>
        <pt x="879" y="1384" on="1"/>
        <pt x="1464" y="1384" on="1"/>
        <pt x="1446" y="1297" on="1"/>
        <pt x="1275" y="1237" on="1"/>
        <pt x="850" y="751" on="1"/>
        <pt x="1295" y="152" on="1"/>
      </contour>
      <contour>
        <pt x="817" y="-161" on="1"/>
        <pt x="873" y="-212" on="0"/>
        <pt x="873" y="-283" on="1"/>
        <pt x="873" y="-352" on="0"/>
        <pt x="784" y="-453" on="0"/>
        <pt x="663" y="-506" on="0"/>
        <pt x="620" y="-506" on="1"/>
        <pt x="599" y="-447" on="1"/>
        <pt x="673" y="-396" on="0"/>
        <pt x="727" y="-339" on="0"/>
        <pt x="727" y="-312" on="1"/>
        <pt x="725" y="-264" on="0"/>
        <pt x="611" y="-235" on="1"/>
        <pt x="644" y="-99" on="1"/>
        <pt x="693" y="-100" on="0"/>
        <pt x="783" y="-131" on="0"/>
      </contour>
    </TTGlyph>
    <TTGlyph name="L" xMin="62" yMin="0" xMax="1225" yMax="1384">
      <contour>
        <pt x="1225" y="334" on="1"/>
        <pt x="1148" y="0" on="1"/>
        <pt x="62" y="0" on="1"/>
        <pt x="77" y="86" on="1"/>
        <pt x="256" y="151" on="1"/>
        <pt x="256" y="1238" on="1"/>
        <pt x="69" y="1301" on="1"/>
        <pt x="86" y="1384" on="1"/>
        <pt x="719" y="1384" on="1"/>
        <pt x="703" y="1298" on="1"/>
        <pt x="515" y="1233" on="1"/>
        <pt x="515" y="100" on="1"/>
        <pt x="1000" y="161" on="1"/>
        <pt x="1127" y="353" on="1"/>
      </contour>
    </TTGlyph>
    <TTGlyph name="Lacute" xMin="62" yMin="0" xMax="1225" yMax="1795">
      <contour>
        <pt x="572" y="1795" on="1"/>
        <pt x="676" y="1795" on="1"/>
        <pt x="706" y="1636" on="1"/>
        <pt x="237" y="1491" on="1"/>
        <pt x="215" y="1598" on="1"/>
      </contour>
      <contour>
        <pt x="1225" y="334" on="1"/>
        <pt x="1148" y="0" on="1"/>
        <pt x="62" y="0" on="1"/>
        <pt x="77" y="86" on="1"/>
        <pt x="256" y="151" on="1"/>
        <pt x="256" y="1238" on="1"/>
        <pt x="69" y="1301" on="1"/>
        <pt x="86" y="1384" on="1"/>
        <pt x="719" y="1384" on="1"/>
        <pt x="703" y="1298" on="1"/>
        <pt x="515" y="1233" on="1"/>
        <pt x="515" y="100" on="1"/>
        <pt x="1000" y="161" on="1"/>
        <pt x="1127" y="353" on="1"/>
      </contour>
    </TTGlyph>
    <TTGlyph name="Lcaron" xMin="62" yMin="0" xMax="1225" yMax="1399">
      <contour>
        <pt x="961" y="1216" on="1"/>
        <pt x="866" y="1256" on="1"/>
        <pt x="883" y="1373" on="1"/>
        <pt x="1023" y="1398" on="0"/>
        <pt x="1119" y="1399" on="1"/>
        <pt x="1133" y="1373" on="0"/>
        <pt x="1143" y="1329" on="0"/>
        <pt x="1143" y="1304" on="1"/>
        <pt x="1143" y="1215" on="0"/>
        <pt x="1018" y="991" on="0"/>
        <pt x="927" y="908" on="1"/>
        <pt x="848" y="930" on="1"/>
        <pt x="922" y="1078" on="0"/>
      </contour>
      <contour>
        <pt x="1225" y="334" on="1"/>
        <pt x="1148" y="0" on="1"/>
        <pt x="62" y="0" on="1"/>
        <pt x="77" y="86" on="1"/>
        <pt x="256" y="151" on="1"/>
        <pt x="256" y="1238" on="1"/>
        <pt x="69" y="1301" on="1"/>
        <pt x="86" y="1384" on="1"/>
        <pt x="719" y="1384" on="1"/>
        <pt x="703" y="1298" on="1"/>
        <pt x="515" y="1233" on="1"/>
        <pt x="515" y="100" on="1"/>
        <pt x="1000" y="161" on="1"/>
        <pt x="1127" y="353" on="1"/>
      </contour>
    </TTGlyph>
    <TTGlyph name="Lcommaaccent" xMin="62" yMin="-506" xMax="1225" yMax="1384">
      <contour>
        <pt x="1225" y="334" on="1"/>
        <pt x="1148" y="0" on="1"/>
        <pt x="62" y="0" on="1"/>
        <pt x="77" y="86" on="1"/>
        <pt x="256" y="151" on="1"/>
        <pt x="256" y="1238" on="1"/>
        <pt x="69" y="1301" on="1"/>
        <pt x="86" y="1384" on="1"/>
        <pt x="719" y="1384" on="1"/>
        <pt x="703" y="1298" on="1"/>
        <pt x="515" y="1233" on="1"/>
        <pt x="515" y="100" on="1"/>
        <pt x="1000" y="161" on="1"/>
        <pt x="1127" y="353" on="1"/>
      </contour>
      <contour>
        <pt x="689" y="-161" on="1"/>
        <pt x="745" y="-212" on="0"/>
        <pt x="745" y="-283" on="1"/>
        <pt x="745" y="-352" on="0"/>
        <pt x="656" y="-453" on="0"/>
        <pt x="535" y="-506" on="0"/>
        <pt x="492" y="-506" on="1"/>
        <pt x="471" y="-447" on="1"/>
        <pt x="545" y="-396" on="0"/>
        <pt x="599" y="-339" on="0"/>
        <pt x="599" y="-312" on="1"/>
        <pt x="597" y="-264" on="0"/>
        <pt x="483" y="-235" on="1"/>
        <pt x="516" y="-99" on="1"/>
        <pt x="565" y="-100" on="0"/>
        <pt x="655" y="-131" on="0"/>
      </contour>
    </TTGlyph>
    <TTGlyph name="Lslash" xMin="20" yMin="0" xMax="1225" yMax="1384">
      <contour>
        <pt x="1148" y="0" on="1"/>
        <pt x="62" y="0" on="1"/>
        <pt x="77" y="86" on="1"/>
        <pt x="256" y="151" on="1"/>
        <pt x="256" y="546" on="1"/>
        <pt x="54" y="453" on="1"/>
        <pt x="20" y="615" on="1"/>
        <pt x="256" y="721" on="1"/>
        <pt x="256" y="1238" on="1"/>
        <pt x="69" y="1301" on="1"/>
        <pt x="86" y="1384" on="1"/>
        <pt x="719" y="1384" on="1"/>
        <pt x="703" y="1298" on="1"/>
        <pt x="515" y="1233" on="1"/>
        <pt x="515" y="837" on="1"/>
        <pt x="983" y="1046" on="1"/>
        <pt x="1019" y="896" on="1"/>
        <pt x="515" y="665" on="1"/>
        <pt x="515" y="100" on="1"/>
        <pt x="1000" y="161" on="1"/>
        <pt x="1127" y="353" on="1"/>
        <pt x="1225" y="334" on="1"/>
      </contour>
    </TTGlyph>
    <TTGlyph name="M" xMin="64" yMin="-15" xMax="1913" yMax="1384">
      <contour>
        <pt x="90" y="1384" on="1"/>
        <pt x="529" y="1384" on="1"/>
        <pt x="1000" y="278" on="1"/>
        <pt x="1436" y="1384" on="1"/>
        <pt x="1913" y="1384" on="1"/>
        <pt x="1896" y="1290" on="1"/>
        <pt x="1717" y="1225" on="1"/>
        <pt x="1717" y="148" on="1"/>
        <pt x="1907" y="83" on="1"/>
        <pt x="1889" y="0" on="1"/>
        <pt x="1268" y="0" on="1"/>
        <pt x="1284" y="85" on="1"/>
        <pt x="1461" y="149" on="1"/>
        <pt x="1461" y="1149" on="1"/>
        <pt x="1378" y="888" on="0"/>
        <pt x="1172" y="337" on="0"/>
        <pt x="1045" y="25" on="1"/>
        <pt x="838" y="-15" on="1"/>
        <pt x="382" y="1143" on="1"/>
        <pt x="403" y="984" on="0"/>
        <pt x="415" y="528" on="0"/>
        <pt x="416" y="184" on="1"/>
        <pt x="416" y="148" on="1"/>
        <pt x="603" y="83" on="1"/>
        <pt x="587" y="0" on="1"/>
        <pt x="64" y="0" on="1"/>
        <pt x="81" y="86" on="1"/>
        <pt x="255" y="149" on="1"/>
        <pt x="255" y="1230" on="1"/>
        <pt x="71" y="1296" on="1"/>
      </contour>
    </TTGlyph>
    <TTGlyph name="N" xMin="67" yMin="-25" xMax="1506" yMax="1384">
      <contour>
        <pt x="255" y="1236" on="1"/>
        <pt x="67" y="1301" on="1"/>
        <pt x="85" y="1384" on="1"/>
        <pt x="479" y="1384" on="1"/>
        <pt x="1183" y="326" on="1"/>
        <pt x="1166" y="529" on="0"/>
        <pt x="1157" y="933" on="0"/>
        <pt x="1157" y="1237" on="1"/>
        <pt x="953" y="1301" on="1"/>
        <pt x="970" y="1384" on="1"/>
        <pt x="1506" y="1384" on="1"/>
        <pt x="1491" y="1300" on="1"/>
        <pt x="1322" y="1235" on="1"/>
        <pt x="1322" y="15" on="1"/>
        <pt x="1110" y="-25" on="1"/>
        <pt x="389" y="1072" on="1"/>
        <pt x="409" y="867" on="0"/>
        <pt x="419" y="456" on="0"/>
        <pt x="419" y="148" on="1"/>
        <pt x="625" y="83" on="1"/>
        <pt x="607" y="0" on="1"/>
        <pt x="68" y="0" on="1"/>
        <pt x="84" y="85" on="1"/>
        <pt x="255" y="149" on="1"/>
      </contour>
    </TTGlyph>
    <TTGlyph name="Nacute" xMin="67" yMin="-25" xMax="1506" yMax="1795">
      <contour>
        <pt x="938" y="1795" on="1"/>
        <pt x="1042" y="1795" on="1"/>
        <pt x="1072" y="1636" on="1"/>
        <pt x="603" y="1491" on="1"/>
        <pt x="581" y="1598" on="1"/>
      </contour>
      <contour>
        <pt x="255" y="1236" on="1"/>
        <pt x="67" y="1301" on="1"/>
        <pt x="85" y="1384" on="1"/>
        <pt x="479" y="1384" on="1"/>
        <pt x="1183" y="326" on="1"/>
        <pt x="1166" y="529" on="0"/>
        <pt x="1157" y="933" on="0"/>
        <pt x="1157" y="1237" on="1"/>
        <pt x="953" y="1301" on="1"/>
        <pt x="970" y="1384" on="1"/>
        <pt x="1506" y="1384" on="1"/>
        <pt x="1491" y="1300" on="1"/>
        <pt x="1322" y="1235" on="1"/>
        <pt x="1322" y="15" on="1"/>
        <pt x="1110" y="-25" on="1"/>
        <pt x="389" y="1072" on="1"/>
        <pt x="409" y="867" on="0"/>
        <pt x="419" y="456" on="0"/>
        <pt x="419" y="148" on="1"/>
        <pt x="625" y="83" on="1"/>
        <pt x="607" y="0" on="1"/>
        <pt x="68" y="0" on="1"/>
        <pt x="84" y="85" on="1"/>
        <pt x="255" y="149" on="1"/>
      </contour>
    </TTGlyph>
    <TTGlyph name="Ncaron" xMin="67" yMin="-25" xMax="1506" yMax="1807">
      <contour>
        <pt x="519" y="1807" on="1"/>
        <pt x="769" y="1679" on="1"/>
        <pt x="1020" y="1807" on="1"/>
        <pt x="1094" y="1737" on="1"/>
        <pt x="827" y="1515" on="1"/>
        <pt x="712" y="1515" on="1"/>
        <pt x="445" y="1737" on="1"/>
      </contour>
      <contour>
        <pt x="255" y="1236" on="1"/>
        <pt x="67" y="1301" on="1"/>
        <pt x="85" y="1384" on="1"/>
        <pt x="479" y="1384" on="1"/>
        <pt x="1183" y="326" on="1"/>
        <pt x="1166" y="529" on="0"/>
        <pt x="1157" y="933" on="0"/>
        <pt x="1157" y="1237" on="1"/>
        <pt x="953" y="1301" on="1"/>
        <pt x="970" y="1384" on="1"/>
        <pt x="1506" y="1384" on="1"/>
        <pt x="1491" y="1300" on="1"/>
        <pt x="1322" y="1235" on="1"/>
        <pt x="1322" y="15" on="1"/>
        <pt x="1110" y="-25" on="1"/>
        <pt x="389" y="1072" on="1"/>
        <pt x="409" y="867" on="0"/>
        <pt x="419" y="456" on="0"/>
        <pt x="419" y="148" on="1"/>
        <pt x="625" y="83" on="1"/>
        <pt x="607" y="0" on="1"/>
        <pt x="68" y="0" on="1"/>
        <pt x="84" y="85" on="1"/>
        <pt x="255" y="149" on="1"/>
      </contour>
    </TTGlyph>
    <TTGlyph name="Ncommaaccent" xMin="67" yMin="-506" xMax="1506" yMax="1384">
      <contour>
        <pt x="255" y="1236" on="1"/>
        <pt x="67" y="1301" on="1"/>
        <pt x="85" y="1384" on="1"/>
        <pt x="479" y="1384" on="1"/>
        <pt x="1183" y="326" on="1"/>
        <pt x="1166" y="529" on="0"/>
        <pt x="1157" y="933" on="0"/>
        <pt x="1157" y="1237" on="1"/>
        <pt x="953" y="1301" on="1"/>
        <pt x="970" y="1384" on="1"/>
        <pt x="1506" y="1384" on="1"/>
        <pt x="1491" y="1300" on="1"/>
        <pt x="1322" y="1235" on="1"/>
        <pt x="1322" y="15" on="1"/>
        <pt x="1110" y="-25" on="1"/>
        <pt x="389" y="1072" on="1"/>
        <pt x="409" y="867" on="0"/>
        <pt x="419" y="456" on="0"/>
        <pt x="419" y="148" on="1"/>
        <pt x="625" y="83" on="1"/>
        <pt x="607" y="0" on="1"/>
        <pt x="68" y="0" on="1"/>
        <pt x="84" y="85" on="1"/>
        <pt x="255" y="149" on="1"/>
      </contour>
      <contour>
        <pt x="853" y="-161" on="1"/>
        <pt x="909" y="-212" on="0"/>
        <pt x="909" y="-283" on="1"/>
        <pt x="909" y="-352" on="0"/>
        <pt x="820" y="-453" on="0"/>
        <pt x="699" y="-506" on="0"/>
        <pt x="656" y="-506" on="1"/>
        <pt x="635" y="-447" on="1"/>
        <pt x="709" y="-396" on="0"/>
        <pt x="763" y="-339" on="0"/>
        <pt x="763" y="-312" on="1"/>
        <pt x="761" y="-264" on="0"/>
        <pt x="647" y="-235" on="1"/>
        <pt x="680" y="-99" on="1"/>
        <pt x="729" y="-100" on="0"/>
        <pt x="819" y="-131" on="0"/>
      </contour>
    </TTGlyph>
    <TTGlyph name="Ntilde" xMin="67" yMin="-25" xMax="1506" yMax="1815">
      <contour>
        <pt x="649" y="1815" on="1"/>
        <pt x="697" y="1815" on="0"/>
        <pt x="776" y="1770" on="0"/>
        <pt x="825" y="1730" on="1"/>
        <pt x="853" y="1707" on="0"/>
        <pt x="888" y="1684" on="0"/>
        <pt x="903" y="1684" on="1"/>
        <pt x="932" y="1684" on="0"/>
        <pt x="1047" y="1747" on="0"/>
        <pt x="1103" y="1793" on="1"/>
        <pt x="1123" y="1668" on="1"/>
        <pt x="1057" y="1595" on="0"/>
        <pt x="951" y="1518" on="0"/>
        <pt x="888" y="1518" on="1"/>
        <pt x="840" y="1518" on="0"/>
        <pt x="762" y="1562" on="0"/>
        <pt x="715" y="1602" on="1"/>
        <pt x="684" y="1627" on="0"/>
        <pt x="651" y="1648" on="0"/>
        <pt x="636" y="1648" on="1"/>
        <pt x="604" y="1648" on="0"/>
        <pt x="485" y="1585" on="0"/>
        <pt x="438" y="1539" on="1"/>
        <pt x="414" y="1663" on="1"/>
        <pt x="459" y="1713" on="0"/>
        <pt x="527" y="1775" on="0"/>
        <pt x="605" y="1815" on="0"/>
      </contour>
      <contour>
        <pt x="255" y="1236" on="1"/>
        <pt x="67" y="1301" on="1"/>
        <pt x="85" y="1384" on="1"/>
        <pt x="479" y="1384" on="1"/>
        <pt x="1183" y="326" on="1"/>
        <pt x="1166" y="529" on="0"/>
        <pt x="1157" y="933" on="0"/>
        <pt x="1157" y="1237" on="1"/>
        <pt x="953" y="1301" on="1"/>
        <pt x="970" y="1384" on="1"/>
        <pt x="1506" y="1384" on="1"/>
        <pt x="1491" y="1300" on="1"/>
        <pt x="1322" y="1235" on="1"/>
        <pt x="1322" y="15" on="1"/>
        <pt x="1110" y="-25" on="1"/>
        <pt x="389" y="1072" on="1"/>
        <pt x="409" y="867" on="0"/>
        <pt x="419" y="456" on="0"/>
        <pt x="419" y="148" on="1"/>
        <pt x="625" y="83" on="1"/>
        <pt x="607" y="0" on="1"/>
        <pt x="68" y="0" on="1"/>
        <pt x="84" y="85" on="1"/>
        <pt x="255" y="149" on="1"/>
      </contour>
    </TTGlyph>
    <TTGlyph name="O" xMin="81" yMin="-35" xMax="1375" yMax="1419">
      <contour>
        <pt x="770" y="1419" on="1"/>
        <pt x="935" y="1419" on="0"/>
        <pt x="1211" y="1260" on="0"/>
        <pt x="1375" y="961" on="0"/>
        <pt x="1375" y="762" on="1"/>
        <pt x="1375" y="546" on="0"/>
        <pt x="1211" y="182" on="0"/>
        <pt x="904" y="-35" on="0"/>
        <pt x="699" y="-35" on="1"/>
        <pt x="525" y="-35" on="0"/>
        <pt x="243" y="124" on="0"/>
        <pt x="81" y="422" on="0"/>
        <pt x="81" y="623" on="1"/>
        <pt x="81" y="837" on="0"/>
        <pt x="240" y="1201" on="0"/>
        <pt x="552" y="1419" on="0"/>
      </contour>
      <contour>
        <pt x="790" y="124" on="1"/>
        <pt x="852" y="124" on="0"/>
        <pt x="967" y="162" on="0"/>
        <pt x="1003" y="203" on="1"/>
        <pt x="1050" y="258" on="0"/>
        <pt x="1102" y="508" on="0"/>
        <pt x="1102" y="617" on="1"/>
        <pt x="1102" y="745" on="0"/>
        <pt x="1083" y="912" on="0"/>
        <pt x="1055" y="984" on="1"/>
        <pt x="1023" y="1066" on="0"/>
        <pt x="904" y="1191" on="0"/>
        <pt x="750" y="1260" on="0"/>
        <pt x="669" y="1260" on="1"/>
        <pt x="611" y="1260" on="0"/>
        <pt x="500" y="1228" on="0"/>
        <pt x="463" y="1192" on="1"/>
        <pt x="426" y="1155" on="0"/>
        <pt x="377" y="1006" on="0"/>
        <pt x="354" y="836" on="0"/>
        <pt x="354" y="766" on="1"/>
        <pt x="354" y="610" on="0"/>
        <pt x="399" y="374" on="0"/>
        <pt x="464" y="287" on="1"/>
        <pt x="521" y="211" on="0"/>
        <pt x="693" y="124" on="0"/>
      </contour>
    </TTGlyph>
    <TTGlyph name="OE" xMin="81" yMin="-35" xMax="1925" yMax="1419">
      <contour>
        <pt x="699" y="-35" on="1"/>
        <pt x="525" y="-35" on="0"/>
        <pt x="243" y="124" on="0"/>
        <pt x="81" y="422" on="0"/>
        <pt x="81" y="623" on="1"/>
        <pt x="81" y="837" on="0"/>
        <pt x="240" y="1201" on="0"/>
        <pt x="552" y="1419" on="0"/>
        <pt x="770" y="1419" on="1"/>
        <pt x="877" y="1419" on="0"/>
        <pt x="976" y="1384" on="1"/>
        <pt x="1682" y="1384" on="1"/>
        <pt x="1816" y="1397" on="1"/>
        <pt x="1851" y="1045" on="1"/>
        <pt x="1743" y="1022" on="1"/>
        <pt x="1645" y="1239" on="1"/>
        <pt x="1227" y="1296" on="1"/>
        <pt x="1227" y="741" on="1"/>
        <pt x="1281" y="752" on="0"/>
        <pt x="1426" y="769" on="0"/>
        <pt x="1480" y="771" on="1"/>
        <pt x="1541" y="939" on="1"/>
        <pt x="1625" y="918" on="1"/>
        <pt x="1608" y="457" on="1"/>
        <pt x="1522" y="472" on="1"/>
        <pt x="1479" y="633" on="1"/>
        <pt x="1430" y="633" on="0"/>
        <pt x="1281" y="648" on="0"/>
        <pt x="1227" y="659" on="1"/>
        <pt x="1227" y="99" on="1"/>
        <pt x="1707" y="161" on="1"/>
        <pt x="1829" y="351" on="1"/>
        <pt x="1925" y="334" on="1"/>
        <pt x="1848" y="0" on="1"/>
        <pt x="913" y="0" on="1"/>
        <pt x="808" y="-35" on="0"/>
      </contour>
      <contour>
        <pt x="968" y="173" on="1"/>
        <pt x="968" y="1147" on="1"/>
        <pt x="909" y="1202" on="0"/>
        <pt x="753" y="1260" on="0"/>
        <pt x="669" y="1260" on="1"/>
        <pt x="611" y="1260" on="0"/>
        <pt x="501" y="1228" on="0"/>
        <pt x="464" y="1192" on="1"/>
        <pt x="426" y="1155" on="0"/>
        <pt x="377" y="1006" on="0"/>
        <pt x="354" y="836" on="0"/>
        <pt x="354" y="766" on="1"/>
        <pt x="354" y="610" on="0"/>
        <pt x="399" y="374" on="0"/>
        <pt x="464" y="287" on="1"/>
        <pt x="522" y="211" on="0"/>
        <pt x="694" y="124" on="0"/>
        <pt x="790" y="124" on="1"/>
        <pt x="837" y="124" on="0"/>
        <pt x="931" y="148" on="0"/>
      </contour>
    </TTGlyph>
    <TTGlyph name="Oacute" xMin="81" yMin="-35" xMax="1375" yMax="1795">
      <contour>
        <pt x="902" y="1795" on="1"/>
        <pt x="1006" y="1795" on="1"/>
        <pt x="1036" y="1636" on="1"/>
        <pt x="567" y="1491" on="1"/>
        <pt x="545" y="1598" on="1"/>
      </contour>
      <contour>
        <pt x="770" y="1419" on="1"/>
        <pt x="935" y="1419" on="0"/>
        <pt x="1211" y="1260" on="0"/>
        <pt x="1375" y="961" on="0"/>
        <pt x="1375" y="762" on="1"/>
        <pt x="1375" y="546" on="0"/>
        <pt x="1211" y="182" on="0"/>
        <pt x="904" y="-35" on="0"/>
        <pt x="699" y="-35" on="1"/>
        <pt x="525" y="-35" on="0"/>
        <pt x="243" y="124" on="0"/>
        <pt x="81" y="422" on="0"/>
        <pt x="81" y="623" on="1"/>
        <pt x="81" y="837" on="0"/>
        <pt x="240" y="1201" on="0"/>
        <pt x="552" y="1419" on="0"/>
      </contour>
      <contour>
        <pt x="790" y="124" on="1"/>
        <pt x="852" y="124" on="0"/>
        <pt x="967" y="162" on="0"/>
        <pt x="1003" y="203" on="1"/>
        <pt x="1050" y="258" on="0"/>
        <pt x="1102" y="508" on="0"/>
        <pt x="1102" y="617" on="1"/>
        <pt x="1102" y="745" on="0"/>
        <pt x="1083" y="912" on="0"/>
        <pt x="1055" y="984" on="1"/>
        <pt x="1023" y="1066" on="0"/>
        <pt x="904" y="1191" on="0"/>
        <pt x="750" y="1260" on="0"/>
        <pt x="669" y="1260" on="1"/>
        <pt x="611" y="1260" on="0"/>
        <pt x="500" y="1228" on="0"/>
        <pt x="463" y="1192" on="1"/>
        <pt x="426" y="1155" on="0"/>
        <pt x="377" y="1006" on="0"/>
        <pt x="354" y="836" on="0"/>
        <pt x="354" y="766" on="1"/>
        <pt x="354" y="610" on="0"/>
        <pt x="399" y="374" on="0"/>
        <pt x="464" y="287" on="1"/>
        <pt x="521" y="211" on="0"/>
        <pt x="693" y="124" on="0"/>
      </contour>
    </TTGlyph>
    <TTGlyph name="Ocircumflex" xMin="81" yMin="-35" xMax="1375" yMax="1793">
      <contour>
        <pt x="680" y="1793" on="1"/>
        <pt x="789" y="1793" on="1"/>
        <pt x="1061" y="1564" on="1"/>
        <pt x="985" y="1493" on="1"/>
        <pt x="735" y="1620" on="1"/>
        <pt x="485" y="1493" on="1"/>
        <pt x="409" y="1564" on="1"/>
      </contour>
      <contour>
        <pt x="770" y="1419" on="1"/>
        <pt x="935" y="1419" on="0"/>
        <pt x="1211" y="1260" on="0"/>
        <pt x="1375" y="961" on="0"/>
        <pt x="1375" y="762" on="1"/>
        <pt x="1375" y="546" on="0"/>
        <pt x="1211" y="182" on="0"/>
        <pt x="904" y="-35" on="0"/>
        <pt x="699" y="-35" on="1"/>
        <pt x="525" y="-35" on="0"/>
        <pt x="243" y="124" on="0"/>
        <pt x="81" y="422" on="0"/>
        <pt x="81" y="623" on="1"/>
        <pt x="81" y="837" on="0"/>
        <pt x="240" y="1201" on="0"/>
        <pt x="552" y="1419" on="0"/>
      </contour>
      <contour>
        <pt x="790" y="124" on="1"/>
        <pt x="852" y="124" on="0"/>
        <pt x="967" y="162" on="0"/>
        <pt x="1003" y="203" on="1"/>
        <pt x="1050" y="258" on="0"/>
        <pt x="1102" y="508" on="0"/>
        <pt x="1102" y="617" on="1"/>
        <pt x="1102" y="745" on="0"/>
        <pt x="1083" y="912" on="0"/>
        <pt x="1055" y="984" on="1"/>
        <pt x="1023" y="1066" on="0"/>
        <pt x="904" y="1191" on="0"/>
        <pt x="750" y="1260" on="0"/>
        <pt x="669" y="1260" on="1"/>
        <pt x="611" y="1260" on="0"/>
        <pt x="500" y="1228" on="0"/>
        <pt x="463" y="1192" on="1"/>
        <pt x="426" y="1155" on="0"/>
        <pt x="377" y="1006" on="0"/>
        <pt x="354" y="836" on="0"/>
        <pt x="354" y="766" on="1"/>
        <pt x="354" y="610" on="0"/>
        <pt x="399" y="374" on="0"/>
        <pt x="464" y="287" on="1"/>
        <pt x="521" y="211" on="0"/>
        <pt x="693" y="124" on="0"/>
      </contour>
    </TTGlyph>
    <TTGlyph name="Odieresis" xMin="81" yMin="-35" xMax="1375" yMax="1754">
      <contour>
        <pt x="828" y="1598" on="1"/>
        <pt x="828" y="1620" on="0"/>
        <pt x="854" y="1690" on="0"/>
        <pt x="892" y="1747" on="0"/>
        <pt x="909" y="1752" on="1"/>
        <pt x="915" y="1754" on="0"/>
        <pt x="920" y="1754" on="1"/>
        <pt x="941" y="1754" on="0"/>
        <pt x="1010" y="1727" on="0"/>
        <pt x="1067" y="1689" on="0"/>
        <pt x="1073" y="1673" on="1"/>
        <pt x="1074" y="1670" on="0"/>
        <pt x="1074" y="1662" on="1"/>
        <pt x="1074" y="1641" on="0"/>
        <pt x="1048" y="1571" on="0"/>
        <pt x="1010" y="1513" on="0"/>
        <pt x="993" y="1507" on="1"/>
        <pt x="990" y="1506" on="0"/>
        <pt x="983" y="1506" on="1"/>
        <pt x="962" y="1506" on="0"/>
        <pt x="893" y="1533" on="0"/>
        <pt x="835" y="1571" on="0"/>
        <pt x="829" y="1587" on="1"/>
        <pt x="828" y="1590" on="0"/>
      </contour>
      <contour>
        <pt x="393" y="1599" on="1"/>
        <pt x="393" y="1621" on="0"/>
        <pt x="420" y="1690" on="0"/>
        <pt x="458" y="1746" on="0"/>
        <pt x="475" y="1752" on="1"/>
        <pt x="478" y="1753" on="0"/>
        <pt x="485" y="1753" on="1"/>
        <pt x="505" y="1753" on="0"/>
        <pt x="574" y="1726" on="0"/>
        <pt x="632" y="1689" on="0"/>
        <pt x="638" y="1673" on="1"/>
        <pt x="639" y="1670" on="0"/>
        <pt x="639" y="1662" on="1"/>
        <pt x="639" y="1640" on="0"/>
        <pt x="613" y="1571" on="0"/>
        <pt x="575" y="1513" on="0"/>
        <pt x="558" y="1507" on="1"/>
        <pt x="555" y="1506" on="0"/>
        <pt x="548" y="1506" on="1"/>
        <pt x="527" y="1506" on="0"/>
        <pt x="458" y="1533" on="0"/>
        <pt x="401" y="1571" on="0"/>
        <pt x="395" y="1587" on="1"/>
        <pt x="393" y="1593" on="0"/>
      </contour>
      <contour>
        <pt x="770" y="1419" on="1"/>
        <pt x="935" y="1419" on="0"/>
        <pt x="1211" y="1260" on="0"/>
        <pt x="1375" y="961" on="0"/>
        <pt x="1375" y="762" on="1"/>
        <pt x="1375" y="546" on="0"/>
        <pt x="1211" y="182" on="0"/>
        <pt x="904" y="-35" on="0"/>
        <pt x="699" y="-35" on="1"/>
        <pt x="525" y="-35" on="0"/>
        <pt x="243" y="124" on="0"/>
        <pt x="81" y="422" on="0"/>
        <pt x="81" y="623" on="1"/>
        <pt x="81" y="837" on="0"/>
        <pt x="240" y="1201" on="0"/>
        <pt x="552" y="1419" on="0"/>
      </contour>
      <contour>
        <pt x="790" y="124" on="1"/>
        <pt x="852" y="124" on="0"/>
        <pt x="967" y="162" on="0"/>
        <pt x="1003" y="203" on="1"/>
        <pt x="1050" y="258" on="0"/>
        <pt x="1102" y="508" on="0"/>
        <pt x="1102" y="617" on="1"/>
        <pt x="1102" y="745" on="0"/>
        <pt x="1083" y="912" on="0"/>
        <pt x="1055" y="984" on="1"/>
        <pt x="1023" y="1066" on="0"/>
        <pt x="904" y="1191" on="0"/>
        <pt x="750" y="1260" on="0"/>
        <pt x="669" y="1260" on="1"/>
        <pt x="611" y="1260" on="0"/>
        <pt x="500" y="1228" on="0"/>
        <pt x="463" y="1192" on="1"/>
        <pt x="426" y="1155" on="0"/>
        <pt x="377" y="1006" on="0"/>
        <pt x="354" y="836" on="0"/>
        <pt x="354" y="766" on="1"/>
        <pt x="354" y="610" on="0"/>
        <pt x="399" y="374" on="0"/>
        <pt x="464" y="287" on="1"/>
        <pt x="521" y="211" on="0"/>
        <pt x="693" y="124" on="0"/>
      </contour>
    </TTGlyph>
    <TTGlyph name="Ograve" xMin="81" yMin="-35" xMax="1375" yMax="1795">
      <contour>
        <pt x="518" y="1795" on="1"/>
        <pt x="622" y="1795" on="1"/>
        <pt x="978" y="1599" on="1"/>
        <pt x="957" y="1491" on="1"/>
        <pt x="488" y="1636" on="1"/>
      </contour>
      <contour>
        <pt x="770" y="1419" on="1"/>
        <pt x="935" y="1419" on="0"/>
        <pt x="1211" y="1260" on="0"/>
        <pt x="1375" y="961" on="0"/>
        <pt x="1375" y="762" on="1"/>
        <pt x="1375" y="546" on="0"/>
        <pt x="1211" y="182" on="0"/>
        <pt x="904" y="-35" on="0"/>
        <pt x="699" y="-35" on="1"/>
        <pt x="525" y="-35" on="0"/>
        <pt x="243" y="124" on="0"/>
        <pt x="81" y="422" on="0"/>
        <pt x="81" y="623" on="1"/>
        <pt x="81" y="837" on="0"/>
        <pt x="240" y="1201" on="0"/>
        <pt x="552" y="1419" on="0"/>
      </contour>
      <contour>
        <pt x="790" y="124" on="1"/>
        <pt x="852" y="124" on="0"/>
        <pt x="967" y="162" on="0"/>
        <pt x="1003" y="203" on="1"/>
        <pt x="1050" y="258" on="0"/>
        <pt x="1102" y="508" on="0"/>
        <pt x="1102" y="617" on="1"/>
        <pt x="1102" y="745" on="0"/>
        <pt x="1083" y="912" on="0"/>
        <pt x="1055" y="984" on="1"/>
        <pt x="1023" y="1066" on="0"/>
        <pt x="904" y="1191" on="0"/>
        <pt x="750" y="1260" on="0"/>
        <pt x="669" y="1260" on="1"/>
        <pt x="611" y="1260" on="0"/>
        <pt x="500" y="1228" on="0"/>
        <pt x="463" y="1192" on="1"/>
        <pt x="426" y="1155" on="0"/>
        <pt x="377" y="1006" on="0"/>
        <pt x="354" y="836" on="0"/>
        <pt x="354" y="766" on="1"/>
        <pt x="354" y="610" on="0"/>
        <pt x="399" y="374" on="0"/>
        <pt x="464" y="287" on="1"/>
        <pt x="521" y="211" on="0"/>
        <pt x="693" y="124" on="0"/>
      </contour>
    </TTGlyph>
    <TTGlyph name="Ohm" xMin="66" yMin="0" xMax="1587" yMax="1419">
      <contour>
        <pt x="321" y="163" on="1"/>
        <pt x="570" y="134" on="1"/>
        <pt x="472" y="226" on="0"/>
        <pt x="308" y="455" on="0"/>
        <pt x="206" y="714" on="0"/>
        <pt x="206" y="842" on="1"/>
        <pt x="206" y="1010" on="0"/>
        <pt x="359" y="1272" on="0"/>
        <pt x="641" y="1419" on="0"/>
        <pt x="828" y="1419" on="1"/>
        <pt x="1016" y="1419" on="0"/>
        <pt x="1298" y="1272" on="0"/>
        <pt x="1450" y="1010" on="0"/>
        <pt x="1450" y="842" on="1"/>
        <pt x="1450" y="714" on="0"/>
        <pt x="1352" y="454" on="0"/>
        <pt x="1192" y="225" on="0"/>
        <pt x="1096" y="134" on="1"/>
        <pt x="1334" y="163" on="1"/>
        <pt x="1475" y="378" on="1"/>
        <pt x="1587" y="355" on="1"/>
        <pt x="1496" y="0" on="1"/>
        <pt x="986" y="0" on="1"/>
        <pt x="942" y="159" on="1"/>
        <pt x="1013" y="254" on="0"/>
        <pt x="1128" y="486" on="0"/>
        <pt x="1192" y="713" on="0"/>
        <pt x="1192" y="801" on="1"/>
        <pt x="1192" y="1040" on="0"/>
        <pt x="988" y="1248" on="0"/>
        <pt x="827" y="1248" on="1"/>
        <pt x="667" y="1248" on="0"/>
        <pt x="464" y="1040" on="0"/>
        <pt x="464" y="801" on="1"/>
        <pt x="464" y="713" on="0"/>
        <pt x="527" y="488" on="0"/>
        <pt x="641" y="255" on="0"/>
        <pt x="715" y="156" on="1"/>
        <pt x="671" y="0" on="1"/>
        <pt x="169" y="0" on="1"/>
        <pt x="66" y="356" on="1"/>
        <pt x="178" y="375" on="1"/>
      </contour>
    </TTGlyph>
    <TTGlyph name="Ohungarumlaut" xMin="81" yMin="-35" xMax="1375" yMax="1808">
      <contour>
        <pt x="783" y="1808" on="1"/>
        <pt x="803" y="1705" on="1"/>
        <pt x="516" y="1464" on="1"/>
        <pt x="462" y="1603" on="1"/>
        <pt x="642" y="1808" on="1"/>
      </contour>
      <contour>
        <pt x="1111" y="1808" on="1"/>
        <pt x="1131" y="1705" on="1"/>
        <pt x="845" y="1464" on="1"/>
        <pt x="790" y="1603" on="1"/>
        <pt x="970" y="1808" on="1"/>
      </contour>
      <contour>
        <pt x="770" y="1419" on="1"/>
        <pt x="935" y="1419" on="0"/>
        <pt x="1211" y="1260" on="0"/>
        <pt x="1375" y="961" on="0"/>
        <pt x="1375" y="762" on="1"/>
        <pt x="1375" y="546" on="0"/>
        <pt x="1211" y="182" on="0"/>
        <pt x="904" y="-35" on="0"/>
        <pt x="699" y="-35" on="1"/>
        <pt x="525" y="-35" on="0"/>
        <pt x="243" y="124" on="0"/>
        <pt x="81" y="422" on="0"/>
        <pt x="81" y="623" on="1"/>
        <pt x="81" y="837" on="0"/>
        <pt x="240" y="1201" on="0"/>
        <pt x="552" y="1419" on="0"/>
      </contour>
      <contour>
        <pt x="790" y="124" on="1"/>
        <pt x="852" y="124" on="0"/>
        <pt x="967" y="162" on="0"/>
        <pt x="1003" y="203" on="1"/>
        <pt x="1050" y="258" on="0"/>
        <pt x="1102" y="508" on="0"/>
        <pt x="1102" y="617" on="1"/>
        <pt x="1102" y="745" on="0"/>
        <pt x="1083" y="912" on="0"/>
        <pt x="1055" y="984" on="1"/>
        <pt x="1023" y="1066" on="0"/>
        <pt x="904" y="1191" on="0"/>
        <pt x="750" y="1260" on="0"/>
        <pt x="669" y="1260" on="1"/>
        <pt x="611" y="1260" on="0"/>
        <pt x="500" y="1228" on="0"/>
        <pt x="463" y="1192" on="1"/>
        <pt x="426" y="1155" on="0"/>
        <pt x="377" y="1006" on="0"/>
        <pt x="354" y="836" on="0"/>
        <pt x="354" y="766" on="1"/>
        <pt x="354" y="610" on="0"/>
        <pt x="399" y="374" on="0"/>
        <pt x="464" y="287" on="1"/>
        <pt x="521" y="211" on="0"/>
        <pt x="693" y="124" on="0"/>
      </contour>
    </TTGlyph>
    <TTGlyph name="Omacron" xMin="81" yMin="-35" xMax="1375" yMax="1690">
      <contour>
        <pt x="1029" y="1690" on="1"/>
        <pt x="1002" y="1547" on="1"/>
        <pt x="891" y="1541" on="0"/>
        <pt x="559" y="1535" on="0"/>
        <pt x="436" y="1535" on="1"/>
        <pt x="467" y="1690" on="1"/>
      </contour>
      <contour>
        <pt x="770" y="1419" on="1"/>
        <pt x="935" y="1419" on="0"/>
        <pt x="1211" y="1260" on="0"/>
        <pt x="1375" y="961" on="0"/>
        <pt x="1375" y="762" on="1"/>
        <pt x="1375" y="546" on="0"/>
        <pt x="1211" y="182" on="0"/>
        <pt x="904" y="-35" on="0"/>
        <pt x="699" y="-35" on="1"/>
        <pt x="525" y="-35" on="0"/>
        <pt x="243" y="124" on="0"/>
        <pt x="81" y="422" on="0"/>
        <pt x="81" y="623" on="1"/>
        <pt x="81" y="837" on="0"/>
        <pt x="240" y="1201" on="0"/>
        <pt x="552" y="1419" on="0"/>
      </contour>
      <contour>
        <pt x="790" y="124" on="1"/>
        <pt x="852" y="124" on="0"/>
        <pt x="967" y="162" on="0"/>
        <pt x="1003" y="203" on="1"/>
        <pt x="1050" y="258" on="0"/>
        <pt x="1102" y="508" on="0"/>
        <pt x="1102" y="617" on="1"/>
        <pt x="1102" y="745" on="0"/>
        <pt x="1083" y="912" on="0"/>
        <pt x="1055" y="984" on="1"/>
        <pt x="1023" y="1066" on="0"/>
        <pt x="904" y="1191" on="0"/>
        <pt x="750" y="1260" on="0"/>
        <pt x="669" y="1260" on="1"/>
        <pt x="611" y="1260" on="0"/>
        <pt x="500" y="1228" on="0"/>
        <pt x="463" y="1192" on="1"/>
        <pt x="426" y="1155" on="0"/>
        <pt x="377" y="1006" on="0"/>
        <pt x="354" y="836" on="0"/>
        <pt x="354" y="766" on="1"/>
        <pt x="354" y="610" on="0"/>
        <pt x="399" y="374" on="0"/>
        <pt x="464" y="287" on="1"/>
        <pt x="521" y="211" on="0"/>
        <pt x="693" y="124" on="0"/>
      </contour>
    </TTGlyph>
    <TTGlyph name="Oslash" xMin="81" yMin="-167" xMax="1375" yMax="1514">
      <contour>
        <pt x="1375" y="762" on="1"/>
        <pt x="1375" y="546" on="0"/>
        <pt x="1211" y="182" on="0"/>
        <pt x="904" y="-35" on="0"/>
        <pt x="699" y="-35" on="1"/>
        <pt x="620" y="-35" on="0"/>
        <pt x="552" y="-19" on="1"/>
        <pt x="491" y="-167" on="1"/>
        <pt x="316" y="-117" on="1"/>
        <pt x="383" y="45" on="1"/>
        <pt x="242" y="125" on="0"/>
        <pt x="81" y="423" on="0"/>
        <pt x="81" y="623" on="1"/>
        <pt x="81" y="837" on="0"/>
        <pt x="240" y="1201" on="0"/>
        <pt x="552" y="1419" on="0"/>
        <pt x="770" y="1419" on="1"/>
        <pt x="860" y="1419" on="0"/>
        <pt x="942" y="1395" on="1"/>
        <pt x="991" y="1514" on="1"/>
        <pt x="1165" y="1463" on="1"/>
        <pt x="1105" y="1319" on="1"/>
        <pt x="1230" y="1235" on="0"/>
        <pt x="1375" y="948" on="0"/>
      </contour>
      <contour>
        <pt x="470" y="256" on="1"/>
        <pt x="869" y="1218" on="1"/>
        <pt x="779" y="1264" on="0"/>
        <pt x="677" y="1264" on="1"/>
        <pt x="619" y="1264" on="0"/>
        <pt x="500" y="1229" on="0"/>
        <pt x="463" y="1192" on="1"/>
        <pt x="426" y="1155" on="0"/>
        <pt x="377" y="1005" on="0"/>
        <pt x="354" y="835" on="0"/>
        <pt x="354" y="766" on="1"/>
        <pt x="354" y="601" on="0"/>
        <pt x="391" y="365" on="0"/>
        <pt x="451" y="280" on="1"/>
      </contour>
      <contour>
        <pt x="1102" y="617" on="1"/>
        <pt x="1102" y="761" on="0"/>
        <pt x="1087" y="939" on="0"/>
        <pt x="1060" y="1010" on="1"/>
        <pt x="1043" y="1053" on="0"/>
        <pt x="1014" y="1097" on="1"/>
        <pt x="622" y="150" on="1"/>
        <pt x="701" y="120" on="0"/>
        <pt x="783" y="120" on="1"/>
        <pt x="846" y="120" on="0"/>
        <pt x="966" y="160" on="0"/>
        <pt x="1003" y="204" on="1"/>
        <pt x="1050" y="260" on="0"/>
        <pt x="1102" y="509" on="0"/>
      </contour>
    </TTGlyph>
    <TTGlyph name="Otilde" xMin="81" yMin="-35" xMax="1375" yMax="1815">
      <contour>
        <pt x="614" y="1815" on="1"/>
        <pt x="662" y="1815" on="0"/>
        <pt x="741" y="1770" on="0"/>
        <pt x="790" y="1730" on="1"/>
        <pt x="818" y="1707" on="0"/>
        <pt x="853" y="1684" on="0"/>
        <pt x="868" y="1684" on="1"/>
        <pt x="897" y="1684" on="0"/>
        <pt x="1012" y="1747" on="0"/>
        <pt x="1068" y="1793" on="1"/>
        <pt x="1088" y="1668" on="1"/>
        <pt x="1022" y="1595" on="0"/>
        <pt x="916" y="1518" on="0"/>
        <pt x="853" y="1518" on="1"/>
        <pt x="805" y="1518" on="0"/>
        <pt x="727" y="1562" on="0"/>
        <pt x="680" y="1602" on="1"/>
        <pt x="649" y="1627" on="0"/>
        <pt x="616" y="1648" on="0"/>
        <pt x="601" y="1648" on="1"/>
        <pt x="569" y="1648" on="0"/>
        <pt x="450" y="1585" on="0"/>
        <pt x="403" y="1539" on="1"/>
        <pt x="379" y="1663" on="1"/>
        <pt x="424" y="1713" on="0"/>
        <pt x="492" y="1775" on="0"/>
        <pt x="570" y="1815" on="0"/>
      </contour>
      <contour>
        <pt x="770" y="1419" on="1"/>
        <pt x="935" y="1419" on="0"/>
        <pt x="1211" y="1260" on="0"/>
        <pt x="1375" y="961" on="0"/>
        <pt x="1375" y="762" on="1"/>
        <pt x="1375" y="546" on="0"/>
        <pt x="1211" y="182" on="0"/>
        <pt x="904" y="-35" on="0"/>
        <pt x="699" y="-35" on="1"/>
        <pt x="525" y="-35" on="0"/>
        <pt x="243" y="124" on="0"/>
        <pt x="81" y="422" on="0"/>
        <pt x="81" y="623" on="1"/>
        <pt x="81" y="837" on="0"/>
        <pt x="240" y="1201" on="0"/>
        <pt x="552" y="1419" on="0"/>
      </contour>
      <contour>
        <pt x="790" y="124" on="1"/>
        <pt x="852" y="124" on="0"/>
        <pt x="967" y="162" on="0"/>
        <pt x="1003" y="203" on="1"/>
        <pt x="1050" y="258" on="0"/>
        <pt x="1102" y="508" on="0"/>
        <pt x="1102" y="617" on="1"/>
        <pt x="1102" y="745" on="0"/>
        <pt x="1083" y="912" on="0"/>
        <pt x="1055" y="984" on="1"/>
        <pt x="1023" y="1066" on="0"/>
        <pt x="904" y="1191" on="0"/>
        <pt x="750" y="1260" on="0"/>
        <pt x="669" y="1260" on="1"/>
        <pt x="611" y="1260" on="0"/>
        <pt x="500" y="1228" on="0"/>
        <pt x="463" y="1192" on="1"/>
        <pt x="426" y="1155" on="0"/>
        <pt x="377" y="1006" on="0"/>
        <pt x="354" y="836" on="0"/>
        <pt x="354" y="766" on="1"/>
        <pt x="354" y="610" on="0"/>
        <pt x="399" y="374" on="0"/>
        <pt x="464" y="287" on="1"/>
        <pt x="521" y="211" on="0"/>
        <pt x="693" y="124" on="0"/>
      </contour>
    </TTGlyph>
    <TTGlyph name="P" xMin="60" yMin="0" xMax="1187" yMax="1384">
      <contour>
        <pt x="256" y="1236" on="1"/>
        <pt x="68" y="1302" on="1"/>
        <pt x="85" y="1384" on="1"/>
        <pt x="539" y="1384" on="1"/>
        <pt x="658" y="1384" on="0"/>
        <pt x="818" y="1374" on="0"/>
        <pt x="977" y="1333" on="0"/>
        <pt x="1039" y="1290" on="1"/>
        <pt x="1108" y="1242" on="0"/>
        <pt x="1187" y="1081" on="0"/>
        <pt x="1187" y="975" on="1"/>
        <pt x="1187" y="880" on="0"/>
        <pt x="1107" y="727" on="0"/>
        <pt x="1035" y="676" on="1"/>
        <pt x="959" y="622" on="0"/>
        <pt x="744" y="573" on="0"/>
        <pt x="640" y="573" on="1"/>
        <pt x="652" y="639" on="1"/>
        <pt x="758" y="689" on="0"/>
        <pt x="869" y="772" on="0"/>
        <pt x="921" y="888" on="0"/>
        <pt x="921" y="982" on="1"/>
        <pt x="921" y="1149" on="0"/>
        <pt x="696" y="1301" on="0"/>
        <pt x="516" y="1303" on="1"/>
        <pt x="516" y="148" on="1"/>
        <pt x="757" y="82" on="1"/>
        <pt x="741" y="0" on="1"/>
        <pt x="60" y="0" on="1"/>
        <pt x="78" y="85" on="1"/>
        <pt x="256" y="149" on="1"/>
      </contour>
    </TTGlyph>
    <TTGlyph name="Q" xMin="81" yMin="-323" xMax="1375" yMax="1419">
      <contour>
        <pt x="1063" y="77" on="1"/>
        <pt x="1373" y="-257" on="1"/>
        <pt x="1337" y="-323" on="1"/>
        <pt x="1273" y="-323" on="0"/>
        <pt x="1085" y="-241" on="0"/>
        <pt x="887" y="-105" on="0"/>
        <pt x="809" y="-26" on="1"/>
        <pt x="757" y="-35" on="0"/>
        <pt x="699" y="-35" on="1"/>
        <pt x="525" y="-35" on="0"/>
        <pt x="243" y="124" on="0"/>
        <pt x="81" y="422" on="0"/>
        <pt x="81" y="623" on="1"/>
        <pt x="81" y="837" on="0"/>
        <pt x="240" y="1201" on="0"/>
        <pt x="552" y="1419" on="0"/>
        <pt x="770" y="1419" on="1"/>
        <pt x="935" y="1419" on="0"/>
        <pt x="1211" y="1260" on="0"/>
        <pt x="1375" y="961" on="0"/>
        <pt x="1375" y="762" on="1"/>
        <pt x="1375" y="546" on="0"/>
        <pt x="1211" y="182" on="0"/>
      </contour>
      <contour>
        <pt x="790" y="124" on="1"/>
        <pt x="852" y="124" on="0"/>
        <pt x="967" y="162" on="0"/>
        <pt x="1003" y="203" on="1"/>
        <pt x="1050" y="258" on="0"/>
        <pt x="1102" y="508" on="0"/>
        <pt x="1102" y="617" on="1"/>
        <pt x="1102" y="745" on="0"/>
        <pt x="1083" y="912" on="0"/>
        <pt x="1055" y="984" on="1"/>
        <pt x="1023" y="1066" on="0"/>
        <pt x="904" y="1191" on="0"/>
        <pt x="750" y="1260" on="0"/>
        <pt x="669" y="1260" on="1"/>
        <pt x="611" y="1260" on="0"/>
        <pt x="500" y="1228" on="0"/>
        <pt x="463" y="1192" on="1"/>
        <pt x="426" y="1155" on="0"/>
        <pt x="377" y="1006" on="0"/>
        <pt x="354" y="836" on="0"/>
        <pt x="354" y="766" on="1"/>
        <pt x="354" y="610" on="0"/>
        <pt x="399" y="374" on="0"/>
        <pt x="464" y="287" on="1"/>
        <pt x="521" y="211" on="0"/>
        <pt x="693" y="124" on="0"/>
      </contour>
    </TTGlyph>
    <TTGlyph name="R" xMin="62" yMin="0" xMax="1387" yMax="1384">
      <contour>
        <pt x="256" y="1236" on="1"/>
        <pt x="69" y="1302" on="1"/>
        <pt x="86" y="1384" on="1"/>
        <pt x="571" y="1384" on="1"/>
        <pt x="726" y="1384" on="0"/>
        <pt x="963" y="1346" on="0"/>
        <pt x="1055" y="1285" on="1"/>
        <pt x="1121" y="1241" on="0"/>
        <pt x="1197" y="1101" on="0"/>
        <pt x="1197" y="1016" on="1"/>
        <pt x="1197" y="889" on="0"/>
        <pt x="1049" y="717" on="0"/>
        <pt x="906" y="673" on="1"/>
        <pt x="1198" y="157" on="1"/>
        <pt x="1387" y="80" on="1"/>
        <pt x="1368" y="0" on="1"/>
        <pt x="938" y="0" on="1"/>
        <pt x="955" y="81" on="1"/>
        <pt x="642" y="685" on="1"/>
        <pt x="757" y="729" on="0"/>
        <pt x="883" y="836" on="0"/>
        <pt x="929" y="951" on="0"/>
        <pt x="929" y="1022" on="1"/>
        <pt x="929" y="1115" on="0"/>
        <pt x="806" y="1238" on="0"/>
        <pt x="618" y="1299" on="0"/>
        <pt x="515" y="1304" on="1"/>
        <pt x="515" y="161" on="1"/>
        <pt x="717" y="95" on="1"/>
        <pt x="694" y="0" on="1"/>
        <pt x="62" y="0" on="1"/>
        <pt x="77" y="84" on="1"/>
        <pt x="256" y="149" on="1"/>
      </contour>
    </TTGlyph>
    <TTGlyph name="Racute" xMin="62" yMin="0" xMax="1387" yMax="1795">
      <contour>
        <pt x="796" y="1795" on="1"/>
        <pt x="900" y="1795" on="1"/>
        <pt x="930" y="1636" on="1"/>
        <pt x="461" y="1491" on="1"/>
        <pt x="439" y="1598" on="1"/>
      </contour>
      <contour>
        <pt x="256" y="1236" on="1"/>
        <pt x="69" y="1302" on="1"/>
        <pt x="86" y="1384" on="1"/>
        <pt x="571" y="1384" on="1"/>
        <pt x="726" y="1384" on="0"/>
        <pt x="963" y="1346" on="0"/>
        <pt x="1055" y="1285" on="1"/>
        <pt x="1121" y="1241" on="0"/>
        <pt x="1197" y="1101" on="0"/>
        <pt x="1197" y="1016" on="1"/>
        <pt x="1197" y="889" on="0"/>
        <pt x="1049" y="717" on="0"/>
        <pt x="906" y="673" on="1"/>
        <pt x="1198" y="157" on="1"/>
        <pt x="1387" y="80" on="1"/>
        <pt x="1368" y="0" on="1"/>
        <pt x="938" y="0" on="1"/>
        <pt x="955" y="81" on="1"/>
        <pt x="642" y="685" on="1"/>
        <pt x="757" y="729" on="0"/>
        <pt x="883" y="836" on="0"/>
        <pt x="929" y="951" on="0"/>
        <pt x="929" y="1022" on="1"/>
        <pt x="929" y="1115" on="0"/>
        <pt x="806" y="1238" on="0"/>
        <pt x="618" y="1299" on="0"/>
        <pt x="515" y="1304" on="1"/>
        <pt x="515" y="161" on="1"/>
        <pt x="717" y="95" on="1"/>
        <pt x="694" y="0" on="1"/>
        <pt x="62" y="0" on="1"/>
        <pt x="77" y="84" on="1"/>
        <pt x="256" y="149" on="1"/>
      </contour>
    </TTGlyph>
    <TTGlyph name="Rcaron" xMin="62" yMin="0" xMax="1387" yMax="1807">
      <contour>
        <pt x="377" y="1807" on="1"/>
        <pt x="627" y="1679" on="1"/>
        <pt x="878" y="1807" on="1"/>
        <pt x="952" y="1737" on="1"/>
        <pt x="685" y="1515" on="1"/>
        <pt x="570" y="1515" on="1"/>
        <pt x="303" y="1737" on="1"/>
      </contour>
      <contour>
        <pt x="256" y="1236" on="1"/>
        <pt x="69" y="1302" on="1"/>
        <pt x="86" y="1384" on="1"/>
        <pt x="571" y="1384" on="1"/>
        <pt x="726" y="1384" on="0"/>
        <pt x="963" y="1346" on="0"/>
        <pt x="1055" y="1285" on="1"/>
        <pt x="1121" y="1241" on="0"/>
        <pt x="1197" y="1101" on="0"/>
        <pt x="1197" y="1016" on="1"/>
        <pt x="1197" y="889" on="0"/>
        <pt x="1049" y="717" on="0"/>
        <pt x="906" y="673" on="1"/>
        <pt x="1198" y="157" on="1"/>
        <pt x="1387" y="80" on="1"/>
        <pt x="1368" y="0" on="1"/>
        <pt x="938" y="0" on="1"/>
        <pt x="955" y="81" on="1"/>
        <pt x="642" y="685" on="1"/>
        <pt x="757" y="729" on="0"/>
        <pt x="883" y="836" on="0"/>
        <pt x="929" y="951" on="0"/>
        <pt x="929" y="1022" on="1"/>
        <pt x="929" y="1115" on="0"/>
        <pt x="806" y="1238" on="0"/>
        <pt x="618" y="1299" on="0"/>
        <pt x="515" y="1304" on="1"/>
        <pt x="515" y="161" on="1"/>
        <pt x="717" y="95" on="1"/>
        <pt x="694" y="0" on="1"/>
        <pt x="62" y="0" on="1"/>
        <pt x="77" y="84" on="1"/>
        <pt x="256" y="149" on="1"/>
      </contour>
    </TTGlyph>
    <TTGlyph name="Rcommaaccent" xMin="62" yMin="-506" xMax="1387" yMax="1384">
      <contour>
        <pt x="256" y="1236" on="1"/>
        <pt x="69" y="1302" on="1"/>
        <pt x="86" y="1384" on="1"/>
        <pt x="571" y="1384" on="1"/>
        <pt x="726" y="1384" on="0"/>
        <pt x="963" y="1346" on="0"/>
        <pt x="1055" y="1285" on="1"/>
        <pt x="1121" y="1241" on="0"/>
        <pt x="1197" y="1101" on="0"/>
        <pt x="1197" y="1016" on="1"/>
        <pt x="1197" y="889" on="0"/>
        <pt x="1049" y="717" on="0"/>
        <pt x="906" y="673" on="1"/>
        <pt x="1198" y="157" on="1"/>
        <pt x="1387" y="80" on="1"/>
        <pt x="1368" y="0" on="1"/>
        <pt x="938" y="0" on="1"/>
        <pt x="955" y="81" on="1"/>
        <pt x="642" y="685" on="1"/>
        <pt x="757" y="729" on="0"/>
        <pt x="883" y="836" on="0"/>
        <pt x="929" y="951" on="0"/>
        <pt x="929" y="1022" on="1"/>
        <pt x="929" y="1115" on="0"/>
        <pt x="806" y="1238" on="0"/>
        <pt x="618" y="1299" on="0"/>
        <pt x="515" y="1304" on="1"/>
        <pt x="515" y="161" on="1"/>
        <pt x="717" y="95" on="1"/>
        <pt x="694" y="0" on="1"/>
        <pt x="62" y="0" on="1"/>
        <pt x="77" y="84" on="1"/>
        <pt x="256" y="149" on="1"/>
      </contour>
      <contour>
        <pt x="776" y="-161" on="1"/>
        <pt x="832" y="-212" on="0"/>
        <pt x="832" y="-283" on="1"/>
        <pt x="832" y="-352" on="0"/>
        <pt x="743" y="-453" on="0"/>
        <pt x="622" y="-506" on="0"/>
        <pt x="579" y="-506" on="1"/>
        <pt x="558" y="-447" on="1"/>
        <pt x="632" y="-396" on="0"/>
        <pt x="686" y="-339" on="0"/>
        <pt x="686" y="-312" on="1"/>
        <pt x="684" y="-264" on="0"/>
        <pt x="570" y="-235" on="1"/>
        <pt x="603" y="-99" on="1"/>
        <pt x="652" y="-100" on="0"/>
        <pt x="742" y="-131" on="0"/>
      </contour>
    </TTGlyph>
    <TTGlyph name="S" xMin="60" yMin="-35" xMax="1024" yMax="1419">
      <contour>
        <pt x="693" y="1292" on="1"/>
        <pt x="580" y="1288" on="0"/>
        <pt x="411" y="1221" on="0"/>
        <pt x="383" y="1178" on="1"/>
        <pt x="374" y="1162" on="0"/>
        <pt x="363" y="1112" on="0"/>
        <pt x="363" y="1087" on="1"/>
        <pt x="363" y="1028" on="0"/>
        <pt x="429" y="942" on="0"/>
        <pt x="556" y="868" on="0"/>
        <pt x="676" y="815" on="1"/>
        <pt x="787" y="766" on="0"/>
        <pt x="933" y="669" on="0"/>
        <pt x="1024" y="521" on="0"/>
        <pt x="1024" y="413" on="1"/>
        <pt x="1024" y="279" on="0"/>
        <pt x="887" y="76" on="0"/>
        <pt x="639" y="-35" on="0"/>
        <pt x="476" y="-35" on="1"/>
        <pt x="352" y="-35" on="0"/>
        <pt x="129" y="34" on="0"/>
        <pt x="60" y="84" on="1"/>
        <pt x="138" y="415" on="1"/>
        <pt x="258" y="387" on="1"/>
        <pt x="282" y="115" on="1"/>
        <pt x="324" y="114" on="1"/>
        <pt x="344" y="114" on="0"/>
        <pt x="386" y="116" on="1"/>
        <pt x="490" y="121" on="0"/>
        <pt x="674" y="173" on="0"/>
        <pt x="713" y="220" on="1"/>
        <pt x="733" y="243" on="0"/>
        <pt x="753" y="309" on="0"/>
        <pt x="753" y="346" on="1"/>
        <pt x="753" y="408" on="0"/>
        <pt x="694" y="493" on="0"/>
        <pt x="591" y="556" on="0"/>
        <pt x="487" y="607" on="1"/>
        <pt x="483" y="609" on="0"/>
        <pt x="464" y="618" on="1"/>
        <pt x="350" y="671" on="0"/>
        <pt x="206" y="772" on="0"/>
        <pt x="118" y="925" on="0"/>
        <pt x="118" y="1036" on="1"/>
        <pt x="118" y="1152" on="0"/>
        <pt x="252" y="1326" on="0"/>
        <pt x="484" y="1419" on="0"/>
        <pt x="628" y="1419" on="1"/>
        <pt x="721" y="1419" on="0"/>
        <pt x="847" y="1390" on="1"/>
        <pt x="954" y="1394" on="1"/>
        <pt x="989" y="1031" on="1"/>
        <pt x="876" y="1006" on="1"/>
        <pt x="747" y="1292" on="1"/>
        <pt x="735" y="1293" on="0"/>
        <pt x="701" y="1292" on="0"/>
      </contour>
    </TTGlyph>
    <TTGlyph name="Sacute" xMin="60" yMin="-35" xMax="1024" yMax="1795">
      <contour>
        <pt x="722" y="1795" on="1"/>
        <pt x="826" y="1795" on="1"/>
        <pt x="856" y="1636" on="1"/>
        <pt x="387" y="1491" on="1"/>
        <pt x="365" y="1598" on="1"/>
      </contour>
      <contour>
        <pt x="693" y="1292" on="1"/>
        <pt x="580" y="1288" on="0"/>
        <pt x="411" y="1221" on="0"/>
        <pt x="383" y="1178" on="1"/>
        <pt x="374" y="1162" on="0"/>
        <pt x="363" y="1112" on="0"/>
        <pt x="363" y="1087" on="1"/>
        <pt x="363" y="1028" on="0"/>
        <pt x="429" y="942" on="0"/>
        <pt x="556" y="868" on="0"/>
        <pt x="676" y="815" on="1"/>
        <pt x="787" y="766" on="0"/>
        <pt x="933" y="669" on="0"/>
        <pt x="1024" y="521" on="0"/>
        <pt x="1024" y="413" on="1"/>
        <pt x="1024" y="279" on="0"/>
        <pt x="887" y="76" on="0"/>
        <pt x="639" y="-35" on="0"/>
        <pt x="476" y="-35" on="1"/>
        <pt x="352" y="-35" on="0"/>
        <pt x="129" y="34" on="0"/>
        <pt x="60" y="84" on="1"/>
        <pt x="138" y="415" on="1"/>
        <pt x="258" y="387" on="1"/>
        <pt x="282" y="115" on="1"/>
        <pt x="324" y="114" on="1"/>
        <pt x="344" y="114" on="0"/>
        <pt x="386" y="116" on="1"/>
        <pt x="490" y="121" on="0"/>
        <pt x="674" y="173" on="0"/>
        <pt x="713" y="220" on="1"/>
        <pt x="733" y="243" on="0"/>
        <pt x="753" y="309" on="0"/>
        <pt x="753" y="346" on="1"/>
        <pt x="753" y="408" on="0"/>
        <pt x="694" y="493" on="0"/>
        <pt x="591" y="556" on="0"/>
        <pt x="487" y="607" on="1"/>
        <pt x="483" y="609" on="0"/>
        <pt x="464" y="618" on="1"/>
        <pt x="350" y="671" on="0"/>
        <pt x="206" y="772" on="0"/>
        <pt x="118" y="925" on="0"/>
        <pt x="118" y="1036" on="1"/>
        <pt x="118" y="1152" on="0"/>
        <pt x="252" y="1326" on="0"/>
        <pt x="484" y="1419" on="0"/>
        <pt x="628" y="1419" on="1"/>
        <pt x="721" y="1419" on="0"/>
        <pt x="847" y="1390" on="1"/>
        <pt x="954" y="1394" on="1"/>
        <pt x="989" y="1031" on="1"/>
        <pt x="876" y="1006" on="1"/>
        <pt x="747" y="1292" on="1"/>
        <pt x="735" y="1293" on="0"/>
        <pt x="701" y="1292" on="0"/>
      </contour>
    </TTGlyph>
    <TTGlyph name="Scaron" xMin="60" yMin="-35" xMax="1024" yMax="1807">
      <contour>
        <pt x="303" y="1807" on="1"/>
        <pt x="553" y="1679" on="1"/>
        <pt x="804" y="1807" on="1"/>
        <pt x="878" y="1737" on="1"/>
        <pt x="611" y="1515" on="1"/>
        <pt x="496" y="1515" on="1"/>
        <pt x="229" y="1737" on="1"/>
      </contour>
      <contour>
        <pt x="693" y="1292" on="1"/>
        <pt x="580" y="1288" on="0"/>
        <pt x="411" y="1221" on="0"/>
        <pt x="383" y="1178" on="1"/>
        <pt x="374" y="1162" on="0"/>
        <pt x="363" y="1112" on="0"/>
        <pt x="363" y="1087" on="1"/>
        <pt x="363" y="1028" on="0"/>
        <pt x="429" y="942" on="0"/>
        <pt x="556" y="868" on="0"/>
        <pt x="676" y="815" on="1"/>
        <pt x="787" y="766" on="0"/>
        <pt x="933" y="669" on="0"/>
        <pt x="1024" y="521" on="0"/>
        <pt x="1024" y="413" on="1"/>
        <pt x="1024" y="279" on="0"/>
        <pt x="887" y="76" on="0"/>
        <pt x="639" y="-35" on="0"/>
        <pt x="476" y="-35" on="1"/>
        <pt x="352" y="-35" on="0"/>
        <pt x="129" y="34" on="0"/>
        <pt x="60" y="84" on="1"/>
        <pt x="138" y="415" on="1"/>
        <pt x="258" y="387" on="1"/>
        <pt x="282" y="115" on="1"/>
        <pt x="324" y="114" on="1"/>
        <pt x="344" y="114" on="0"/>
        <pt x="386" y="116" on="1"/>
        <pt x="490" y="121" on="0"/>
        <pt x="674" y="173" on="0"/>
        <pt x="713" y="220" on="1"/>
        <pt x="733" y="243" on="0"/>
        <pt x="753" y="309" on="0"/>
        <pt x="753" y="346" on="1"/>
        <pt x="753" y="408" on="0"/>
        <pt x="694" y="493" on="0"/>
        <pt x="591" y="556" on="0"/>
        <pt x="487" y="607" on="1"/>
        <pt x="483" y="609" on="0"/>
        <pt x="464" y="618" on="1"/>
        <pt x="350" y="671" on="0"/>
        <pt x="206" y="772" on="0"/>
        <pt x="118" y="925" on="0"/>
        <pt x="118" y="1036" on="1"/>
        <pt x="118" y="1152" on="0"/>
        <pt x="252" y="1326" on="0"/>
        <pt x="484" y="1419" on="0"/>
        <pt x="628" y="1419" on="1"/>
        <pt x="721" y="1419" on="0"/>
        <pt x="847" y="1390" on="1"/>
        <pt x="954" y="1394" on="1"/>
        <pt x="989" y="1031" on="1"/>
        <pt x="876" y="1006" on="1"/>
        <pt x="747" y="1292" on="1"/>
        <pt x="735" y="1293" on="0"/>
        <pt x="701" y="1292" on="0"/>
      </contour>
    </TTGlyph>
    <TTGlyph name="Scedilla" xMin="60" yMin="-500" xMax="1024" yMax="1419">
      <contour>
        <pt x="586" y="-28" on="1"/>
        <pt x="555" y="-106" on="1"/>
        <pt x="640" y="-115" on="0"/>
        <pt x="762" y="-200" on="0"/>
        <pt x="762" y="-269" on="1"/>
        <pt x="762" y="-348" on="0"/>
        <pt x="641" y="-452" on="0"/>
        <pt x="457" y="-500" on="0"/>
        <pt x="359" y="-500" on="1"/>
        <pt x="344" y="-437" on="1"/>
        <pt x="491" y="-380" on="0"/>
        <pt x="589" y="-312" on="0"/>
        <pt x="589" y="-287" on="1"/>
        <pt x="589" y="-258" on="0"/>
        <pt x="473" y="-207" on="0"/>
        <pt x="371" y="-186" on="1"/>
        <pt x="398" y="-108" on="0"/>
        <pt x="465" y="-35" on="1"/>
        <pt x="344" y="-33" on="0"/>
        <pt x="127" y="36" on="0"/>
        <pt x="60" y="84" on="1"/>
        <pt x="138" y="415" on="1"/>
        <pt x="258" y="387" on="1"/>
        <pt x="282" y="115" on="1"/>
        <pt x="324" y="114" on="1"/>
        <pt x="344" y="114" on="0"/>
        <pt x="386" y="116" on="1"/>
        <pt x="490" y="121" on="0"/>
        <pt x="674" y="173" on="0"/>
        <pt x="713" y="220" on="1"/>
        <pt x="733" y="243" on="0"/>
        <pt x="753" y="309" on="0"/>
        <pt x="753" y="346" on="1"/>
        <pt x="753" y="408" on="0"/>
        <pt x="694" y="493" on="0"/>
        <pt x="591" y="556" on="0"/>
        <pt x="487" y="607" on="1"/>
        <pt x="483" y="609" on="0"/>
        <pt x="464" y="618" on="1"/>
        <pt x="350" y="671" on="0"/>
        <pt x="206" y="772" on="0"/>
        <pt x="118" y="925" on="0"/>
        <pt x="118" y="1036" on="1"/>
        <pt x="118" y="1152" on="0"/>
        <pt x="252" y="1326" on="0"/>
        <pt x="484" y="1419" on="0"/>
        <pt x="628" y="1419" on="1"/>
        <pt x="721" y="1419" on="0"/>
        <pt x="847" y="1390" on="1"/>
        <pt x="954" y="1394" on="1"/>
        <pt x="989" y="1031" on="1"/>
        <pt x="876" y="1006" on="1"/>
        <pt x="747" y="1292" on="1"/>
        <pt x="735" y="1293" on="0"/>
        <pt x="701" y="1292" on="0"/>
        <pt x="693" y="1292" on="1"/>
        <pt x="580" y="1288" on="0"/>
        <pt x="411" y="1221" on="0"/>
        <pt x="383" y="1178" on="1"/>
        <pt x="374" y="1162" on="0"/>
        <pt x="363" y="1112" on="0"/>
        <pt x="363" y="1087" on="1"/>
        <pt x="363" y="1028" on="0"/>
        <pt x="429" y="942" on="0"/>
        <pt x="556" y="868" on="0"/>
        <pt x="676" y="815" on="1"/>
        <pt x="787" y="766" on="0"/>
        <pt x="933" y="669" on="0"/>
        <pt x="1024" y="521" on="0"/>
        <pt x="1024" y="413" on="1"/>
        <pt x="1024" y="294" on="0"/>
        <pt x="917" y="107" on="0"/>
        <pt x="719" y="-11" on="0"/>
      </contour>
    </TTGlyph>
    <TTGlyph name="Scommaaccent" xMin="60" yMin="-506" xMax="1024" yMax="1419">
      <contour>
        <pt x="693" y="1292" on="1"/>
        <pt x="580" y="1288" on="0"/>
        <pt x="411" y="1221" on="0"/>
        <pt x="383" y="1178" on="1"/>
        <pt x="374" y="1162" on="0"/>
        <pt x="363" y="1112" on="0"/>
        <pt x="363" y="1087" on="1"/>
        <pt x="363" y="1028" on="0"/>
        <pt x="429" y="942" on="0"/>
        <pt x="556" y="868" on="0"/>
        <pt x="676" y="815" on="1"/>
        <pt x="787" y="766" on="0"/>
        <pt x="933" y="669" on="0"/>
        <pt x="1024" y="521" on="0"/>
        <pt x="1024" y="413" on="1"/>
        <pt x="1024" y="279" on="0"/>
        <pt x="887" y="76" on="0"/>
        <pt x="639" y="-35" on="0"/>
        <pt x="476" y="-35" on="1"/>
        <pt x="352" y="-35" on="0"/>
        <pt x="129" y="34" on="0"/>
        <pt x="60" y="84" on="1"/>
        <pt x="138" y="415" on="1"/>
        <pt x="258" y="387" on="1"/>
        <pt x="282" y="115" on="1"/>
        <pt x="324" y="114" on="1"/>
        <pt x="344" y="114" on="0"/>
        <pt x="386" y="116" on="1"/>
        <pt x="490" y="121" on="0"/>
        <pt x="674" y="173" on="0"/>
        <pt x="713" y="220" on="1"/>
        <pt x="733" y="243" on="0"/>
        <pt x="753" y="309" on="0"/>
        <pt x="753" y="346" on="1"/>
        <pt x="753" y="408" on="0"/>
        <pt x="694" y="493" on="0"/>
        <pt x="591" y="556" on="0"/>
        <pt x="487" y="607" on="1"/>
        <pt x="483" y="609" on="0"/>
        <pt x="464" y="618" on="1"/>
        <pt x="350" y="671" on="0"/>
        <pt x="206" y="772" on="0"/>
        <pt x="118" y="925" on="0"/>
        <pt x="118" y="1036" on="1"/>
        <pt x="118" y="1152" on="0"/>
        <pt x="252" y="1326" on="0"/>
        <pt x="484" y="1419" on="0"/>
        <pt x="628" y="1419" on="1"/>
        <pt x="721" y="1419" on="0"/>
        <pt x="847" y="1390" on="1"/>
        <pt x="954" y="1394" on="1"/>
        <pt x="989" y="1031" on="1"/>
        <pt x="876" y="1006" on="1"/>
        <pt x="747" y="1292" on="1"/>
        <pt x="735" y="1293" on="0"/>
        <pt x="701" y="1292" on="0"/>
      </contour>
      <contour>
        <pt x="629" y="-161" on="1"/>
        <pt x="685" y="-212" on="0"/>
        <pt x="685" y="-283" on="1"/>
        <pt x="685" y="-352" on="0"/>
        <pt x="596" y="-453" on="0"/>
        <pt x="475" y="-506" on="0"/>
        <pt x="432" y="-506" on="1"/>
        <pt x="411" y="-447" on="1"/>
        <pt x="485" y="-396" on="0"/>
        <pt x="539" y="-339" on="0"/>
        <pt x="539" y="-312" on="1"/>
        <pt x="537" y="-264" on="0"/>
        <pt x="423" y="-235" on="1"/>
        <pt x="456" y="-99" on="1"/>
        <pt x="505" y="-100" on="0"/>
        <pt x="595" y="-131" on="0"/>
      </contour>
    </TTGlyph>
    <TTGlyph name="T" xMin="8" yMin="0" xMax="1375" yMax="1397">
      <contour>
        <pt x="566" y="1288" on="1"/>
        <pt x="256" y="1247" on="1"/>
        <pt x="119" y="996" on="1"/>
        <pt x="8" y="1018" on="1"/>
        <pt x="90" y="1393" on="1"/>
        <pt x="222" y="1384" on="1"/>
        <pt x="1205" y="1384" on="1"/>
        <pt x="1332" y="1397" on="1"/>
        <pt x="1375" y="1015" on="1"/>
        <pt x="1262" y="990" on="1"/>
        <pt x="1144" y="1246" on="1"/>
        <pt x="822" y="1289" on="1"/>
        <pt x="822" y="153" on="1"/>
        <pt x="1049" y="90" on="1"/>
        <pt x="1031" y="0" on="1"/>
        <pt x="350" y="0" on="1"/>
        <pt x="368" y="90" on="1"/>
        <pt x="566" y="154" on="1"/>
      </contour>
    </TTGlyph>
    <TTGlyph name="Tcaron" xMin="8" yMin="0" xMax="1375" yMax="1807">
      <contour>
        <pt x="448" y="1807" on="1"/>
        <pt x="698" y="1679" on="1"/>
        <pt x="949" y="1807" on="1"/>
        <pt x="1023" y="1737" on="1"/>
        <pt x="756" y="1515" on="1"/>
        <pt x="641" y="1515" on="1"/>
        <pt x="374" y="1737" on="1"/>
      </contour>
      <contour>
        <pt x="566" y="1288" on="1"/>
        <pt x="256" y="1247" on="1"/>
        <pt x="119" y="996" on="1"/>
        <pt x="8" y="1018" on="1"/>
        <pt x="90" y="1393" on="1"/>
        <pt x="222" y="1384" on="1"/>
        <pt x="1205" y="1384" on="1"/>
        <pt x="1332" y="1397" on="1"/>
        <pt x="1375" y="1015" on="1"/>
        <pt x="1262" y="990" on="1"/>
        <pt x="1144" y="1246" on="1"/>
        <pt x="822" y="1289" on="1"/>
        <pt x="822" y="153" on="1"/>
        <pt x="1049" y="90" on="1"/>
        <pt x="1031" y="0" on="1"/>
        <pt x="350" y="0" on="1"/>
        <pt x="368" y="90" on="1"/>
        <pt x="566" y="154" on="1"/>
      </contour>
    </TTGlyph>
    <TTGlyph name="Thorn" xMin="61" yMin="0" xMax="1187" yMax="1384">
      <contour>
        <pt x="1187" y="735" on="1"/>
        <pt x="1187" y="640" on="0"/>
        <pt x="1107" y="485" on="0"/>
        <pt x="1035" y="436" on="1"/>
        <pt x="957" y="382" on="0"/>
        <pt x="746" y="332" on="0"/>
        <pt x="639" y="332" on="1"/>
        <pt x="652" y="400" on="1"/>
        <pt x="757" y="446" on="0"/>
        <pt x="870" y="533" on="0"/>
        <pt x="921" y="652" on="0"/>
        <pt x="921" y="745" on="1"/>
        <pt x="921" y="909" on="0"/>
        <pt x="698" y="1059" on="0"/>
        <pt x="515" y="1063" on="1"/>
        <pt x="515" y="150" on="1"/>
        <pt x="748" y="83" on="1"/>
        <pt x="729" y="0" on="1"/>
        <pt x="61" y="0" on="1"/>
        <pt x="78" y="86" on="1"/>
        <pt x="256" y="150" on="1"/>
        <pt x="256" y="1236" on="1"/>
        <pt x="68" y="1302" on="1"/>
        <pt x="85" y="1384" on="1"/>
        <pt x="712" y="1384" on="1"/>
        <pt x="697" y="1300" on="1"/>
        <pt x="515" y="1234" on="1"/>
        <pt x="515" y="1144" on="1"/>
        <pt x="661" y="1143" on="0"/>
        <pt x="857" y="1127" on="0"/>
        <pt x="1017" y="1075" on="0"/>
        <pt x="1074" y="1025" on="1"/>
        <pt x="1187" y="925" on="0"/>
      </contour>
    </TTGlyph>
    <TTGlyph name="U" xMin="44" yMin="-35" xMax="1480" yMax="1384">
      <contour>
        <pt x="851" y="124" on="1"/>
        <pt x="913" y="124" on="0"/>
        <pt x="1015" y="160" on="0"/>
        <pt x="1050" y="196" on="1"/>
        <pt x="1139" y="286" on="0"/>
        <pt x="1139" y="477" on="1"/>
        <pt x="1139" y="1234" on="1"/>
        <pt x="942" y="1302" on="1"/>
        <pt x="959" y="1384" on="1"/>
        <pt x="1480" y="1384" on="1"/>
        <pt x="1464" y="1299" on="1"/>
        <pt x="1311" y="1232" on="1"/>
        <pt x="1311" y="494" on="1"/>
        <pt x="1311" y="328" on="0"/>
        <pt x="1180" y="91" on="0"/>
        <pt x="926" y="-35" on="0"/>
        <pt x="745" y="-35" on="1"/>
        <pt x="481" y="-35" on="0"/>
        <pt x="215" y="230" on="0"/>
        <pt x="215" y="469" on="1"/>
        <pt x="215" y="1236" on="1"/>
        <pt x="44" y="1303" on="1"/>
        <pt x="61" y="1384" on="1"/>
        <pt x="684" y="1384" on="1"/>
        <pt x="662" y="1282" on="1"/>
        <pt x="471" y="1225" on="1"/>
        <pt x="471" y="536" on="1"/>
        <pt x="471" y="417" on="0"/>
        <pt x="564" y="230" on="0"/>
        <pt x="736" y="124" on="0"/>
      </contour>
    </TTGlyph>
    <TTGlyph name="Uacute" xMin="44" yMin="-35" xMax="1480" yMax="1795">
      <contour>
        <pt x="971" y="1795" on="1"/>
        <pt x="1075" y="1795" on="1"/>
        <pt x="1105" y="1636" on="1"/>
        <pt x="636" y="1491" on="1"/>
        <pt x="614" y="1598" on="1"/>
      </contour>
      <contour>
        <pt x="851" y="124" on="1"/>
        <pt x="913" y="124" on="0"/>
        <pt x="1015" y="160" on="0"/>
        <pt x="1050" y="196" on="1"/>
        <pt x="1139" y="286" on="0"/>
        <pt x="1139" y="477" on="1"/>
        <pt x="1139" y="1234" on="1"/>
        <pt x="942" y="1302" on="1"/>
        <pt x="959" y="1384" on="1"/>
        <pt x="1480" y="1384" on="1"/>
        <pt x="1464" y="1299" on="1"/>
        <pt x="1311" y="1232" on="1"/>
        <pt x="1311" y="494" on="1"/>
        <pt x="1311" y="328" on="0"/>
        <pt x="1180" y="91" on="0"/>
        <pt x="926" y="-35" on="0"/>
        <pt x="745" y="-35" on="1"/>
        <pt x="481" y="-35" on="0"/>
        <pt x="215" y="230" on="0"/>
        <pt x="215" y="469" on="1"/>
        <pt x="215" y="1236" on="1"/>
        <pt x="44" y="1303" on="1"/>
        <pt x="61" y="1384" on="1"/>
        <pt x="684" y="1384" on="1"/>
        <pt x="662" y="1282" on="1"/>
        <pt x="471" y="1225" on="1"/>
        <pt x="471" y="536" on="1"/>
        <pt x="471" y="417" on="0"/>
        <pt x="564" y="230" on="0"/>
        <pt x="736" y="124" on="0"/>
      </contour>
    </TTGlyph>
    <TTGlyph name="Ucircumflex" xMin="44" yMin="-35" xMax="1480" yMax="1793">
      <contour>
        <pt x="749" y="1793" on="1"/>
        <pt x="858" y="1793" on="1"/>
        <pt x="1130" y="1564" on="1"/>
        <pt x="1054" y="1493" on="1"/>
        <pt x="804" y="1620" on="1"/>
        <pt x="554" y="1493" on="1"/>
        <pt x="478" y="1564" on="1"/>
      </contour>
      <contour>
        <pt x="851" y="124" on="1"/>
        <pt x="913" y="124" on="0"/>
        <pt x="1015" y="160" on="0"/>
        <pt x="1050" y="196" on="1"/>
        <pt x="1139" y="286" on="0"/>
        <pt x="1139" y="477" on="1"/>
        <pt x="1139" y="1234" on="1"/>
        <pt x="942" y="1302" on="1"/>
        <pt x="959" y="1384" on="1"/>
        <pt x="1480" y="1384" on="1"/>
        <pt x="1464" y="1299" on="1"/>
        <pt x="1311" y="1232" on="1"/>
        <pt x="1311" y="494" on="1"/>
        <pt x="1311" y="328" on="0"/>
        <pt x="1180" y="91" on="0"/>
        <pt x="926" y="-35" on="0"/>
        <pt x="745" y="-35" on="1"/>
        <pt x="481" y="-35" on="0"/>
        <pt x="215" y="230" on="0"/>
        <pt x="215" y="469" on="1"/>
        <pt x="215" y="1236" on="1"/>
        <pt x="44" y="1303" on="1"/>
        <pt x="61" y="1384" on="1"/>
        <pt x="684" y="1384" on="1"/>
        <pt x="662" y="1282" on="1"/>
        <pt x="471" y="1225" on="1"/>
        <pt x="471" y="536" on="1"/>
        <pt x="471" y="417" on="0"/>
        <pt x="564" y="230" on="0"/>
        <pt x="736" y="124" on="0"/>
      </contour>
    </TTGlyph>
    <TTGlyph name="Udieresis" xMin="44" yMin="-35" xMax="1480" yMax="1754">
      <contour>
        <pt x="897" y="1598" on="1"/>
        <pt x="897" y="1620" on="0"/>
        <pt x="923" y="1690" on="0"/>
        <pt x="961" y="1747" on="0"/>
        <pt x="978" y="1752" on="1"/>
        <pt x="984" y="1754" on="0"/>
        <pt x="989" y="1754" on="1"/>
        <pt x="1010" y="1754" on="0"/>
        <pt x="1079" y="1727" on="0"/>
        <pt x="1136" y="1689" on="0"/>
        <pt x="1142" y="1673" on="1"/>
        <pt x="1143" y="1670" on="0"/>
        <pt x="1143" y="1662" on="1"/>
        <pt x="1143" y="1641" on="0"/>
        <pt x="1117" y="1571" on="0"/>
        <pt x="1079" y="1513" on="0"/>
        <pt x="1062" y="1507" on="1"/>
        <pt x="1059" y="1506" on="0"/>
        <pt x="1052" y="1506" on="1"/>
        <pt x="1031" y="1506" on="0"/>
        <pt x="962" y="1533" on="0"/>
        <pt x="904" y="1571" on="0"/>
        <pt x="898" y="1587" on="1"/>
        <pt x="897" y="1590" on="0"/>
      </contour>
      <contour>
        <pt x="462" y="1599" on="1"/>
        <pt x="462" y="1621" on="0"/>
        <pt x="489" y="1690" on="0"/>
        <pt x="527" y="1746" on="0"/>
        <pt x="544" y="1752" on="1"/>
        <pt x="547" y="1753" on="0"/>
        <pt x="554" y="1753" on="1"/>
        <pt x="574" y="1753" on="0"/>
        <pt x="643" y="1726" on="0"/>
        <pt x="701" y="1689" on="0"/>
        <pt x="707" y="1673" on="1"/>
        <pt x="708" y="1670" on="0"/>
        <pt x="708" y="1662" on="1"/>
        <pt x="708" y="1640" on="0"/>
        <pt x="682" y="1571" on="0"/>
        <pt x="644" y="1513" on="0"/>
        <pt x="627" y="1507" on="1"/>
        <pt x="624" y="1506" on="0"/>
        <pt x="617" y="1506" on="1"/>
        <pt x="596" y="1506" on="0"/>
        <pt x="527" y="1533" on="0"/>
        <pt x="470" y="1571" on="0"/>
        <pt x="464" y="1587" on="1"/>
        <pt x="462" y="1593" on="0"/>
      </contour>
      <contour>
        <pt x="851" y="124" on="1"/>
        <pt x="913" y="124" on="0"/>
        <pt x="1015" y="160" on="0"/>
        <pt x="1050" y="196" on="1"/>
        <pt x="1139" y="286" on="0"/>
        <pt x="1139" y="477" on="1"/>
        <pt x="1139" y="1234" on="1"/>
        <pt x="942" y="1302" on="1"/>
        <pt x="959" y="1384" on="1"/>
        <pt x="1480" y="1384" on="1"/>
        <pt x="1464" y="1299" on="1"/>
        <pt x="1311" y="1232" on="1"/>
        <pt x="1311" y="494" on="1"/>
        <pt x="1311" y="328" on="0"/>
        <pt x="1180" y="91" on="0"/>
        <pt x="926" y="-35" on="0"/>
        <pt x="745" y="-35" on="1"/>
        <pt x="481" y="-35" on="0"/>
        <pt x="215" y="230" on="0"/>
        <pt x="215" y="469" on="1"/>
        <pt x="215" y="1236" on="1"/>
        <pt x="44" y="1303" on="1"/>
        <pt x="61" y="1384" on="1"/>
        <pt x="684" y="1384" on="1"/>
        <pt x="662" y="1282" on="1"/>
        <pt x="471" y="1225" on="1"/>
        <pt x="471" y="536" on="1"/>
        <pt x="471" y="417" on="0"/>
        <pt x="564" y="230" on="0"/>
        <pt x="736" y="124" on="0"/>
      </contour>
    </TTGlyph>
    <TTGlyph name="Ugrave" xMin="44" yMin="-35" xMax="1480" yMax="1795">
      <contour>
        <pt x="587" y="1795" on="1"/>
        <pt x="691" y="1795" on="1"/>
        <pt x="1047" y="1599" on="1"/>
        <pt x="1026" y="1491" on="1"/>
        <pt x="557" y="1636" on="1"/>
      </contour>
      <contour>
        <pt x="851" y="124" on="1"/>
        <pt x="913" y="124" on="0"/>
        <pt x="1015" y="160" on="0"/>
        <pt x="1050" y="196" on="1"/>
        <pt x="1139" y="286" on="0"/>
        <pt x="1139" y="477" on="1"/>
        <pt x="1139" y="1234" on="1"/>
        <pt x="942" y="1302" on="1"/>
        <pt x="959" y="1384" on="1"/>
        <pt x="1480" y="1384" on="1"/>
        <pt x="1464" y="1299" on="1"/>
        <pt x="1311" y="1232" on="1"/>
        <pt x="1311" y="494" on="1"/>
        <pt x="1311" y="328" on="0"/>
        <pt x="1180" y="91" on="0"/>
        <pt x="926" y="-35" on="0"/>
        <pt x="745" y="-35" on="1"/>
        <pt x="481" y="-35" on="0"/>
        <pt x="215" y="230" on="0"/>
        <pt x="215" y="469" on="1"/>
        <pt x="215" y="1236" on="1"/>
        <pt x="44" y="1303" on="1"/>
        <pt x="61" y="1384" on="1"/>
        <pt x="684" y="1384" on="1"/>
        <pt x="662" y="1282" on="1"/>
        <pt x="471" y="1225" on="1"/>
        <pt x="471" y="536" on="1"/>
        <pt x="471" y="417" on="0"/>
        <pt x="564" y="230" on="0"/>
        <pt x="736" y="124" on="0"/>
      </contour>
    </TTGlyph>
    <TTGlyph name="Uhungarumlaut" xMin="44" yMin="-35" xMax="1480" yMax="1808">
      <contour>
        <pt x="852" y="1808" on="1"/>
        <pt x="872" y="1705" on="1"/>
        <pt x="585" y="1464" on="1"/>
        <pt x="531" y="1603" on="1"/>
        <pt x="711" y="1808" on="1"/>
      </contour>
      <contour>
        <pt x="1180" y="1808" on="1"/>
        <pt x="1200" y="1705" on="1"/>
        <pt x="914" y="1464" on="1"/>
        <pt x="859" y="1603" on="1"/>
        <pt x="1039" y="1808" on="1"/>
      </contour>
      <contour>
        <pt x="851" y="124" on="1"/>
        <pt x="913" y="124" on="0"/>
        <pt x="1015" y="160" on="0"/>
        <pt x="1050" y="196" on="1"/>
        <pt x="1139" y="286" on="0"/>
        <pt x="1139" y="477" on="1"/>
        <pt x="1139" y="1234" on="1"/>
        <pt x="942" y="1302" on="1"/>
        <pt x="959" y="1384" on="1"/>
        <pt x="1480" y="1384" on="1"/>
        <pt x="1464" y="1299" on="1"/>
        <pt x="1311" y="1232" on="1"/>
        <pt x="1311" y="494" on="1"/>
        <pt x="1311" y="328" on="0"/>
        <pt x="1180" y="91" on="0"/>
        <pt x="926" y="-35" on="0"/>
        <pt x="745" y="-35" on="1"/>
        <pt x="481" y="-35" on="0"/>
        <pt x="215" y="230" on="0"/>
        <pt x="215" y="469" on="1"/>
        <pt x="215" y="1236" on="1"/>
        <pt x="44" y="1303" on="1"/>
        <pt x="61" y="1384" on="1"/>
        <pt x="684" y="1384" on="1"/>
        <pt x="662" y="1282" on="1"/>
        <pt x="471" y="1225" on="1"/>
        <pt x="471" y="536" on="1"/>
        <pt x="471" y="417" on="0"/>
        <pt x="564" y="230" on="0"/>
        <pt x="736" y="124" on="0"/>
      </contour>
    </TTGlyph>
    <TTGlyph name="Umacron" xMin="44" yMin="-35" xMax="1480" yMax="1690">
      <contour>
        <pt x="1098" y="1690" on="1"/>
        <pt x="1071" y="1547" on="1"/>
        <pt x="960" y="1541" on="0"/>
        <pt x="628" y="1535" on="0"/>
        <pt x="505" y="1535" on="1"/>
        <pt x="536" y="1690" on="1"/>
      </contour>
      <contour>
        <pt x="851" y="124" on="1"/>
        <pt x="913" y="124" on="0"/>
        <pt x="1015" y="160" on="0"/>
        <pt x="1050" y="196" on="1"/>
        <pt x="1139" y="286" on="0"/>
        <pt x="1139" y="477" on="1"/>
        <pt x="1139" y="1234" on="1"/>
        <pt x="942" y="1302" on="1"/>
        <pt x="959" y="1384" on="1"/>
        <pt x="1480" y="1384" on="1"/>
        <pt x="1464" y="1299" on="1"/>
        <pt x="1311" y="1232" on="1"/>
        <pt x="1311" y="494" on="1"/>
        <pt x="1311" y="328" on="0"/>
        <pt x="1180" y="91" on="0"/>
        <pt x="926" y="-35" on="0"/>
        <pt x="745" y="-35" on="1"/>
        <pt x="481" y="-35" on="0"/>
        <pt x="215" y="230" on="0"/>
        <pt x="215" y="469" on="1"/>
        <pt x="215" y="1236" on="1"/>
        <pt x="44" y="1303" on="1"/>
        <pt x="61" y="1384" on="1"/>
        <pt x="684" y="1384" on="1"/>
        <pt x="662" y="1282" on="1"/>
        <pt x="471" y="1225" on="1"/>
        <pt x="471" y="536" on="1"/>
        <pt x="471" y="417" on="0"/>
        <pt x="564" y="230" on="0"/>
        <pt x="736" y="124" on="0"/>
      </contour>
    </TTGlyph>
    <TTGlyph name="Uogonek" xMin="39" yMin="-486" xMax="1481" yMax="1384">
      <contour>
        <pt x="852" y="124" on="1"/>
        <pt x="998" y="124" on="0"/>
        <pt x="1139" y="308" on="0"/>
        <pt x="1139" y="477" on="1"/>
        <pt x="1139" y="1234" on="1"/>
        <pt x="941" y="1302" on="1"/>
        <pt x="961" y="1384" on="1"/>
        <pt x="1481" y="1384" on="1"/>
        <pt x="1462" y="1299" on="1"/>
        <pt x="1312" y="1232" on="1"/>
        <pt x="1312" y="494" on="1"/>
        <pt x="1312" y="326" on="0"/>
        <pt x="1194" y="114" on="0"/>
        <pt x="1078" y="32" on="1"/>
        <pt x="976" y="-41" on="0"/>
        <pt x="848" y="-175" on="0"/>
        <pt x="848" y="-232" on="1"/>
        <pt x="848" y="-268" on="0"/>
        <pt x="890" y="-334" on="0"/>
        <pt x="923" y="-348" on="1"/>
        <pt x="938" y="-355" on="0"/>
        <pt x="958" y="-355" on="1"/>
        <pt x="989" y="-355" on="0"/>
        <pt x="1081" y="-330" on="0"/>
        <pt x="1121" y="-310" on="1"/>
        <pt x="1146" y="-353" on="1"/>
        <pt x="1013" y="-486" on="0"/>
        <pt x="879" y="-486" on="1"/>
        <pt x="819" y="-486" on="0"/>
        <pt x="717" y="-440" on="0"/>
        <pt x="654" y="-348" on="0"/>
        <pt x="654" y="-283" on="1"/>
        <pt x="654" y="-188" on="0"/>
        <pt x="738" y="-107" on="1"/>
        <pt x="779" y="-66" on="0"/>
        <pt x="849" y="-28" on="1"/>
        <pt x="806" y="-35" on="0"/>
        <pt x="745" y="-35" on="1"/>
        <pt x="481" y="-35" on="0"/>
        <pt x="212" y="231" on="0"/>
        <pt x="212" y="469" on="1"/>
        <pt x="212" y="1236" on="1"/>
        <pt x="39" y="1303" on="1"/>
        <pt x="58" y="1384" on="1"/>
        <pt x="684" y="1384" on="1"/>
        <pt x="663" y="1282" on="1"/>
        <pt x="472" y="1225" on="1"/>
        <pt x="472" y="536" on="1"/>
        <pt x="472" y="417" on="0"/>
        <pt x="565" y="230" on="0"/>
        <pt x="737" y="124" on="0"/>
      </contour>
    </TTGlyph>
    <TTGlyph name="Uring" xMin="44" yMin="-35" xMax="1480" yMax="1842">
      <contour>
        <pt x="605" y="1648" on="1"/>
        <pt x="605" y="1703" on="0"/>
        <pt x="654" y="1791" on="0"/>
        <pt x="745" y="1842" on="0"/>
        <pt x="804" y="1842" on="1"/>
        <pt x="853" y="1842" on="0"/>
        <pt x="940" y="1797" on="0"/>
        <pt x="993" y="1717" on="0"/>
        <pt x="993" y="1665" on="1"/>
        <pt x="993" y="1609" on="0"/>
        <pt x="943" y="1520" on="0"/>
        <pt x="854" y="1471" on="0"/>
        <pt x="797" y="1471" on="1"/>
        <pt x="745" y="1471" on="0"/>
        <pt x="657" y="1515" on="0"/>
        <pt x="605" y="1596" on="0"/>
      </contour>
      <contour>
        <pt x="872" y="1648" on="1"/>
        <pt x="872" y="1686" on="0"/>
        <pt x="828" y="1738" on="0"/>
        <pt x="790" y="1738" on="1"/>
        <pt x="761" y="1738" on="0"/>
        <pt x="724" y="1695" on="0"/>
        <pt x="724" y="1665" on="1"/>
        <pt x="724" y="1629" on="0"/>
        <pt x="767" y="1577" on="0"/>
        <pt x="806" y="1577" on="1"/>
        <pt x="836" y="1577" on="0"/>
        <pt x="872" y="1617" on="0"/>
      </contour>
      <contour>
        <pt x="851" y="124" on="1"/>
        <pt x="913" y="124" on="0"/>
        <pt x="1015" y="160" on="0"/>
        <pt x="1050" y="196" on="1"/>
        <pt x="1139" y="286" on="0"/>
        <pt x="1139" y="477" on="1"/>
        <pt x="1139" y="1234" on="1"/>
        <pt x="942" y="1302" on="1"/>
        <pt x="959" y="1384" on="1"/>
        <pt x="1480" y="1384" on="1"/>
        <pt x="1464" y="1299" on="1"/>
        <pt x="1311" y="1232" on="1"/>
        <pt x="1311" y="494" on="1"/>
        <pt x="1311" y="328" on="0"/>
        <pt x="1180" y="91" on="0"/>
        <pt x="926" y="-35" on="0"/>
        <pt x="745" y="-35" on="1"/>
        <pt x="481" y="-35" on="0"/>
        <pt x="215" y="230" on="0"/>
        <pt x="215" y="469" on="1"/>
        <pt x="215" y="1236" on="1"/>
        <pt x="44" y="1303" on="1"/>
        <pt x="61" y="1384" on="1"/>
        <pt x="684" y="1384" on="1"/>
        <pt x="662" y="1282" on="1"/>
        <pt x="471" y="1225" on="1"/>
        <pt x="471" y="536" on="1"/>
        <pt x="471" y="417" on="0"/>
        <pt x="564" y="230" on="0"/>
        <pt x="736" y="124" on="0"/>
      </contour>
    </TTGlyph>
    <TTGlyph name="V" xMin="-33" yMin="-35" xMax="1417" yMax="1384">
      <contour>
        <pt x="919" y="1291" on="1"/>
        <pt x="937" y="1384" on="1"/>
        <pt x="1417" y="1384" on="1"/>
        <pt x="1399" y="1291" on="1"/>
        <pt x="1267" y="1240" on="1"/>
        <pt x="828" y="0" on="1"/>
        <pt x="591" y="-35" on="1"/>
        <pt x="107" y="1240" on="1"/>
        <pt x="-33" y="1290" on="1"/>
        <pt x="-15" y="1384" on="1"/>
        <pt x="585" y="1384" on="1"/>
        <pt x="569" y="1293" on="1"/>
        <pt x="406" y="1239" on="1"/>
        <pt x="776" y="202" on="1"/>
        <pt x="1097" y="1243" on="1"/>
      </contour>
    </TTGlyph>
    <TTGlyph name="W" xMin="-12" yMin="-35" xMax="2134" yMax="1384">
      <contour>
        <pt x="2117" y="1289" on="1"/>
        <pt x="1986" y="1240" on="1"/>
        <pt x="1581" y="0" on="1"/>
        <pt x="1346" y="-35" on="1"/>
        <pt x="1055" y="878" on="1"/>
        <pt x="761" y="0" on="1"/>
        <pt x="523" y="-35" on="1"/>
        <pt x="133" y="1240" on="1"/>
        <pt x="-12" y="1289" on="1"/>
        <pt x="6" y="1384" on="1"/>
        <pt x="591" y="1384" on="1"/>
        <pt x="575" y="1292" on="1"/>
        <pt x="420" y="1239" on="1"/>
        <pt x="704" y="222" on="1"/>
        <pt x="991" y="1078" on="1"/>
        <pt x="939" y="1242" on="1"/>
        <pt x="796" y="1294" on="1"/>
        <pt x="812" y="1384" on="1"/>
        <pt x="1422" y="1384" on="1"/>
        <pt x="1405" y="1290" on="1"/>
        <pt x="1214" y="1238" on="1"/>
        <pt x="1527" y="221" on="1"/>
        <pt x="1819" y="1242" on="1"/>
        <pt x="1620" y="1290" on="1"/>
        <pt x="1640" y="1384" on="1"/>
        <pt x="2134" y="1384" on="1"/>
      </contour>
    </TTGlyph>
    <TTGlyph name="X" xMin="19" yMin="0" xMax="1380" yMax="1384">
      <contour>
        <pt x="1365" y="0" on="1"/>
        <pt x="756" y="0" on="1"/>
        <pt x="771" y="86" on="1"/>
        <pt x="914" y="146" on="1"/>
        <pt x="639" y="562" on="1"/>
        <pt x="371" y="145" on="1"/>
        <pt x="532" y="82" on="1"/>
        <pt x="513" y="0" on="1"/>
        <pt x="19" y="0" on="1"/>
        <pt x="35" y="93" on="1"/>
        <pt x="180" y="146" on="1"/>
        <pt x="564" y="673" on="1"/>
        <pt x="173" y="1240" on="1"/>
        <pt x="25" y="1285" on="1"/>
        <pt x="43" y="1384" on="1"/>
        <pt x="646" y="1384" on="1"/>
        <pt x="631" y="1297" on="1"/>
        <pt x="488" y="1238" on="1"/>
        <pt x="764" y="816" on="1"/>
        <pt x="1026" y="1239" on="1"/>
        <pt x="867" y="1303" on="1"/>
        <pt x="883" y="1384" on="1"/>
        <pt x="1379" y="1384" on="1"/>
        <pt x="1360" y="1287" on="1"/>
        <pt x="1215" y="1240" on="1"/>
        <pt x="840" y="704" on="1"/>
        <pt x="1232" y="142" on="1"/>
        <pt x="1380" y="88" on="1"/>
      </contour>
    </TTGlyph>
    <TTGlyph name="Y" xMin="-34" yMin="0" xMax="1275" yMax="1384">
      <contour>
        <pt x="504" y="558" on="1"/>
        <pt x="101" y="1240" on="1"/>
        <pt x="-34" y="1290" on="1"/>
        <pt x="-17" y="1384" on="1"/>
        <pt x="555" y="1384" on="1"/>
        <pt x="538" y="1296" on="1"/>
        <pt x="382" y="1237" on="1"/>
        <pt x="701" y="681" on="1"/>
        <pt x="741" y="786" on="0"/>
        <pt x="858" y="1039" on="0"/>
        <pt x="940" y="1205" on="1"/>
        <pt x="955" y="1235" on="1"/>
        <pt x="772" y="1302" on="1"/>
        <pt x="789" y="1384" on="1"/>
        <pt x="1275" y="1384" on="1"/>
        <pt x="1260" y="1289" on="1"/>
        <pt x="1125" y="1240" on="1"/>
        <pt x="760" y="560" on="1"/>
        <pt x="760" y="147" on="1"/>
        <pt x="961" y="82" on="1"/>
        <pt x="945" y="0" on="1"/>
        <pt x="315" y="0" on="1"/>
        <pt x="330" y="83" on="1"/>
        <pt x="504" y="147" on="1"/>
      </contour>
    </TTGlyph>
    <TTGlyph name="Yacute" xMin="-34" yMin="0" xMax="1275" yMax="1795">
      <contour>
        <pt x="809" y="1795" on="1"/>
        <pt x="913" y="1795" on="1"/>
        <pt x="943" y="1636" on="1"/>
        <pt x="474" y="1491" on="1"/>
        <pt x="452" y="1598" on="1"/>
      </contour>
      <contour>
        <pt x="504" y="558" on="1"/>
        <pt x="101" y="1240" on="1"/>
        <pt x="-34" y="1290" on="1"/>
        <pt x="-17" y="1384" on="1"/>
        <pt x="555" y="1384" on="1"/>
        <pt x="538" y="1296" on="1"/>
        <pt x="382" y="1237" on="1"/>
        <pt x="701" y="681" on="1"/>
        <pt x="741" y="786" on="0"/>
        <pt x="858" y="1039" on="0"/>
        <pt x="940" y="1205" on="1"/>
        <pt x="955" y="1235" on="1"/>
        <pt x="772" y="1302" on="1"/>
        <pt x="789" y="1384" on="1"/>
        <pt x="1275" y="1384" on="1"/>
        <pt x="1260" y="1289" on="1"/>
        <pt x="1125" y="1240" on="1"/>
        <pt x="760" y="560" on="1"/>
        <pt x="760" y="147" on="1"/>
        <pt x="961" y="82" on="1"/>
        <pt x="945" y="0" on="1"/>
        <pt x="315" y="0" on="1"/>
        <pt x="330" y="83" on="1"/>
        <pt x="504" y="147" on="1"/>
      </contour>
    </TTGlyph>
    <TTGlyph name="Ydieresis" xMin="-34" yMin="0" xMax="1275" yMax="1754">
      <contour>
        <pt x="735" y="1598" on="1"/>
        <pt x="735" y="1620" on="0"/>
        <pt x="761" y="1690" on="0"/>
        <pt x="799" y="1747" on="0"/>
        <pt x="816" y="1752" on="1"/>
        <pt x="822" y="1754" on="0"/>
        <pt x="827" y="1754" on="1"/>
        <pt x="848" y="1754" on="0"/>
        <pt x="917" y="1727" on="0"/>
        <pt x="974" y="1689" on="0"/>
        <pt x="980" y="1673" on="1"/>
        <pt x="981" y="1670" on="0"/>
        <pt x="981" y="1662" on="1"/>
        <pt x="981" y="1641" on="0"/>
        <pt x="955" y="1571" on="0"/>
        <pt x="917" y="1513" on="0"/>
        <pt x="900" y="1507" on="1"/>
        <pt x="897" y="1506" on="0"/>
        <pt x="890" y="1506" on="1"/>
        <pt x="869" y="1506" on="0"/>
        <pt x="800" y="1533" on="0"/>
        <pt x="742" y="1571" on="0"/>
        <pt x="736" y="1587" on="1"/>
        <pt x="735" y="1590" on="0"/>
      </contour>
      <contour>
        <pt x="300" y="1599" on="1"/>
        <pt x="300" y="1621" on="0"/>
        <pt x="327" y="1690" on="0"/>
        <pt x="365" y="1746" on="0"/>
        <pt x="382" y="1752" on="1"/>
        <pt x="385" y="1753" on="0"/>
        <pt x="392" y="1753" on="1"/>
        <pt x="412" y="1753" on="0"/>
        <pt x="481" y="1726" on="0"/>
        <pt x="539" y="1689" on="0"/>
        <pt x="545" y="1673" on="1"/>
        <pt x="546" y="1670" on="0"/>
        <pt x="546" y="1662" on="1"/>
        <pt x="546" y="1640" on="0"/>
        <pt x="520" y="1571" on="0"/>
        <pt x="482" y="1513" on="0"/>
        <pt x="465" y="1507" on="1"/>
        <pt x="462" y="1506" on="0"/>
        <pt x="455" y="1506" on="1"/>
        <pt x="434" y="1506" on="0"/>
        <pt x="365" y="1533" on="0"/>
        <pt x="308" y="1571" on="0"/>
        <pt x="302" y="1587" on="1"/>
        <pt x="300" y="1593" on="0"/>
      </contour>
      <contour>
        <pt x="504" y="558" on="1"/>
        <pt x="101" y="1240" on="1"/>
        <pt x="-34" y="1290" on="1"/>
        <pt x="-17" y="1384" on="1"/>
        <pt x="555" y="1384" on="1"/>
        <pt x="538" y="1296" on="1"/>
        <pt x="382" y="1237" on="1"/>
        <pt x="701" y="681" on="1"/>
        <pt x="741" y="786" on="0"/>
        <pt x="858" y="1039" on="0"/>
        <pt x="940" y="1205" on="1"/>
        <pt x="955" y="1235" on="1"/>
        <pt x="772" y="1302" on="1"/>
        <pt x="789" y="1384" on="1"/>
        <pt x="1275" y="1384" on="1"/>
        <pt x="1260" y="1289" on="1"/>
        <pt x="1125" y="1240" on="1"/>
        <pt x="760" y="560" on="1"/>
        <pt x="760" y="147" on="1"/>
        <pt x="961" y="82" on="1"/>
        <pt x="945" y="0" on="1"/>
        <pt x="315" y="0" on="1"/>
        <pt x="330" y="83" on="1"/>
        <pt x="504" y="147" on="1"/>
      </contour>
    </TTGlyph>
    <TTGlyph name="Z" xMin="57" yMin="0" xMax="1201" yMax="1394">
      <contour>
        <pt x="1201" y="360" on="1"/>
        <pt x="1119" y="0" on="1"/>
        <pt x="114" y="0" on="1"/>
        <pt x="57" y="151" on="1"/>
        <pt x="900" y="1281" on="1"/>
        <pt x="314" y="1232" on="1"/>
        <pt x="211" y="1013" on="1"/>
        <pt x="95" y="1035" on="1"/>
        <pt x="143" y="1394" on="1"/>
        <pt x="317" y="1384" on="1"/>
        <pt x="1149" y="1384" on="1"/>
        <pt x="1190" y="1261" on="1"/>
        <pt x="342" y="116" on="1"/>
        <pt x="969" y="165" on="1"/>
        <pt x="1094" y="380" on="1"/>
      </contour>
    </TTGlyph>
    <TTGlyph name="Zacute" xMin="57" yMin="0" xMax="1201" yMax="1795">
      <contour>
        <pt x="814" y="1795" on="1"/>
        <pt x="918" y="1795" on="1"/>
        <pt x="948" y="1636" on="1"/>
        <pt x="479" y="1491" on="1"/>
        <pt x="457" y="1598" on="1"/>
      </contour>
      <contour>
        <pt x="1201" y="360" on="1"/>
        <pt x="1119" y="0" on="1"/>
        <pt x="114" y="0" on="1"/>
        <pt x="57" y="151" on="1"/>
        <pt x="900" y="1281" on="1"/>
        <pt x="314" y="1232" on="1"/>
        <pt x="211" y="1013" on="1"/>
        <pt x="95" y="1035" on="1"/>
        <pt x="143" y="1394" on="1"/>
        <pt x="317" y="1384" on="1"/>
        <pt x="1149" y="1384" on="1"/>
        <pt x="1190" y="1261" on="1"/>
        <pt x="342" y="116" on="1"/>
        <pt x="969" y="165" on="1"/>
        <pt x="1094" y="380" on="1"/>
      </contour>
    </TTGlyph>
    <TTGlyph name="Zcaron" xMin="57" yMin="0" xMax="1201" yMax="1807">
      <contour>
        <pt x="396" y="1807" on="1"/>
        <pt x="646" y="1679" on="1"/>
        <pt x="897" y="1807" on="1"/>
        <pt x="971" y="1737" on="1"/>
        <pt x="704" y="1515" on="1"/>
        <pt x="589" y="1515" on="1"/>
        <pt x="322" y="1737" on="1"/>
      </contour>
      <contour>
        <pt x="1201" y="360" on="1"/>
        <pt x="1119" y="0" on="1"/>
        <pt x="114" y="0" on="1"/>
        <pt x="57" y="151" on="1"/>
        <pt x="900" y="1281" on="1"/>
        <pt x="314" y="1232" on="1"/>
        <pt x="211" y="1013" on="1"/>
        <pt x="95" y="1035" on="1"/>
        <pt x="143" y="1394" on="1"/>
        <pt x="317" y="1384" on="1"/>
        <pt x="1149" y="1384" on="1"/>
        <pt x="1190" y="1261" on="1"/>
        <pt x="342" y="116" on="1"/>
        <pt x="969" y="165" on="1"/>
        <pt x="1094" y="380" on="1"/>
      </contour>
    </TTGlyph>
    <TTGlyph name="Zdotaccent" xMin="57" yMin="0" xMax="1201" yMax="1743">
      <contour>
        <pt x="532" y="1663" on="1"/>
        <pt x="532" y="1679" on="0"/>
        <pt x="536" y="1687" on="1"/>
        <pt x="546" y="1705" on="0"/>
        <pt x="644" y="1743" on="0"/>
        <pt x="679" y="1743" on="1"/>
        <pt x="694" y="1743" on="0"/>
        <pt x="701" y="1739" on="1"/>
        <pt x="719" y="1730" on="0"/>
        <pt x="758" y="1631" on="0"/>
        <pt x="758" y="1596" on="1"/>
        <pt x="758" y="1581" on="0"/>
        <pt x="754" y="1573" on="1"/>
        <pt x="744" y="1555" on="0"/>
        <pt x="645" y="1516" on="0"/>
        <pt x="610" y="1516" on="1"/>
        <pt x="596" y="1516" on="0"/>
        <pt x="588" y="1520" on="1"/>
        <pt x="570" y="1529" on="0"/>
        <pt x="532" y="1627" on="0"/>
      </contour>
      <contour>
        <pt x="1201" y="360" on="1"/>
        <pt x="1119" y="0" on="1"/>
        <pt x="114" y="0" on="1"/>
        <pt x="57" y="151" on="1"/>
        <pt x="900" y="1281" on="1"/>
        <pt x="314" y="1232" on="1"/>
        <pt x="211" y="1013" on="1"/>
        <pt x="95" y="1035" on="1"/>
        <pt x="143" y="1394" on="1"/>
        <pt x="317" y="1384" on="1"/>
        <pt x="1149" y="1384" on="1"/>
        <pt x="1190" y="1261" on="1"/>
        <pt x="342" y="116" on="1"/>
        <pt x="969" y="165" on="1"/>
        <pt x="1094" y="380" on="1"/>
      </contour>
    </TTGlyph>
    <TTGlyph name="a" xMin="61" yMin="-25" xMax="1036" yMax="975">
      <contour>
        <pt x="212" y="488" on="1"/>
        <pt x="265" y="511" on="0"/>
        <pt x="417" y="533" on="0"/>
        <pt x="490" y="533" on="1"/>
        <pt x="558" y="533" on="0"/>
        <pt x="620" y="525" on="1"/>
        <pt x="620" y="579" on="1"/>
        <pt x="620" y="670" on="0"/>
        <pt x="585" y="819" on="0"/>
        <pt x="533" y="851" on="1"/>
        <pt x="514" y="863" on="0"/>
        <pt x="453" y="875" on="0"/>
        <pt x="420" y="875" on="1"/>
        <pt x="391" y="875" on="0"/>
        <pt x="361" y="868" on="1"/>
        <pt x="330" y="692" on="1"/>
        <pt x="311" y="675" on="0"/>
        <pt x="263" y="652" on="0"/>
        <pt x="246" y="652" on="1"/>
        <pt x="221" y="652" on="0"/>
        <pt x="148" y="699" on="0"/>
        <pt x="95" y="767" on="0"/>
        <pt x="95" y="797" on="1"/>
        <pt x="95" y="823" on="0"/>
        <pt x="163" y="875" on="0"/>
        <pt x="209" y="896" on="1"/>
        <pt x="291" y="932" on="0"/>
        <pt x="518" y="975" on="0"/>
        <pt x="578" y="975" on="1"/>
        <pt x="728" y="975" on="0"/>
        <pt x="862" y="814" on="0"/>
        <pt x="862" y="674" on="1"/>
        <pt x="862" y="196" on="1"/>
        <pt x="920" y="122" on="0"/>
        <pt x="1036" y="93" on="1"/>
        <pt x="1023" y="35" on="1"/>
        <pt x="901" y="-22" on="0"/>
        <pt x="765" y="-25" on="1"/>
        <pt x="741" y="24" on="0"/>
        <pt x="687" y="100" on="0"/>
        <pt x="647" y="132" on="1"/>
        <pt x="619" y="93" on="0"/>
        <pt x="521" y="21" on="0"/>
        <pt x="399" y="-25" on="0"/>
        <pt x="335" y="-25" on="1"/>
        <pt x="239" y="-25" on="0"/>
        <pt x="116" y="55" on="0"/>
        <pt x="61" y="177" on="0"/>
        <pt x="61" y="241" on="1"/>
        <pt x="61" y="338" on="0"/>
        <pt x="131" y="454" on="0"/>
      </contour>
      <contour>
        <pt x="414" y="117" on="1"/>
        <pt x="456" y="117" on="0"/>
        <pt x="581" y="147" on="0"/>
        <pt x="620" y="165" on="1"/>
        <pt x="620" y="460" on="1"/>
        <pt x="533" y="450" on="0"/>
        <pt x="404" y="416" on="0"/>
        <pt x="330" y="379" on="0"/>
        <pt x="319" y="366" on="1"/>
        <pt x="303" y="345" on="0"/>
        <pt x="303" y="301" on="1"/>
        <pt x="303" y="253" on="0"/>
        <pt x="351" y="145" on="0"/>
        <pt x="383" y="127" on="1"/>
        <pt x="394" y="117" on="0"/>
      </contour>
    </TTGlyph>
    <TTGlyph name="aacute" xMin="62" yMin="-25" xMax="1037" yMax="1457">
      <contour>
        <pt x="213" y="488" on="1"/>
        <pt x="266" y="511" on="0"/>
        <pt x="418" y="533" on="0"/>
        <pt x="491" y="533" on="1"/>
        <pt x="559" y="533" on="0"/>
        <pt x="621" y="525" on="1"/>
        <pt x="621" y="579" on="1"/>
        <pt x="621" y="670" on="0"/>
        <pt x="586" y="819" on="0"/>
        <pt x="534" y="851" on="1"/>
        <pt x="515" y="863" on="0"/>
        <pt x="454" y="875" on="0"/>
        <pt x="421" y="875" on="1"/>
        <pt x="392" y="875" on="0"/>
        <pt x="362" y="868" on="1"/>
        <pt x="331" y="692" on="1"/>
        <pt x="312" y="675" on="0"/>
        <pt x="264" y="652" on="0"/>
        <pt x="247" y="652" on="1"/>
        <pt x="222" y="652" on="0"/>
        <pt x="149" y="699" on="0"/>
        <pt x="96" y="767" on="0"/>
        <pt x="96" y="797" on="1"/>
        <pt x="96" y="823" on="0"/>
        <pt x="164" y="875" on="0"/>
        <pt x="210" y="896" on="1"/>
        <pt x="292" y="932" on="0"/>
        <pt x="519" y="975" on="0"/>
        <pt x="579" y="975" on="1"/>
        <pt x="729" y="975" on="0"/>
        <pt x="863" y="814" on="0"/>
        <pt x="863" y="674" on="1"/>
        <pt x="863" y="196" on="1"/>
        <pt x="921" y="122" on="0"/>
        <pt x="1037" y="93" on="1"/>
        <pt x="1024" y="35" on="1"/>
        <pt x="902" y="-22" on="0"/>
        <pt x="766" y="-25" on="1"/>
        <pt x="742" y="24" on="0"/>
        <pt x="688" y="100" on="0"/>
        <pt x="648" y="132" on="1"/>
        <pt x="620" y="93" on="0"/>
        <pt x="522" y="21" on="0"/>
        <pt x="400" y="-25" on="0"/>
        <pt x="336" y="-25" on="1"/>
        <pt x="240" y="-25" on="0"/>
        <pt x="117" y="55" on="0"/>
        <pt x="62" y="177" on="0"/>
        <pt x="62" y="241" on="1"/>
        <pt x="62" y="338" on="0"/>
        <pt x="132" y="454" on="0"/>
      </contour>
      <contour>
        <pt x="415" y="117" on="1"/>
        <pt x="457" y="117" on="0"/>
        <pt x="582" y="147" on="0"/>
        <pt x="621" y="165" on="1"/>
        <pt x="621" y="460" on="1"/>
        <pt x="534" y="450" on="0"/>
        <pt x="405" y="416" on="0"/>
        <pt x="331" y="379" on="0"/>
        <pt x="320" y="366" on="1"/>
        <pt x="304" y="345" on="0"/>
        <pt x="304" y="301" on="1"/>
        <pt x="304" y="253" on="0"/>
        <pt x="352" y="145" on="0"/>
        <pt x="384" y="127" on="1"/>
        <pt x="395" y="117" on="0"/>
      </contour>
      <contour>
        <pt x="701" y="1457" on="1"/>
        <pt x="733" y="1290" on="1"/>
        <pt x="333" y="1054" on="1"/>
        <pt x="308" y="1191" on="1"/>
        <pt x="599" y="1457" on="1"/>
      </contour>
    </TTGlyph>
    <TTGlyph name="aadeva" xMin="20" yMin="-98" xMax="2064" yMax="1203">
      <contour>
        <pt x="1853" y="1032" on="1"/>
        <pt x="1853" y="-98" on="1"/>
        <pt x="1644" y="-41" on="1"/>
        <pt x="1644" y="1032" on="1"/>
        <pt x="1342" y="1032" on="1"/>
        <pt x="1342" y="-98" on="1"/>
        <pt x="1133" y="-40" on="1"/>
        <pt x="1133" y="492" on="1"/>
        <pt x="1078" y="461" on="0"/>
        <pt x="1002" y="461" on="1"/>
        <pt x="940" y="461" on="0"/>
        <pt x="860" y="492" on="1"/>
        <pt x="928" y="413" on="0"/>
        <pt x="928" y="315" on="1"/>
        <pt x="928" y="220" on="0"/>
        <pt x="832" y="81" on="0"/>
        <pt x="670" y="8" on="0"/>
        <pt x="573" y="8" on="1"/>
        <pt x="399" y="8" on="0"/>
        <pt x="121" y="244" on="0"/>
        <pt x="20" y="475" on="1"/>
        <pt x="120" y="525" on="1"/>
        <pt x="224" y="348" on="0"/>
        <pt x="411" y="190" on="0"/>
        <pt x="517" y="190" on="1"/>
        <pt x="578" y="190" on="0"/>
        <pt x="675" y="240" on="0"/>
        <pt x="729" y="327" on="0"/>
        <pt x="729" y="381" on="1"/>
        <pt x="729" y="493" on="0"/>
        <pt x="635" y="580" on="1"/>
        <pt x="563" y="545" on="0"/>
        <pt x="468" y="527" on="1"/>
        <pt x="361" y="705" on="1"/>
        <pt x="535" y="754" on="0"/>
        <pt x="700" y="882" on="0"/>
        <pt x="701" y="971" on="1"/>
        <pt x="701" y="993" on="0"/>
        <pt x="692" y="1030" on="0"/>
        <pt x="684" y="1039" on="1"/>
        <pt x="669" y="1056" on="0"/>
        <pt x="607" y="1056" on="1"/>
        <pt x="542" y="1056" on="0"/>
        <pt x="378" y="955" on="0"/>
        <pt x="309" y="872" on="1"/>
        <pt x="164" y="1032" on="1"/>
        <pt x="234" y="1112" on="0"/>
        <pt x="415" y="1203" on="0"/>
        <pt x="507" y="1203" on="1"/>
        <pt x="595" y="1203" on="0"/>
        <pt x="747" y="1108" on="0"/>
        <pt x="836" y="958" on="0"/>
        <pt x="836" y="880" on="1"/>
        <pt x="836" y="724" on="0"/>
        <pt x="718" y="630" on="1"/>
        <pt x="793" y="594" on="0"/>
        <pt x="884" y="594" on="1"/>
        <pt x="955" y="594" on="0"/>
        <pt x="1090" y="659" on="0"/>
        <pt x="1133" y="714" on="1"/>
        <pt x="1133" y="1032" on="1"/>
        <pt x="984" y="1032" on="1"/>
        <pt x="932" y="1187" on="1"/>
        <pt x="2017" y="1187" on="1"/>
        <pt x="2064" y="1032" on="1"/>
      </contour>
    </TTGlyph>
    <TTGlyph name="abbreviationsigndeva" xMin="165" yMin="198" xMax="814" yMax="891">
      <contour>
        <pt x="165" y="544" on="1"/>
        <pt x="165" y="640" on="0"/>
        <pt x="247" y="799" on="0"/>
        <pt x="395" y="891" on="0"/>
        <pt x="492" y="891" on="1"/>
        <pt x="647" y="891" on="0"/>
        <pt x="814" y="709" on="0"/>
        <pt x="814" y="544" on="1"/>
        <pt x="814" y="447" on="0"/>
        <pt x="734" y="289" on="0"/>
        <pt x="588" y="198" on="0"/>
        <pt x="492" y="198" on="1"/>
        <pt x="391" y="198" on="0"/>
        <pt x="244" y="280" on="0"/>
        <pt x="165" y="436" on="0"/>
      </contour>
      <contour>
        <pt x="604" y="377" on="1"/>
        <pt x="619" y="388" on="0"/>
        <pt x="646" y="465" on="0"/>
        <pt x="646" y="533" on="1"/>
        <pt x="646" y="623" on="0"/>
        <pt x="549" y="730" on="0"/>
        <pt x="462" y="730" on="1"/>
        <pt x="434" y="730" on="0"/>
        <pt x="386" y="720" on="0"/>
        <pt x="378" y="712" on="1"/>
        <pt x="335" y="666" on="0"/>
        <pt x="335" y="553" on="1"/>
        <pt x="335" y="464" on="0"/>
        <pt x="436" y="359" on="0"/>
        <pt x="524" y="359" on="1"/>
        <pt x="585" y="359" on="0"/>
      </contour>
    </TTGlyph>
    <TTGlyph name="abreve" xMin="62" yMin="-25" xMax="1037" yMax="1364">
      <contour>
        <pt x="213" y="488" on="1"/>
        <pt x="266" y="511" on="0"/>
        <pt x="418" y="533" on="0"/>
        <pt x="491" y="533" on="1"/>
        <pt x="559" y="533" on="0"/>
        <pt x="621" y="525" on="1"/>
        <pt x="621" y="579" on="1"/>
        <pt x="621" y="670" on="0"/>
        <pt x="586" y="819" on="0"/>
        <pt x="534" y="851" on="1"/>
        <pt x="515" y="863" on="0"/>
        <pt x="454" y="875" on="0"/>
        <pt x="421" y="875" on="1"/>
        <pt x="392" y="875" on="0"/>
        <pt x="362" y="868" on="1"/>
        <pt x="331" y="692" on="1"/>
        <pt x="312" y="675" on="0"/>
        <pt x="264" y="652" on="0"/>
        <pt x="247" y="652" on="1"/>
        <pt x="222" y="652" on="0"/>
        <pt x="149" y="699" on="0"/>
        <pt x="96" y="767" on="0"/>
        <pt x="96" y="797" on="1"/>
        <pt x="96" y="823" on="0"/>
        <pt x="164" y="875" on="0"/>
        <pt x="210" y="896" on="1"/>
        <pt x="292" y="932" on="0"/>
        <pt x="519" y="975" on="0"/>
        <pt x="579" y="975" on="1"/>
        <pt x="729" y="975" on="0"/>
        <pt x="863" y="814" on="0"/>
        <pt x="863" y="674" on="1"/>
        <pt x="863" y="196" on="1"/>
        <pt x="921" y="122" on="0"/>
        <pt x="1037" y="93" on="1"/>
        <pt x="1024" y="35" on="1"/>
        <pt x="902" y="-22" on="0"/>
        <pt x="766" y="-25" on="1"/>
        <pt x="742" y="24" on="0"/>
        <pt x="688" y="100" on="0"/>
        <pt x="648" y="132" on="1"/>
        <pt x="620" y="93" on="0"/>
        <pt x="522" y="21" on="0"/>
        <pt x="400" y="-25" on="0"/>
        <pt x="336" y="-25" on="1"/>
        <pt x="240" y="-25" on="0"/>
        <pt x="117" y="55" on="0"/>
        <pt x="62" y="177" on="0"/>
        <pt x="62" y="241" on="1"/>
        <pt x="62" y="338" on="0"/>
        <pt x="132" y="454" on="0"/>
      </contour>
      <contour>
        <pt x="415" y="117" on="1"/>
        <pt x="457" y="117" on="0"/>
        <pt x="582" y="147" on="0"/>
        <pt x="621" y="165" on="1"/>
        <pt x="621" y="460" on="1"/>
        <pt x="534" y="450" on="0"/>
        <pt x="405" y="416" on="0"/>
        <pt x="331" y="379" on="0"/>
        <pt x="320" y="366" on="1"/>
        <pt x="304" y="345" on="0"/>
        <pt x="304" y="301" on="1"/>
        <pt x="304" y="253" on="0"/>
        <pt x="352" y="145" on="0"/>
        <pt x="384" y="127" on="1"/>
        <pt x="395" y="117" on="0"/>
      </contour>
      <contour>
        <pt x="198" y="1298" on="1"/>
        <pt x="198" y="1327" on="0"/>
        <pt x="210" y="1364" on="1"/>
        <pt x="339" y="1363" on="1"/>
        <pt x="352" y="1278" on="0"/>
        <pt x="441" y="1199" on="0"/>
        <pt x="491" y="1199" on="1"/>
        <pt x="541" y="1199" on="0"/>
        <pt x="627" y="1278" on="0"/>
        <pt x="641" y="1364" on="1"/>
        <pt x="770" y="1364" on="1"/>
        <pt x="781" y="1326" on="0"/>
        <pt x="781" y="1299" on="1"/>
        <pt x="781" y="1237" on="0"/>
        <pt x="703" y="1131" on="0"/>
        <pt x="570" y="1068" on="0"/>
        <pt x="491" y="1068" on="1"/>
        <pt x="412" y="1068" on="0"/>
        <pt x="277" y="1131" on="0"/>
        <pt x="198" y="1237" on="0"/>
      </contour>
    </TTGlyph>
    <TTGlyph name="acircumflex" xMin="62" yMin="-25" xMax="1037" yMax="1399">
      <contour>
        <pt x="213" y="488" on="1"/>
        <pt x="266" y="511" on="0"/>
        <pt x="418" y="533" on="0"/>
        <pt x="491" y="533" on="1"/>
        <pt x="559" y="533" on="0"/>
        <pt x="621" y="525" on="1"/>
        <pt x="621" y="579" on="1"/>
        <pt x="621" y="670" on="0"/>
        <pt x="586" y="819" on="0"/>
        <pt x="534" y="851" on="1"/>
        <pt x="515" y="863" on="0"/>
        <pt x="454" y="875" on="0"/>
        <pt x="421" y="875" on="1"/>
        <pt x="392" y="875" on="0"/>
        <pt x="362" y="868" on="1"/>
        <pt x="331" y="692" on="1"/>
        <pt x="312" y="675" on="0"/>
        <pt x="264" y="652" on="0"/>
        <pt x="247" y="652" on="1"/>
        <pt x="222" y="652" on="0"/>
        <pt x="149" y="699" on="0"/>
        <pt x="96" y="767" on="0"/>
        <pt x="96" y="797" on="1"/>
        <pt x="96" y="823" on="0"/>
        <pt x="164" y="875" on="0"/>
        <pt x="210" y="896" on="1"/>
        <pt x="292" y="932" on="0"/>
        <pt x="519" y="975" on="0"/>
        <pt x="579" y="975" on="1"/>
        <pt x="729" y="975" on="0"/>
        <pt x="863" y="814" on="0"/>
        <pt x="863" y="674" on="1"/>
        <pt x="863" y="196" on="1"/>
        <pt x="921" y="122" on="0"/>
        <pt x="1037" y="93" on="1"/>
        <pt x="1024" y="35" on="1"/>
        <pt x="902" y="-22" on="0"/>
        <pt x="766" y="-25" on="1"/>
        <pt x="742" y="24" on="0"/>
        <pt x="688" y="100" on="0"/>
        <pt x="648" y="132" on="1"/>
        <pt x="620" y="93" on="0"/>
        <pt x="522" y="21" on="0"/>
        <pt x="400" y="-25" on="0"/>
        <pt x="336" y="-25" on="1"/>
        <pt x="240" y="-25" on="0"/>
        <pt x="117" y="55" on="0"/>
        <pt x="62" y="177" on="0"/>
        <pt x="62" y="241" on="1"/>
        <pt x="62" y="338" on="0"/>
        <pt x="132" y="454" on="0"/>
      </contour>
      <contour>
        <pt x="415" y="117" on="1"/>
        <pt x="457" y="117" on="0"/>
        <pt x="582" y="147" on="0"/>
        <pt x="621" y="165" on="1"/>
        <pt x="621" y="460" on="1"/>
        <pt x="534" y="450" on="0"/>
        <pt x="405" y="416" on="0"/>
        <pt x="331" y="379" on="0"/>
        <pt x="320" y="366" on="1"/>
        <pt x="304" y="345" on="0"/>
        <pt x="304" y="301" on="1"/>
        <pt x="304" y="253" on="0"/>
        <pt x="352" y="145" on="0"/>
        <pt x="384" y="127" on="1"/>
        <pt x="395" y="117" on="0"/>
      </contour>
      <contour>
        <pt x="154" y="1140" on="1"/>
        <pt x="420" y="1399" on="1"/>
        <pt x="561" y="1399" on="1"/>
        <pt x="826" y="1140" on="1"/>
        <pt x="732" y="1081" on="1"/>
        <pt x="490" y="1224" on="1"/>
        <pt x="249" y="1081" on="1"/>
      </contour>
    </TTGlyph>
    <TTGlyph name="acute" xMin="330" yMin="1054" xMax="755" yMax="1457">
      <contour>
        <pt x="723" y="1457" on="1"/>
        <pt x="755" y="1290" on="1"/>
        <pt x="355" y="1054" on="1"/>
        <pt x="330" y="1191" on="1"/>
        <pt x="621" y="1457" on="1"/>
      </contour>
    </TTGlyph>
    <TTGlyph name="acutedeva" xMin="-837" yMin="1278" xMax="-300" yMax="1780">
      <contour>
        <pt x="-440" y="1780" on="1"/>
        <pt x="-300" y="1670" on="1"/>
        <pt x="-724" y="1278" on="1"/>
        <pt x="-837" y="1385" on="1"/>
      </contour>
    </TTGlyph>
    <TTGlyph name="adeva" xMin="20" yMin="-98" xMax="1561" yMax="1203">
      <contour>
        <pt x="1342" y="1032" on="1"/>
        <pt x="1342" y="-98" on="1"/>
        <pt x="1133" y="-40" on="1"/>
        <pt x="1133" y="492" on="1"/>
        <pt x="1078" y="461" on="0"/>
        <pt x="1002" y="461" on="1"/>
        <pt x="940" y="461" on="0"/>
        <pt x="860" y="492" on="1"/>
        <pt x="928" y="413" on="0"/>
        <pt x="928" y="315" on="1"/>
        <pt x="928" y="220" on="0"/>
        <pt x="832" y="81" on="0"/>
        <pt x="670" y="8" on="0"/>
        <pt x="573" y="8" on="1"/>
        <pt x="399" y="8" on="0"/>
        <pt x="121" y="244" on="0"/>
        <pt x="20" y="475" on="1"/>
        <pt x="120" y="525" on="1"/>
        <pt x="224" y="348" on="0"/>
        <pt x="411" y="190" on="0"/>
        <pt x="517" y="190" on="1"/>
        <pt x="578" y="190" on="0"/>
        <pt x="675" y="240" on="0"/>
        <pt x="729" y="327" on="0"/>
        <pt x="729" y="381" on="1"/>
        <pt x="729" y="493" on="0"/>
        <pt x="635" y="580" on="1"/>
        <pt x="563" y="545" on="0"/>
        <pt x="468" y="527" on="1"/>
        <pt x="361" y="705" on="1"/>
        <pt x="535" y="754" on="0"/>
        <pt x="700" y="882" on="0"/>
        <pt x="701" y="971" on="1"/>
        <pt x="701" y="993" on="0"/>
        <pt x="692" y="1030" on="0"/>
        <pt x="684" y="1039" on="1"/>
        <pt x="669" y="1056" on="0"/>
        <pt x="607" y="1056" on="1"/>
        <pt x="542" y="1056" on="0"/>
        <pt x="378" y="955" on="0"/>
        <pt x="309" y="872" on="1"/>
        <pt x="164" y="1032" on="1"/>
        <pt x="234" y="1112" on="0"/>
        <pt x="415" y="1203" on="0"/>
        <pt x="507" y="1203" on="1"/>
        <pt x="595" y="1203" on="0"/>
        <pt x="747" y="1108" on="0"/>
        <pt x="836" y="958" on="0"/>
        <pt x="836" y="880" on="1"/>
        <pt x="836" y="724" on="0"/>
        <pt x="718" y="630" on="1"/>
        <pt x="793" y="594" on="0"/>
        <pt x="884" y="594" on="1"/>
        <pt x="955" y="594" on="0"/>
        <pt x="1090" y="659" on="0"/>
        <pt x="1133" y="714" on="1"/>
        <pt x="1133" y="1032" on="1"/>
        <pt x="984" y="1032" on="1"/>
        <pt x="932" y="1187" on="1"/>
        <pt x="1512" y="1187" on="1"/>
        <pt x="1561" y="1032" on="1"/>
      </contour>
    </TTGlyph>
    <TTGlyph name="adieresis" xMin="62" yMin="-25" xMax="1037" yMax="1421">
      <contour>
        <pt x="213" y="488" on="1"/>
        <pt x="266" y="511" on="0"/>
        <pt x="418" y="533" on="0"/>
        <pt x="491" y="533" on="1"/>
        <pt x="559" y="533" on="0"/>
        <pt x="621" y="525" on="1"/>
        <pt x="621" y="579" on="1"/>
        <pt x="621" y="670" on="0"/>
        <pt x="586" y="819" on="0"/>
        <pt x="534" y="851" on="1"/>
        <pt x="515" y="863" on="0"/>
        <pt x="454" y="875" on="0"/>
        <pt x="421" y="875" on="1"/>
        <pt x="392" y="875" on="0"/>
        <pt x="362" y="868" on="1"/>
        <pt x="331" y="692" on="1"/>
        <pt x="312" y="675" on="0"/>
        <pt x="264" y="652" on="0"/>
        <pt x="247" y="652" on="1"/>
        <pt x="222" y="652" on="0"/>
        <pt x="149" y="699" on="0"/>
        <pt x="96" y="767" on="0"/>
        <pt x="96" y="797" on="1"/>
        <pt x="96" y="823" on="0"/>
        <pt x="164" y="875" on="0"/>
        <pt x="210" y="896" on="1"/>
        <pt x="292" y="932" on="0"/>
        <pt x="519" y="975" on="0"/>
        <pt x="579" y="975" on="1"/>
        <pt x="729" y="975" on="0"/>
        <pt x="863" y="814" on="0"/>
        <pt x="863" y="674" on="1"/>
        <pt x="863" y="196" on="1"/>
        <pt x="921" y="122" on="0"/>
        <pt x="1037" y="93" on="1"/>
        <pt x="1024" y="35" on="1"/>
        <pt x="902" y="-22" on="0"/>
        <pt x="766" y="-25" on="1"/>
        <pt x="742" y="24" on="0"/>
        <pt x="688" y="100" on="0"/>
        <pt x="648" y="132" on="1"/>
        <pt x="620" y="93" on="0"/>
        <pt x="522" y="21" on="0"/>
        <pt x="400" y="-25" on="0"/>
        <pt x="336" y="-25" on="1"/>
        <pt x="240" y="-25" on="0"/>
        <pt x="117" y="55" on="0"/>
        <pt x="62" y="177" on="0"/>
        <pt x="62" y="241" on="1"/>
        <pt x="62" y="338" on="0"/>
        <pt x="132" y="454" on="0"/>
      </contour>
      <contour>
        <pt x="415" y="117" on="1"/>
        <pt x="457" y="117" on="0"/>
        <pt x="582" y="147" on="0"/>
        <pt x="621" y="165" on="1"/>
        <pt x="621" y="460" on="1"/>
        <pt x="534" y="450" on="0"/>
        <pt x="405" y="416" on="0"/>
        <pt x="331" y="379" on="0"/>
        <pt x="320" y="366" on="1"/>
        <pt x="304" y="345" on="0"/>
        <pt x="304" y="301" on="1"/>
        <pt x="304" y="253" on="0"/>
        <pt x="352" y="145" on="0"/>
        <pt x="384" y="127" on="1"/>
        <pt x="395" y="117" on="0"/>
      </contour>
      <contour>
        <pt x="147" y="1244" on="1"/>
        <pt x="147" y="1269" on="0"/>
        <pt x="178" y="1348" on="0"/>
        <pt x="222" y="1412" on="0"/>
        <pt x="241" y="1419" on="1"/>
        <pt x="247" y="1421" on="0"/>
        <pt x="254" y="1421" on="1"/>
        <pt x="277" y="1421" on="0"/>
        <pt x="351" y="1389" on="0"/>
        <pt x="414" y="1344" on="0"/>
        <pt x="421" y="1327" on="1"/>
        <pt x="423" y="1319" on="0"/>
        <pt x="423" y="1312" on="1"/>
        <pt x="423" y="1287" on="0"/>
        <pt x="395" y="1208" on="0"/>
        <pt x="354" y="1144" on="0"/>
        <pt x="336" y="1137" on="1"/>
        <pt x="330" y="1135" on="0"/>
        <pt x="324" y="1135" on="1"/>
        <pt x="300" y="1135" on="0"/>
        <pt x="220" y="1167" on="0"/>
        <pt x="155" y="1212" on="0"/>
        <pt x="149" y="1229" on="1"/>
        <pt x="147" y="1233" on="0"/>
      </contour>
      <contour>
        <pt x="556" y="1245" on="1"/>
        <pt x="556" y="1271" on="0"/>
        <pt x="584" y="1349" on="0"/>
        <pt x="624" y="1412" on="0"/>
        <pt x="642" y="1419" on="1"/>
        <pt x="650" y="1421" on="0"/>
        <pt x="655" y="1421" on="1"/>
        <pt x="679" y="1421" on="0"/>
        <pt x="758" y="1389" on="0"/>
        <pt x="824" y="1345" on="0"/>
        <pt x="831" y="1327" on="1"/>
        <pt x="833" y="1319" on="0"/>
        <pt x="833" y="1313" on="1"/>
        <pt x="833" y="1289" on="0"/>
        <pt x="802" y="1209" on="0"/>
        <pt x="757" y="1144" on="0"/>
        <pt x="738" y="1137" on="1"/>
        <pt x="730" y="1135" on="0"/>
        <pt x="726" y="1135" on="1"/>
        <pt x="702" y="1135" on="0"/>
        <pt x="628" y="1167" on="0"/>
        <pt x="565" y="1212" on="0"/>
        <pt x="558" y="1229" on="1"/>
        <pt x="556" y="1237" on="0"/>
      </contour>
    </TTGlyph>
    <TTGlyph name="ae" xMin="61" yMin="-25" xMax="1398" yMax="975">
      <contour>
        <pt x="215" y="485" on="1"/>
        <pt x="270" y="506" on="0"/>
        <pt x="425" y="529" on="0"/>
        <pt x="496" y="529" on="1"/>
        <pt x="540" y="529" on="0"/>
        <pt x="616" y="525" on="1"/>
        <pt x="616" y="575" on="1"/>
        <pt x="616" y="796" on="0"/>
        <pt x="523" y="851" on="1"/>
        <pt x="484" y="875" on="0"/>
        <pt x="414" y="875" on="1"/>
        <pt x="384" y="875" on="0"/>
        <pt x="356" y="868" on="1"/>
        <pt x="324" y="692" on="1"/>
        <pt x="305" y="675" on="0"/>
        <pt x="257" y="652" on="0"/>
        <pt x="240" y="652" on="1"/>
        <pt x="215" y="652" on="0"/>
        <pt x="142" y="699" on="0"/>
        <pt x="88" y="767" on="0"/>
        <pt x="88" y="797" on="1"/>
        <pt x="88" y="823" on="0"/>
        <pt x="156" y="875" on="0"/>
        <pt x="203" y="896" on="1"/>
        <pt x="286" y="933" on="0"/>
        <pt x="508" y="975" on="0"/>
        <pt x="568" y="975" on="1"/>
        <pt x="724" y="975" on="0"/>
        <pt x="795" y="878" on="1"/>
        <pt x="911" y="975" on="0"/>
        <pt x="1073" y="975" on="1"/>
        <pt x="1175" y="975" on="0"/>
        <pt x="1322" y="889" on="0"/>
        <pt x="1398" y="744" on="0"/>
        <pt x="1398" y="657" on="1"/>
        <pt x="1398" y="592" on="0"/>
        <pt x="1368" y="524" on="1"/>
        <pt x="1361" y="506" on="0"/>
        <pt x="1335" y="489" on="0"/>
        <pt x="1311" y="489" on="1"/>
        <pt x="825" y="489" on="1"/>
        <pt x="827" y="398" on="0"/>
        <pt x="904" y="231" on="0"/>
        <pt x="1031" y="128" on="0"/>
        <pt x="1105" y="128" on="1"/>
        <pt x="1164" y="128" on="0"/>
        <pt x="1310" y="171" on="0"/>
        <pt x="1350" y="190" on="1"/>
        <pt x="1372" y="155" on="1"/>
        <pt x="1338" y="108" on="0"/>
        <pt x="1231" y="26" on="0"/>
        <pt x="1099" y="-25" on="0"/>
        <pt x="1032" y="-25" on="1"/>
        <pt x="926" y="-25" on="0"/>
        <pt x="746" y="55" on="0"/>
        <pt x="683" y="137" on="1"/>
        <pt x="625" y="68" on="0"/>
        <pt x="432" y="-25" on="0"/>
        <pt x="322" y="-25" on="1"/>
        <pt x="233" y="-25" on="0"/>
        <pt x="116" y="56" on="0"/>
        <pt x="61" y="178" on="0"/>
        <pt x="61" y="241" on="1"/>
        <pt x="61" y="341" on="0"/>
        <pt x="132" y="451" on="0"/>
      </contour>
      <contour>
        <pt x="972" y="859" on="1"/>
        <pt x="913" y="859" on="0"/>
        <pt x="892" y="835" on="1"/>
        <pt x="869" y="805" on="0"/>
        <pt x="830" y="660" on="0"/>
        <pt x="825" y="563" on="1"/>
        <pt x="1176" y="603" on="1"/>
        <pt x="1176" y="682" on="0"/>
        <pt x="1123" y="798" on="0"/>
        <pt x="1031" y="859" on="0"/>
      </contour>
      <contour>
        <pt x="414" y="117" on="1"/>
        <pt x="461" y="117" on="0"/>
        <pt x="580" y="149" on="0"/>
        <pt x="616" y="172" on="1"/>
        <pt x="616" y="458" on="1"/>
        <pt x="528" y="448" on="0"/>
        <pt x="402" y="412" on="0"/>
        <pt x="331" y="376" on="0"/>
        <pt x="319" y="362" on="1"/>
        <pt x="309" y="349" on="0"/>
        <pt x="303" y="316" on="0"/>
        <pt x="303" y="295" on="1"/>
        <pt x="303" y="248" on="0"/>
        <pt x="351" y="146" on="0"/>
        <pt x="383" y="127" on="1"/>
        <pt x="394" y="117" on="0"/>
      </contour>
    </TTGlyph>
    <TTGlyph name="agrave" xMin="62" yMin="-25" xMax="1037" yMax="1457">
      <contour>
        <pt x="213" y="488" on="1"/>
        <pt x="266" y="511" on="0"/>
        <pt x="418" y="533" on="0"/>
        <pt x="491" y="533" on="1"/>
        <pt x="559" y="533" on="0"/>
        <pt x="621" y="525" on="1"/>
        <pt x="621" y="579" on="1"/>
        <pt x="621" y="670" on="0"/>
        <pt x="586" y="819" on="0"/>
        <pt x="534" y="851" on="1"/>
        <pt x="515" y="863" on="0"/>
        <pt x="454" y="875" on="0"/>
        <pt x="421" y="875" on="1"/>
        <pt x="392" y="875" on="0"/>
        <pt x="362" y="868" on="1"/>
        <pt x="331" y="692" on="1"/>
        <pt x="312" y="675" on="0"/>
        <pt x="264" y="652" on="0"/>
        <pt x="247" y="652" on="1"/>
        <pt x="222" y="652" on="0"/>
        <pt x="149" y="699" on="0"/>
        <pt x="96" y="767" on="0"/>
        <pt x="96" y="797" on="1"/>
        <pt x="96" y="823" on="0"/>
        <pt x="164" y="875" on="0"/>
        <pt x="210" y="896" on="1"/>
        <pt x="292" y="932" on="0"/>
        <pt x="519" y="975" on="0"/>
        <pt x="579" y="975" on="1"/>
        <pt x="729" y="975" on="0"/>
        <pt x="863" y="814" on="0"/>
        <pt x="863" y="674" on="1"/>
        <pt x="863" y="196" on="1"/>
        <pt x="921" y="122" on="0"/>
        <pt x="1037" y="93" on="1"/>
        <pt x="1024" y="35" on="1"/>
        <pt x="902" y="-22" on="0"/>
        <pt x="766" y="-25" on="1"/>
        <pt x="742" y="24" on="0"/>
        <pt x="688" y="100" on="0"/>
        <pt x="648" y="132" on="1"/>
        <pt x="620" y="93" on="0"/>
        <pt x="522" y="21" on="0"/>
        <pt x="400" y="-25" on="0"/>
        <pt x="336" y="-25" on="1"/>
        <pt x="240" y="-25" on="0"/>
        <pt x="117" y="55" on="0"/>
        <pt x="62" y="177" on="0"/>
        <pt x="62" y="241" on="1"/>
        <pt x="62" y="338" on="0"/>
        <pt x="132" y="454" on="0"/>
      </contour>
      <contour>
        <pt x="415" y="117" on="1"/>
        <pt x="457" y="117" on="0"/>
        <pt x="582" y="147" on="0"/>
        <pt x="621" y="165" on="1"/>
        <pt x="621" y="460" on="1"/>
        <pt x="534" y="450" on="0"/>
        <pt x="405" y="416" on="0"/>
        <pt x="331" y="379" on="0"/>
        <pt x="320" y="366" on="1"/>
        <pt x="304" y="345" on="0"/>
        <pt x="304" y="301" on="1"/>
        <pt x="304" y="253" on="0"/>
        <pt x="352" y="145" on="0"/>
        <pt x="384" y="127" on="1"/>
        <pt x="395" y="117" on="0"/>
      </contour>
      <contour>
        <pt x="290" y="1457" on="1"/>
        <pt x="394" y="1457" on="1"/>
        <pt x="684" y="1190" on="1"/>
        <pt x="660" y="1054" on="1"/>
        <pt x="258" y="1290" on="1"/>
      </contour>
    </TTGlyph>
    <TTGlyph name="aideva" xMin="-52" yMin="-322" xMax="1214" yMax="1712">
      <contour>
        <pt x="1038" y="1032" on="1"/>
        <pt x="1038" y="663" on="1"/>
        <pt x="1038" y="561" on="0"/>
        <pt x="1005" y="433" on="0"/>
        <pt x="928" y="347" on="0"/>
        <pt x="858" y="311" on="1"/>
        <pt x="669" y="443" on="1"/>
        <pt x="725" y="469" on="0"/>
        <pt x="790" y="516" on="0"/>
        <pt x="825" y="581" on="0"/>
        <pt x="825" y="630" on="1"/>
        <pt x="825" y="1032" on="1"/>
        <pt x="369" y="1032" on="1"/>
        <pt x="369" y="526" on="1"/>
        <pt x="369" y="481" on="0"/>
        <pt x="388" y="439" on="0"/>
        <pt x="417" y="419" on="1"/>
        <pt x="485" y="373" on="0"/>
        <pt x="650" y="269" on="0"/>
        <pt x="678" y="252" on="1"/>
        <pt x="778" y="191" on="0"/>
        <pt x="835" y="154" on="1"/>
        <pt x="897" y="115" on="0"/>
        <pt x="954" y="13" on="0"/>
        <pt x="954" y="-53" on="1"/>
        <pt x="954" y="-111" on="0"/>
        <pt x="887" y="-238" on="0"/>
        <pt x="811" y="-322" on="1"/>
        <pt x="634" y="-186" on="1"/>
        <pt x="692" y="-131" on="0"/>
        <pt x="747" y="-53" on="0"/>
        <pt x="747" y="-17" on="1"/>
        <pt x="747" y="11" on="0"/>
        <pt x="724" y="54" on="0"/>
        <pt x="694" y="72" on="1"/>
        <pt x="491" y="201" on="0"/>
        <pt x="318" y="307" on="1"/>
        <pt x="243" y="353" on="0"/>
        <pt x="177" y="415" on="0"/>
        <pt x="153" y="496" on="0"/>
        <pt x="153" y="571" on="1"/>
        <pt x="153" y="1032" on="1"/>
        <pt x="1" y="1032" on="1"/>
        <pt x="-52" y="1187" on="1"/>
        <pt x="857" y="1187" on="1"/>
        <pt x="820" y="1261" on="0"/>
        <pt x="720" y="1394" on="0"/>
        <pt x="627" y="1485" on="0"/>
        <pt x="600" y="1500" on="1"/>
        <pt x="565" y="1512" on="0"/>
        <pt x="495" y="1512" on="1"/>
        <pt x="427" y="1512" on="0"/>
        <pt x="329" y="1485" on="1"/>
        <pt x="266" y="1677" on="1"/>
        <pt x="313" y="1698" on="0"/>
        <pt x="412" y="1712" on="0"/>
        <pt x="465" y="1712" on="1"/>
        <pt x="532" y="1711" on="0"/>
        <pt x="647" y="1669" on="0"/>
        <pt x="689" y="1637" on="1"/>
        <pt x="780" y="1566" on="0"/>
        <pt x="946" y="1318" on="0"/>
        <pt x="991" y="1187" on="1"/>
        <pt x="1165" y="1187" on="1"/>
        <pt x="1214" y="1032" on="1"/>
      </contour>
    </TTGlyph>
</ttFont>
